<svg xmlns="http://www.w3.org/2000/svg" width="51.327" height="51.427" viewBox="0 0 51.327 51.427">
  <g id="Group_5874" data-name="Group 5874" transform="translate(-640 -639.5)">
    <path id="Path_12387" data-name="Path 12387" d="M702.806,651.329a2.306,2.306,0,0,0,2.306-2.306v-7.218a2.306,2.306,0,0,0-4.612,0v7.218A2.306,2.306,0,0,0,702.806,651.329Z" transform="translate(-48.37)" fill="#4e5358"/>
    <path id="Path_12388" data-name="Path 12388" d="M814.806,651.329a2.306,2.306,0,0,0,2.306-2.306v-7.218a2.306,2.306,0,1,0-4.611,0v7.218A2.306,2.306,0,0,0,814.806,651.329Z" transform="translate(-137.914)" fill="#4e5358"/>
    <path id="Path_12389" data-name="Path 12389" d="M687,662h-4.2v4.912a5.814,5.814,0,1,1-11.629,0V662H660.35v4.912a5.814,5.814,0,1,1-11.629,0V662h-4.4A4.325,4.325,0,0,0,640,666.324v38.267a4.325,4.325,0,0,0,4.325,4.325H687a4.325,4.325,0,0,0,4.325-4.325V666.324A4.325,4.325,0,0,0,687,662Zm-.387,42h-41.7V677.538h41.7Z" transform="translate(0 -17.989)" fill="#4e5358"/>
    <rect id="Rectangle_3623" data-name="Rectangle 3623" width="7.819" height="7.819" transform="translate(649.724 663.56)" fill="#4e5358"/>
    <rect id="Rectangle_3624" data-name="Rectangle 3624" width="7.819" height="7.819" transform="translate(661.754 663.56)" fill="#4e5358"/>
    <rect id="Rectangle_3625" data-name="Rectangle 3625" width="7.819" height="7.819" transform="translate(673.784 663.56)" fill="#4e5358"/>
    <rect id="Rectangle_3626" data-name="Rectangle 3626" width="7.819" height="7.819" transform="translate(649.724 674.787)" fill="#4e5358"/>
    <rect id="Rectangle_3627" data-name="Rectangle 3627" width="7.819" height="7.819" transform="translate(661.754 674.787)" fill="#4e5358"/>
    <rect id="Rectangle_3628" data-name="Rectangle 3628" width="7.819" height="7.819" transform="translate(673.784 674.787)" fill="#4e5358"/>
  </g>
</svg>
