<svg xmlns="http://www.w3.org/2000/svg" width="45.151" height="45.151" viewBox="0 0 45.151 45.151">
  <g id="process" transform="translate(0.5 0.5)">
    <path id="Path_3907" data-name="Path 3907" d="M25.008,44.151H19.144a1.727,1.727,0,0,1-1.725-1.725V39.852A18.218,18.218,0,0,1,12.8,37.937l-1.822,1.822a1.727,1.727,0,0,1-2.439,0L4.392,35.612a1.726,1.726,0,0,1,0-2.439l1.822-1.822A18.218,18.218,0,0,1,4.3,26.732H1.725A1.727,1.727,0,0,1,0,25.008V19.144a1.727,1.727,0,0,1,1.725-1.725H4.293a18.217,18.217,0,0,1,1.913-4.627L4.392,10.978a1.726,1.726,0,0,1,0-2.439L8.539,4.392a1.727,1.727,0,0,1,2.439,0L12.786,6.2a18.217,18.217,0,0,1,4.633-1.923V1.725A1.727,1.727,0,0,1,19.144,0h5.864a1.727,1.727,0,0,1,1.725,1.725V4.272a18.226,18.226,0,0,1,4.641,1.921l1.8-1.8a1.726,1.726,0,0,1,2.439,0l4.147,4.147a1.727,1.727,0,0,1,0,2.439l-1.8,1.8a18.226,18.226,0,0,1,1.921,4.641h2.547a1.727,1.727,0,0,1,1.725,1.725v5.864a1.727,1.727,0,0,1-1.725,1.725H39.874a18.229,18.229,0,0,1-1.923,4.633l1.808,1.808a1.726,1.726,0,0,1,0,2.439l-4.146,4.147a1.727,1.727,0,0,1-2.439,0l-1.814-1.814a18.227,18.227,0,0,1-4.627,1.913v2.569A1.727,1.727,0,0,1,25.008,44.151ZM12.671,35.984a.861.861,0,0,1,.464.135,16.512,16.512,0,0,0,5.333,2.212.862.862,0,0,1,.676.842v3.253h5.864V39.178a.862.862,0,0,1,.677-.842,16.524,16.524,0,0,0,5.341-2.208.862.862,0,0,1,1.073.118l2.294,2.294,4.146-4.146L36.25,32.1a.862.862,0,0,1-.117-1.075,16.522,16.522,0,0,0,2.22-5.346.862.862,0,0,1,.842-.676h3.231V19.144H39.2a.862.862,0,0,1-.842-.677,16.513,16.513,0,0,0-2.216-5.354.863.863,0,0,1,.117-1.074l2.28-2.28L34.393,5.612l-2.28,2.28a.863.863,0,0,1-1.074.117,16.52,16.52,0,0,0-5.354-2.216.862.862,0,0,1-.677-.842V1.725H19.144V4.956a.862.862,0,0,1-.676.842,16.52,16.52,0,0,0-5.346,2.219A.862.862,0,0,1,12.048,7.9L9.758,5.612,5.612,9.758l2.294,2.294a.862.862,0,0,1,.118,1.073,16.524,16.524,0,0,0-2.208,5.341.862.862,0,0,1-.842.677H1.725v5.864H4.978a.863.863,0,0,1,.842.676,16.516,16.516,0,0,0,2.212,5.333.862.862,0,0,1-.117,1.074l-2.3,2.3,4.146,4.147,2.3-2.3A.862.862,0,0,1,12.671,35.984Zm0,0" fill="#138909" stroke="#138909" stroke-width="1"/>
    <path id="Path_3908" data-name="Path 3908" d="M122.652,135.192a12.588,12.588,0,1,1,6.154-23.571.862.862,0,1,1-.843,1.5,10.865,10.865,0,1,0,4.413,4.627.862.862,0,1,1,1.543-.771,12.586,12.586,0,0,1-11.267,18.21Zm0,0" transform="translate(-100.576 -100.532)" fill="#138909" stroke="#138909" stroke-width="1"/>
    <path id="Path_3909" data-name="Path 3909" d="M345.214,153.736a.863.863,0,1,1,.61-.253A.867.867,0,0,1,345.214,153.736Zm0,0" transform="translate(-314.657 -138.903)" fill="#138909" stroke="#138909" stroke-width="1"/>
    <path id="Path_3910" data-name="Path 3910" d="M174.964,195.037a.862.862,0,0,1-.61-.253l-5.453-5.454a.862.862,0,0,1,0-1.219l3.093-3.093a.863.863,0,0,1,1.22,0l1.75,1.751,4.185-4.184a.862.862,0,0,1,1.219,0l3.093,3.093a.863.863,0,0,1,0,1.219l-7.887,7.887A.864.864,0,0,1,174.964,195.037Zm-4.234-6.316,4.234,4.234,6.668-6.668-1.874-1.874-4.184,4.184a.862.862,0,0,1-1.22,0l-1.751-1.751Zm0,0" transform="translate(-154.105 -166.609)" fill="#138909" stroke="#138909" stroke-width="1"/>
  </g>
</svg>
