<svg xmlns="http://www.w3.org/2000/svg" xmlns:xlink="http://www.w3.org/1999/xlink" width="279.752" height="163.648" viewBox="0 0 279.752 163.648">
  <defs>
    <clipPath id="clip-path">
      <path id="Path_3882" data-name="Path 3882" d="M-57.2-1904.662l101.655,90.1s108.951,16.385,111.2-40.675S75.232-1969.9,75.232-1969.9Z" transform="translate(57.201 1969.897)" fill="none"/>
    </clipPath>
  </defs>
  <g id="Group_7080" data-name="Group 7080" transform="translate(0 -50.196)">
    <path id="Path_9" data-name="Path 9" d="M621.359,261.866c39.034,19.8,88.134,31.6,141.478,31.6,51.895,0,99.774-11.168,138.274-30.005V143c0-3.1-3.025-5.607-6.756-5.607H628.114c-3.73,0-6.755,2.51-6.755,5.607Z" transform="translate(-621.359 -87.192)" fill="#fff"/>
    <g id="Group_4416" data-name="Group 4416" transform="translate(19 56.327)">
      <g id="Group_4410" data-name="Group 4410" transform="translate(0 16.661)">
        <g id="Group_4407" data-name="Group 4407">
          <path id="Path_3873" data-name="Path 3873" d="M-38.732-1849.938l-25.737-8.414-46.282,4.186a21.66,21.66,0,0,1-23.785-19.248l-3.864-36.642a21.66,21.66,0,0,1,19.248-23.785l67.421-7.109,1,9.457-67.421,7.109a12.14,12.14,0,0,0-10.788,13.331l3.864,36.642a12.14,12.14,0,0,0,13.331,10.788l48.3-4.4,13.717,4.484-.618-5.865,15.356-2.314A12.14,12.14,0,0,0-24.2-1885.047l-1.2-11.383,9.457-1,1.2,11.382a21.66,21.66,0,0,1-19.248,23.785l-5.9,1.317Z" transform="translate(138.52 1940.95)" fill="#138909"/>
        </g>
        <g id="Group_4408" data-name="Group 4408" transform="translate(26.561 27.702)">
          <path id="Path_3874" data-name="Path 3874" d="M-73.913-1879.259l-11.195,1.18.455,4.316,9.644-1.017.544,5.159-9.644,1.017,1.056,10.014-6.71.708-2.61-24.749,17.9-1.888Z" transform="translate(92.372 1889.296)" fill="#138909"/>
          <path id="Path_3875" data-name="Path 3875" d="M-29.028-1863.962l-7.115.75-2.15-4.546-8.5.9-1.053,4.884-7.014.74,6.765-25.738,6.98-.736Zm-11.61-8.9-3.194-7.334-1.729,7.853Z" transform="translate(76.449 1890.652)" fill="#138909"/>
          <path id="Path_3876" data-name="Path 3876" d="M16.036-1870.722l-1.7,4.577a21.261,21.261,0,0,1-5.8-2.627,15.581,15.581,0,0,1-5.723,1.66q-5.834.616-9.433-2.483-3.57-3.135-4.188-9-.625-5.934,2.249-9.715,2.84-3.777,8.775-4.4,5.867-.619,9.493,2.408,3.6,3.065,4.229,9.066a13.315,13.315,0,0,1-1.78,8.984A17.215,17.215,0,0,0,16.036-1870.722Zm-9.021-9.891q-.75-7.114-6.212-6.538a4.761,4.761,0,0,0-4.4,3.532,10.439,10.439,0,0,0-.3,4.26,10.64,10.64,0,0,0,1.134,3.971,5.032,5.032,0,0,0,2.5,2.328,5.115,5.115,0,0,0,2.529.381,5.684,5.684,0,0,0,.772-.116q-1-.473-2.6-1.056l1.176-3.4a19.894,19.894,0,0,1,1.993.472,17.829,17.829,0,0,1,2.909,1.4A11.059,11.059,0,0,0,7.015-1880.613Z" transform="translate(57.8 1892.82)" fill="#138909"/>
        </g>
        <g id="Group_4409" data-name="Group 4409" transform="translate(94.318 0.442)">
          <path id="Path_3877" data-name="Path 3877" d="M51.359-1931.091a7.809,7.809,0,0,1-.931,4.657,27.859,27.859,0,0,1-4.5,5.671,10.423,10.423,0,0,0-2.25,2.835,7.92,7.92,0,0,0-.109,3.149l-8.29.874a15.509,15.509,0,0,1,.19-6.1,12.877,12.877,0,0,1,3.2-4.505,32.283,32.283,0,0,0,3.164-3.471,3.05,3.05,0,0,0,.556-2.166,2.914,2.914,0,0,0-1.307-2.167,4.47,4.47,0,0,0-2.8-.538q-4.267.451-4.48,5.866l-8.442-.09a11.867,11.867,0,0,1,3.124-8.958,14.015,14.015,0,0,1,9.036-4.041,13.737,13.737,0,0,1,9.8,2.252A9.15,9.15,0,0,1,51.359-1931.091ZM45.1-1904.4l-8.873.935-.833-7.9,8.873-.935Z" transform="translate(-25.352 1940.182)" fill="#138909"/>
        </g>
      </g>
      <g id="Group_4415" data-name="Group 4415" transform="translate(46.804)">
        <g id="Group_4414" data-name="Group 4414" transform="translate(0)" clip-path="url(#clip-path)">
          <g id="Group_4413" data-name="Group 4413" transform="translate(88.099 33.241)">
            <path id="Path_3816" data-name="Path 3816" d="M144.287-1741.828s-12.246,8.261-7.74,36.779,38.21-2.124,38.21-2.124,4.74-21.719-8.656-34.375S144.287-1741.828,144.287-1741.828Z" transform="translate(-112.186 1842.155)" fill="#efefef"/>
            <path id="Path_3817" data-name="Path 3817" d="M148.534-1738.1s.257,10.7,4.079,10.452,7.29-1.912,6.811-3.1-3.592-5.937-3.592-5.937Z" transform="translate(-117.661 1838.274)" fill="#ccd461"/>
            <path id="Path_3818" data-name="Path 3818" d="M180.736-1738.587s-.333,10.94-5.957,10.706-7.737-1.932-7.035-3.148a80.086,80.086,0,0,1,5.262-6.087Z" transform="translate(-125.708 1838.479)" fill="#ccd461"/>
            <path id="Path_3819" data-name="Path 3819" d="M156.512-1673.773a41.9,41.9,0,0,1-19.273-4.318c.038,12,8.674,21.707,19.3,21.689s19.231-9.754,19.229-21.753A41.909,41.909,0,0,1,156.512-1673.773Z" transform="translate(-112.898 1812.829)" fill="#ccd461"/>
            <path id="Path_3820" data-name="Path 3820" d="M140.955-1669.739l-8.681-4.193-6.844,14.532,9.4,3.208,10.031-7.435Z" transform="translate(-107.917 1811.036)" fill="#ccd461"/>
            <path id="Path_3821" data-name="Path 3821" d="M185.583-1669.825l8.667-4.221,6.894,14.509-9.385,3.239-10.051-7.4Z" transform="translate(-131.651 1811.085)" fill="#ccd461"/>
            <g id="Group_4390" data-name="Group 4390" transform="translate(0)">
              <ellipse id="Ellipse_180" data-name="Ellipse 180" cx="15.874" cy="15.8" rx="15.874" ry="15.8" transform="translate(45.404 19.408)" fill="#f4dac4"/>
              <ellipse id="Ellipse_181" data-name="Ellipse 181" cx="16.48" cy="22.345" rx="16.48" ry="22.345" transform="translate(0 18.547) rotate(-0.096)" fill="#604f3d"/>
              <path id="Path_3822" data-name="Path 3822" d="M156.268-1812.516a14.691,14.691,0,0,1,14.7-14.685,14.78,14.78,0,0,1,8.2,2.464,41.612,41.612,0,0,0,.28-4.874c-.038-21.958-17.23-39.724-38.4-39.692s-38.3,17.864-38.266,39.821a41.805,41.805,0,0,0,.242,4.387,14.762,14.762,0,0,1,19.993,5.806,14.622,14.622,0,0,1-5.833,19.9q-.324.177-.657.338a37.283,37.283,0,0,0,49.034.135A14.659,14.659,0,0,1,156.268-1812.516Z" transform="translate(-98.366 1893.96)" fill="#f4dac4"/>
              <path id="Path_3823" data-name="Path 3823" d="M125.081-1781.062a14.693,14.693,0,0,0-14.751-14.632,14.787,14.787,0,0,0-7.125,1.844,40.129,40.129,0,0,0,13.5,26.042A14.652,14.652,0,0,0,125.081-1781.062Z" transform="translate(-98.545 1862.718)" fill="#e8aa9d"/>
              <path id="Path_3824" data-name="Path 3824" d="M136.086-1817.132a3.755,3.755,0,0,1-4.014,3.474,3.75,3.75,0,0,1-3.49-4,3.755,3.755,0,0,1,4.014-3.474,3.749,3.749,0,0,1,3.49,4Z" transform="translate(-109.243 1873.516)" fill="#4c5053"/>
              <path id="Path_3825" data-name="Path 3825" d="M193.8-1813.1a3.756,3.756,0,0,1-4.014,3.474,3.749,3.749,0,0,1-3.49-4,3.756,3.756,0,0,1,4.014-3.474,3.749,3.749,0,0,1,3.49,3.993Z" transform="translate(-133.584 1871.805)" fill="#4c5053"/>
              <ellipse id="Ellipse_182" data-name="Ellipse 182" cx="7.523" cy="7.488" rx="7.523" ry="7.488" transform="translate(73.758 57.04)" fill="#f4dac4"/>
              <path id="Path_3826" data-name="Path 3826" d="M218.183-1793.684a14.77,14.77,0,0,0-20.419,4.079,14.616,14.616,0,0,0,4.1,20.324,14.764,14.764,0,0,0,2.713,1.416A40.1,40.1,0,0,0,218.183-1793.684Z" transform="translate(-137.381 1862.907)" fill="#e8aa9d"/>
              <path id="Path_3827" data-name="Path 3827" d="M119.351-1899.8s-4.988,16.411,10.544,20.9,34.628-1.959,34.628-1.959a39.581,39.581,0,0,0,10.736-6.2c5.247-4.287,5.483-5.948,3.089-9.513s-9.324-5.689-9.324-5.689-7.662-11.4-19.839-9.713S123.392-1910.979,119.351-1899.8Z" transform="translate(-105.032 1912.143)" fill="#604f3d"/>
              <path id="Path_3828" data-name="Path 3828" d="M213.594-1878.937s3.591,5.223-5,10.94c0,0,11.486,12.817,10.789,24.7l5.5,1.417s2.6-13.792-2.189-23.291c0,0,6.2-8.331-5.519-15.68s-8.359.252-8.359.252Z" transform="translate(-142.895 1900.219)" fill="#604f3d"/>
              <path id="Path_3829" data-name="Path 3829" d="M156-1875.1l-2.285-.4c.032-.19,3.582-19.026,25.251-23.084l.427,2.271C159.285-1892.546,156.028-1875.279,156-1875.1Z" transform="translate(-119.845 1906.387)" fill="#8e755e"/>
              <path id="Path_3830" data-name="Path 3830" d="M146.08-1880.189l-2.292-.357a45.7,45.7,0,0,1,14.667-24.96l1.539,1.729A44.056,44.056,0,0,0,146.08-1880.189Z" transform="translate(-115.66 1909.326)" fill="#8e755e"/>
              <path id="Path_3831" data-name="Path 3831" d="M158.3-1773.892a9.736,9.736,0,0,1-8.671-5.252,1.316,1.316,0,0,1,.511-1.8,1.329,1.329,0,0,1,1.8.508c.014.025.027.05.039.075a7.128,7.128,0,0,0,9.584,3.034,7.09,7.09,0,0,0,3.034-3.006,1.328,1.328,0,0,1,1.782-.577,1.316,1.316,0,0,1,.58,1.774l-.014.028A9.746,9.746,0,0,1,158.3-1773.892Z" transform="translate(-118.052 1856.526)" fill="#4c5053"/>
            </g>
            <g id="Group_4411" data-name="Group 4411" transform="translate(15.552 101.671)">
              <path id="Path_3878" data-name="Path 3878" d="M141.035-1724.5s25.678-1.285,26.169,6.163-21.833,4.1-21.833,4.1Z" transform="translate(-130.051 1730.866)" fill="#f4dac4"/>
              <path id="Path_3879" data-name="Path 3879" d="M137.9-1733s-12.291-8.724-15.648,6.432c-2.193,9.906,13.574,10.911,13.574,10.911S146.631-1728.528,137.9-1733Z" transform="translate(-122.04 1735.495)" fill="#ccd461"/>
            </g>
            <g id="Group_4412" data-name="Group 4412" transform="translate(44.541 93.957)">
              <path id="Path_3880" data-name="Path 3880" d="M197.3-1737.263s-25.625,2.093-25.126,9.54,22.186,1.2,22.186,1.2Z" transform="translate(-172.17 1743.96)" fill="#f4dac4"/>
              <path id="Path_3881" data-name="Path 3881" d="M204.408-1745.392s11.029-10.26,16.362,4.324c3.485,9.532-12.011,12.6-12.011,12.6S196.341-1739.817,204.408-1745.392Z" transform="translate(-184.617 1748.898)" fill="#ccd461"/>
            </g>
          </g>
        </g>
      </g>
    </g>
  </g>
</svg>
