<svg id="search_2_" data-name="search (2)" xmlns="http://www.w3.org/2000/svg" width="46.397" height="40.956" viewBox="0 0 46.397 40.956">
  <path id="Path_3911" data-name="Path 3911" d="M60.036,90.072h2.721v2.719H60.036Z" transform="translate(-54.596 -84.63)" fill="#138909"/>
  <path id="Path_3912" data-name="Path 3912" d="M120.084,90.072H122.8v2.719h-2.721Z" transform="translate(-109.202 -84.63)" fill="#138909"/>
  <path id="Path_3913" data-name="Path 3913" d="M180.132,90.072h2.721v2.719h-2.721Z" transform="translate(-163.809 -84.63)" fill="#138909"/>
  <path id="Path_3914" data-name="Path 3914" d="M0,30.024V70.98H46.4V30.024Zm43.678,2.719v8.164H2.719V32.743ZM2.719,68.261V43.626h40.96V68.261Z" transform="translate(0 -30.024)" fill="#138909"/>
  <path id="Path_3915" data-name="Path 3915" d="M170.124,371.912h25.54v2.719h-25.54Z" transform="translate(-154.707 -340.93)" fill="#138909"/>
  <path id="Path_3916" data-name="Path 3916" d="M60.036,371.912h7.255v2.719H60.036Z" transform="translate(-54.596 -340.93)" fill="#138909"/>
  <path id="Path_3917" data-name="Path 3917" d="M205.979,220.163a4.99,4.99,0,0,0,2.431-.631l2.428,2.428,1.922-1.922-2.428-2.428a4.989,4.989,0,1,0-4.353,2.554Zm-1.6-6.589a2.268,2.268,0,1,1,0,3.208A2.261,2.261,0,0,1,204.375,213.575Z" transform="translate(-182.78 -193.867)" fill="#138909"/>
</svg>
