<svg xmlns="http://www.w3.org/2000/svg" width="36.298" height="39.904" viewBox="0 0 36.298 39.904">
  <g id="technical-support" transform="translate(0)">
    <path id="Path_3906" data-name="Path 3906" d="M55.658,28.955l-.045-.053a15.319,15.319,0,0,0-8.489-5.061,10.564,10.564,0,0,0,3.813-5.062H53.61a2.719,2.719,0,0,0,2.716-2.716v-.8a15.257,15.257,0,1,0-30.515,0v.8a2.719,2.719,0,0,0,2.716,2.716H31.1A10.565,10.565,0,0,0,35,23.9a15.3,15.3,0,0,0-8.225,5l-.045.053a14.833,14.833,0,0,0-3.685,9.775V39.9h36.3V38.731a14.833,14.833,0,0,0-3.686-9.776Zm-14.638-5.5a8.177,8.177,0,0,1-7.381-4.673H39.5V16.431h-6.57a8.167,8.167,0,1,1,8.086,7.02Zm12.959-7.389a.369.369,0,0,1-.369.369H51.471a10.492,10.492,0,0,0-.006-2.347h2.459c.035.387.054.778.054,1.174ZM41.068,2.347A12.933,12.933,0,0,1,53.49,11.737H50.918a10.514,10.514,0,0,0-19.8,0H28.646A12.933,12.933,0,0,1,41.068,2.347ZM28.527,16.431a.369.369,0,0,1-.369-.369v-.8c0-.4.019-.787.054-1.174h2.362a10.493,10.493,0,0,0-.006,2.347Zm-3.08,21.126a12.668,12.668,0,0,1,3.078-7.087l.045-.053a13.194,13.194,0,0,1,10.14-4.6h4.97a13.194,13.194,0,0,1,10.14,4.6l.045.053a12.668,12.668,0,0,1,3.078,7.087Z" transform="translate(-23.046 0)" fill="#138909"/>
  </g>
</svg>
