<svg id="support_1_" data-name="support (1)" xmlns="http://www.w3.org/2000/svg" width="42.695" height="42.693" viewBox="0 0 42.695 42.693">
  <g id="Group_4439" data-name="Group 4439" transform="translate(0 19.675)">
    <g id="Group_4438" data-name="Group 4438" transform="translate(0)">
      <path id="Path_3904" data-name="Path 3904" d="M41.36,237.346a3.751,3.751,0,0,0-5.165.312L32.519,241.6a3.759,3.759,0,0,0-3.584-2.64H22.374c-.5,0-.665-.19-1.529-.856a8.774,8.774,0,0,0-11.536.028L6.9,240.258a3.737,3.737,0,0,0-3.44-.043L.692,241.6a1.252,1.252,0,0,0-.56,1.679l7.5,15.009a1.252,1.252,0,0,0,1.679.56l2.766-1.383a3.749,3.749,0,0,0,2.073-3.488H28.935a8.8,8.8,0,0,0,7-3.5l6-8.007A3.742,3.742,0,0,0,41.36,237.346Zm-30.4,17.878-1.647.824L2.929,243.276l1.648-.824a1.25,1.25,0,0,1,1.678.56l5.267,10.535A1.251,1.251,0,0,1,10.962,255.224Zm28.98-14.26-6,8.007a6.283,6.283,0,0,1-5,2.5H13.281L8.594,242.1l2.367-2.084a6.269,6.269,0,0,1,8.263,0,4.427,4.427,0,0,0,3.149,1.453h6.561a1.251,1.251,0,1,1,0,2.5H22.547a1.251,1.251,0,0,0,0,2.5h7.226a3.763,3.763,0,0,0,2.746-1.195l5.507-5.911a1.251,1.251,0,0,1,1.917,1.6Z" transform="translate(0 -235.959)" fill="#138909"/>
    </g>
  </g>
  <g id="Group_4441" data-name="Group 4441" transform="translate(15.093 0)">
    <g id="Group_4440" data-name="Group 4440">
      <path id="Path_3905" data-name="Path 3905" d="M192.2,8.548A4.983,4.983,0,0,0,193.585,5.1a5.071,5.071,0,0,0-5-5.086A5.154,5.154,0,0,0,183.5,5.1a4.91,4.91,0,0,0,1.43,3.459,7.63,7.63,0,0,0-3.932,6.631V16.44a1.251,1.251,0,0,0,1.251,1.251h12.591a1.251,1.251,0,0,0,1.251-1.251V15.189A7.624,7.624,0,0,0,192.2,8.548Zm-3.619-6.034a2.579,2.579,0,0,1,2.5,2.585,2.5,2.5,0,0,1-2.5,2.5A2.579,2.579,0,0,1,186,5.1,2.653,2.653,0,0,1,188.582,2.515ZM183.5,15.189a5.154,5.154,0,0,1,5.086-5.086,5.051,5.051,0,0,1,5,5.086Z" transform="translate(-180.994 -0.013)" fill="#138909"/>
    </g>
  </g>
</svg>
