<svg xmlns="http://www.w3.org/2000/svg" width="26.919" height="26.919" viewBox="0 0 26.919 26.919">
  <g id="menu" opacity="0.701">
    <g id="Group_7081" data-name="Group 7081">
      <path id="Path_13968" data-name="Path 13968" d="M13.46,0a13.46,13.46,0,1,0,13.46,13.46A13.475,13.475,0,0,0,13.46,0ZM10.095,5.608h6.73a1.122,1.122,0,1,1,0,2.243h-6.73a1.122,1.122,0,0,1,0-2.243Zm6.73,15.7h-6.73a1.122,1.122,0,1,1,0-2.243h6.73a1.122,1.122,0,1,1,0,2.243Zm3.365-4.487H6.73a1.122,1.122,0,1,1,0-2.243h13.46a1.122,1.122,0,0,1,0,2.243Zm0-4.487H6.73a1.122,1.122,0,0,1,0-2.243h13.46a1.122,1.122,0,0,1,0,2.243Z" fill="#6c757d"/>
    </g>
  </g>
</svg>
