<svg xmlns="http://www.w3.org/2000/svg" width="25.246" height="25.246" viewBox="0 0 25.246 25.246">
  <g id="Group_7098" data-name="Group 7098" transform="translate(-739 -890.994)">
    <path id="Path_12163" data-name="Path 12163" d="M1103.58,932.655a12.623,12.623,0,1,1,12.624-12.624A12.637,12.637,0,0,1,1103.58,932.655Zm0-24.044A11.421,11.421,0,1,0,1115,920.031,11.433,11.433,0,0,0,1103.58,908.611Z" transform="translate(-351.957 -16.415)" fill="#db343a"/>
    <path id="Path_12164" data-name="Path 12164" d="M1108.13,926.131h-10.068a3.292,3.292,0,0,1-3.288-3.288v-6.6a3.292,3.292,0,0,1,3.288-3.288h10.068a3.292,3.292,0,0,1,3.288,3.288v6.6A3.292,3.292,0,0,1,1108.13,926.131Zm-10.068-10.917a1.036,1.036,0,0,0-1.034,1.034v6.6a1.036,1.036,0,0,0,1.034,1.034h10.068a1.036,1.036,0,0,0,1.035-1.034v-6.6a1.036,1.036,0,0,0-1.035-1.034Z" transform="translate(-351.473 -15.711)" fill="#db343a"/>
    <rect id="Rectangle_3559" data-name="Rectangle 3559" width="14.39" height="2.461" transform="translate(744.428 900.806)" fill="#db343a"/>
    <rect id="Rectangle_3560" data-name="Rectangle 3560" width="4.698" height="1.23" transform="translate(746.567 904.527)" fill="#db343a"/>
  </g>
</svg>
