<svg id="cloud-server" xmlns="http://www.w3.org/2000/svg" width="28" height="28" viewBox="0 0 28 28">
  <path id="Path_12419" data-name="Path 12419" d="M25.667,11.525v8.808H2.333v-14h11.41a2.8,2.8,0,0,1,.537-1.167A2.8,2.8,0,0,1,13.743,4H2.042A2.051,2.051,0,0,0,0,6.042V20.625a2.051,2.051,0,0,0,2.042,2.042h9.625V25H9.333a1.167,1.167,0,1,0,0,2.333h9.333a1.167,1.167,0,0,0,0-2.333H16.333V22.667h9.625A2.051,2.051,0,0,0,28,20.625V10.347A2.918,2.918,0,0,1,25.667,11.525Z" transform="translate(0 0.667)"/>
  <path id="Path_12420" data-name="Path 12420" d="M15.049,10.388a4.639,4.639,0,0,0-8.564,1.155,2.911,2.911,0,0,0,.432,5.79H14.5a3.494,3.494,0,0,0,.549-6.945Z" transform="translate(0.667 1.333)"/>
  <path id="Path_12421" data-name="Path 12421" d="M23.621,6.38a4.434,4.434,0,0,0,.055-.547,4.434,4.434,0,0,0-.055-.547l1.051-.8a.584.584,0,0,0,.153-.757L23.881,2.1a.584.584,0,0,0-.732-.246l-1.21.51a4.335,4.335,0,0,0-.956-.568L20.823.511A.584.584,0,0,0,20.244,0H18.358a.583.583,0,0,0-.579.511L17.618,1.8a4.353,4.353,0,0,0-.955.568l-1.21-.51a.583.583,0,0,0-.733.246l-.943,1.633a.584.584,0,0,0,.153.757l1.051.8a4.219,4.219,0,0,0-.056.547,4.434,4.434,0,0,0,.055.547l-1.051.8a.584.584,0,0,0-.153.757l.944,1.633a.584.584,0,0,0,.732.246l1.21-.511a4.335,4.335,0,0,0,.956.568l.161,1.284a.584.584,0,0,0,.579.512h1.886a.583.583,0,0,0,.579-.511l.161-1.284a4.353,4.353,0,0,0,.955-.568l1.21.51a.583.583,0,0,0,.733-.246l.943-1.633a.584.584,0,0,0-.153-.757ZM19.3,8.167a2.333,2.333,0,1,1,2.333-2.333A2.333,2.333,0,0,1,19.3,8.167Z" transform="translate(2.283)"/>
</svg>
