<svg id="Group_995" data-name="Group 995" xmlns="http://www.w3.org/2000/svg" width="19.328" height="13.073" viewBox="0 0 19.328 13.073">
  <path id="Path_3077" data-name="Path 3077" d="M.013,36.4l9.653,8.04q4.811-4,9.644-8.031c.009.107.018.169.018.231v9.995a1.135,1.135,0,0,1-.906,1.2,1.323,1.323,0,0,1-.267.022H1.19A1.134,1.134,0,0,1,0,46.692Q0,41.622,0,36.56C0,36.524,0,36.493.013,36.4Z" transform="translate(0 -34.783)" fill="#505050"/>
  <path id="Path_3078" data-name="Path 3078" d="M9.6.258A1.184,1.184,0,0,1,10.391,0c2.434,0,4.869,0,7.307,0h9.595a1.184,1.184,0,0,1,.791.258q-4.618,3.851-9.24,7.7Z" transform="translate(-9.174 0)" fill="#505050"/>
</svg>
