<svg xmlns="http://www.w3.org/2000/svg" width="25" height="25" viewBox="0 0 25 25">
  <g id="Group_7108" data-name="Group 7108" transform="translate(-741 -392)">
    <path id="Path_12163" data-name="Path 12163" d="M1103.457,932.409a12.5,12.5,0,1,1,12.5-12.5A12.514,12.514,0,0,1,1103.457,932.409Zm0-23.809a11.309,11.309,0,1,0,11.31,11.309A11.322,11.322,0,0,0,1103.457,908.6Z" transform="translate(-349.957 -515.409)" fill="#db343a"/>
    <g id="credit-card" transform="translate(745.875 398.885)">
      <g id="Group_7102" data-name="Group 7102" transform="translate(0 3.853)">
        <g id="Group_7101" data-name="Group 7101" transform="translate(0 0)">
          <path id="Path_13975" data-name="Path 13975" d="M15.091,213.333H.321a.3.3,0,0,0-.321.321v4.5a1.59,1.59,0,0,0,1.605,1.605h12.2a1.59,1.59,0,0,0,1.605-1.605v-4.5A.3.3,0,0,0,15.091,213.333ZM2.248,215.9H4.816a.321.321,0,1,1,0,.642H2.248a.321.321,0,1,1,0-.642Zm4.5,1.926h-4.5a.321.321,0,1,1,0-.642h4.5a.321.321,0,1,1,0,.642Zm5.458,0a1.085,1.085,0,0,1-.642-.193,1.085,1.085,0,0,1-.642.193,1.284,1.284,0,1,1,0-2.569,1.085,1.085,0,0,1,.642.193,1.085,1.085,0,0,1,.642-.193,1.284,1.284,0,1,1,0,2.569Z" transform="translate(0 -213.333)" fill="#db343a"/>
        </g>
      </g>
      <g id="Group_7104" data-name="Group 7104" transform="translate(0 0)">
        <g id="Group_7103" data-name="Group 7103">
          <path id="Path_13976" data-name="Path 13976" d="M13.806,85.333H1.605A1.59,1.59,0,0,0,0,86.938v.642a.3.3,0,0,0,.321.321H15.091a.3.3,0,0,0,.321-.321v-.642A1.59,1.59,0,0,0,13.806,85.333Z" transform="translate(0 -85.333)" fill="#db343a"/>
        </g>
      </g>
    </g>
  </g>
</svg>
