<?xml version="1.0" encoding="utf-8"?>
<!-- Generator: Adobe Illustrator 25.2.1, SVG Export Plug-In . SVG Version: 6.00 Build 0)  -->
<svg version="1.1" id="圖層_1" xmlns="http://www.w3.org/2000/svg" xmlns:xlink="http://www.w3.org/1999/xlink" x="0px" y="0px"
	 viewBox="0 0 19.9 19.9" style="enable-background:new 0 0 19.9 19.9;" xml:space="preserve">
<style type="text/css">
	.st0{fill:#FFCB3C;}
	.st1{fill:#FFFFFF;}
</style>
<path id="Path_13738" class="st0" d="M10,0c5.5,0,10,4.5,10,10s-4.5,10-10,10S0,15.5,0,10c0,0,0,0,0,0C0,4.5,4.5,0,10,0z"/>
<g id="Group_6757" transform="translate(848.119 2161.833)">
	<path id="Path_13722" class="st1" d="M-834.3-2152.7c-0.3,0.3-0.6,0.5-0.9,0.6c-0.3,0.2-0.6,0.4-0.9,0.5c-0.2,0.1-0.4,0.2-0.6,0.4
		c-0.1,0.2-0.2,0.4-0.2,0.6c0,0.3-0.1,0.6-0.4,0.8c-0.2,0.2-0.5,0.3-0.8,0.3c-0.8,0-1.2-0.4-1.2-1.1v-0.8c0-0.5,0.2-0.9,0.5-1.2
		c0.4-0.3,0.7-0.6,1.2-0.8c0.4-0.2,0.8-0.4,1.1-0.6c0.4-0.2,0.6-0.6,0.6-1c0-0.3-0.1-0.7-0.4-0.9c-0.5-0.4-1.2-0.6-1.8-0.5
		c-0.5,0-1.1,0.1-1.5,0.4c-0.4,0.3-0.7,0.7-1,1.2c-0.2,0.4-0.7,0.7-1.1,0.7c-0.3,0-0.6-0.1-0.8-0.3c-0.2-0.2-0.3-0.5-0.3-0.8
		c0.1-0.8,0.5-1.5,1.1-2c1-1,2.3-1.5,3.7-1.5c1.2,0,2.4,0.3,3.4,1.1c0.8,0.6,1.2,1.6,1.2,2.5
		C-833.4-2154.2-833.7-2153.3-834.3-2152.7z M-836.2-2146.7c0,0.5-0.2,0.9-0.6,1.2c-0.4,0.3-0.8,0.5-1.3,0.5c-0.5,0-0.9-0.2-1.3-0.5
		c-0.4-0.3-0.6-0.7-0.6-1.2c0-0.4,0.2-0.9,0.6-1.1c0.4-0.3,0.8-0.5,1.3-0.5c0.5,0,0.9,0.2,1.3,0.5
		C-836.4-2147.5-836.2-2147.1-836.2-2146.7z"/>
</g>
</svg>
