<svg xmlns="http://www.w3.org/2000/svg" width="19.947" height="19.947" viewBox="0 0 19.947 19.947">
  <g id="Group_6795" data-name="Group 6795" transform="translate(-842.822 -2158.673)">
    <path id="Path_13738" data-name="Path 13738" d="M9.973,0A9.973,9.973,0,1,1,0,9.973,9.973,9.973,0,0,1,9.973,0Z" transform="translate(842.822 2158.673)" fill="#444"/>
    <g id="Group_6757" data-name="Group 6757" transform="translate(848.119 2161.833)">
      <path id="Path_13722" data-name="Path 13722" d="M432.487,1087.783a3.88,3.88,0,0,1-.93.642q-.489.288-.946.54a2.039,2.039,0,0,0-.574.422,1.006,1.006,0,0,0-.152.626,1.025,1.025,0,0,1-.354.844,1.19,1.19,0,0,1-.794.27q-1.233,0-1.232-1.114v-.846a1.646,1.646,0,0,1,.524-1.231,6.479,6.479,0,0,1,1.164-.776,8.535,8.535,0,0,0,1.148-.592,1.211,1.211,0,0,0,.626-1.012,1.261,1.261,0,0,0-.372-.93,2.655,2.655,0,0,0-1.823-.522,2.469,2.469,0,0,0-1.5.422,4.264,4.264,0,0,0-1,1.181,1.394,1.394,0,0,1-1.132.692,1.1,1.1,0,0,1-.828-.338,1.133,1.133,0,0,1-.338-.828,3.009,3.009,0,0,1,1.064-1.957,4.981,4.981,0,0,1,3.731-1.452,5.125,5.125,0,0,1,3.359,1.08,3.2,3.2,0,0,1,1.2,2.549A3.117,3.117,0,0,1,432.487,1087.783Zm-1.925,6.06a1.469,1.469,0,0,1-.574,1.181,1.926,1.926,0,0,1-1.284.474,1.948,1.948,0,0,1-1.3-.474,1.486,1.486,0,0,1-.556-1.181,1.424,1.424,0,0,1,.556-1.148,1.946,1.946,0,0,1,1.3-.472,1.924,1.924,0,0,1,1.284.472A1.409,1.409,0,0,1,430.562,1093.843Z" transform="translate(-423.978 -1081.825)" fill="#ffcb3c"/>
    </g>
  </g>
</svg>
