<svg xmlns="http://www.w3.org/2000/svg" xmlns:xlink="http://www.w3.org/1999/xlink" width="50.665" height="39.588" viewBox="0 0 50.665 39.588">
  <defs>
    <filter id="Path_3063" x="0" y="0" width="50.665" height="22.244" filterUnits="userSpaceOnUse">
      <feOffset dy="1" input="SourceAlpha"/>
      <feGaussianBlur stdDeviation="0.5" result="blur"/>
      <feFlood flood-opacity="0.063"/>
      <feComposite operator="in" in2="blur"/>
      <feComposite in="SourceGraphic"/>
    </filter>
    <filter id="Path_3064" x="0" y="20.607" width="50.663" height="18.981" filterUnits="userSpaceOnUse">
      <feOffset dy="1" input="SourceAlpha"/>
      <feGaussianBlur stdDeviation="0.5" result="blur-2"/>
      <feFlood flood-opacity="0.063"/>
      <feComposite operator="in" in2="blur-2"/>
      <feComposite in="SourceGraphic"/>
    </filter>
    <filter id="Path_3065" x="0.14" y="8.524" width="18.376" height="22.574" filterUnits="userSpaceOnUse">
      <feOffset dy="1" input="SourceAlpha"/>
      <feGaussianBlur stdDeviation="0.5" result="blur-3"/>
      <feFlood flood-opacity="0.063"/>
      <feComposite operator="in" in2="blur-3"/>
      <feComposite in="SourceGraphic"/>
    </filter>
    <filter id="Path_3066" x="32.226" y="8.524" width="18.365" height="22.563" filterUnits="userSpaceOnUse">
      <feOffset dy="1" input="SourceAlpha"/>
      <feGaussianBlur stdDeviation="0.5" result="blur-4"/>
      <feFlood flood-opacity="0.063"/>
      <feComposite operator="in" in2="blur-4"/>
      <feComposite in="SourceGraphic"/>
    </filter>
  </defs>
  <g id="Group_1506" data-name="Group 1506" transform="translate(1.5 0.5)">
    <g transform="matrix(1, 0, 0, 1, -1.5, -0.5)" filter="url(#Path_3063)">
      <path id="Path_3063-2" data-name="Path 3063" d="M0,4.034V3.683c.07-.175.152-.351.21-.538A4.137,4.137,0,0,1,3.7.175,14.7,14.7,0,0,1,5.963.012Q24.082-.006,42.212,0A11.836,11.836,0,0,1,43.5.058,4.563,4.563,0,0,1,47.31,2.584c.62,1.228.456,1.859-.713,2.6Q35.81,12,25.035,18.849a1.982,1.982,0,0,1-2.374,0Q11.8,11.939.935,5.028A5.062,5.062,0,0,1,0,4.034Z" transform="translate(1.5 0.5)"/>
    </g>
    <g transform="matrix(1, 0, 0, 1, -1.5, -0.5)" filter="url(#Path_3064)">
      <path id="Path_3064-2" data-name="Path 3064" d="M0,188.543v-.351a4.877,4.877,0,0,1,.865-.9c5.578-3.531,11.167-7.028,16.756-10.547a1.92,1.92,0,0,1,2.187-.047c1.064.655,2.116,1.31,3.157,1.988a1.422,1.422,0,0,0,1.684.058c1.134-.725,2.28-1.415,3.391-2.175a1.51,1.51,0,0,1,1.836-.047q8.489,5.385,16.978,10.746a1.411,1.411,0,0,1,.667,1.941,4.082,4.082,0,0,1-2.292,2.5,6.983,6.983,0,0,1-2.97.5H5.379c-.409,0-.819-.012-1.228-.047a4.441,4.441,0,0,1-4.022-3.3C.082,188.754.035,188.648,0,188.543Z" transform="translate(1.5 -155.13)"/>
    </g>
    <g transform="matrix(1, 0, 0, 1, -1.5, -0.5)" filter="url(#Path_3065)">
      <path id="Path_3065-2" data-name="Path 3065" d="M1.2,72.9c5.145,3.274,10.22,6.5,15.376,9.787C11.42,85.961,6.345,89.2,1.2,92.474,1.2,85.926,1.2,79.472,1.2,72.9Z" transform="translate(0.44 -63.88)"/>
    </g>
    <g transform="matrix(1, 0, 0, 1, -1.5, -0.5)" filter="url(#Path_3066)">
      <path id="Path_3066-2" data-name="Path 3066" d="M290.965,72.9V92.463L275.6,82.687C280.733,79.425,285.8,76.2,290.965,72.9Z" transform="translate(-241.87 -63.88)"/>
    </g>
  </g>
</svg>
