<svg xmlns="http://www.w3.org/2000/svg" xmlns:xlink="http://www.w3.org/1999/xlink" width="126.831" height="63" viewBox="0 0 126.831 63">
  <defs>
    <clipPath id="clip-path">
      <path id="Path_12315" data-name="Path 12315" d="M.535,0H126.3c.3,0,.535,2.239.535,5V58c0,2.761-.24,5-.535,5H.535C.24,63,0,60.761,0,58V5C0,2.239.24,0,.535,0Z" transform="translate(1095.067 1988)" fill="#e6b9e6"/>
    </clipPath>
  </defs>
  <g id="Mask_Group_67" data-name="Mask Group 67" transform="translate(-1095.067 -1988)" clip-path="url(#clip-path)">
    <path id="Path_12314" data-name="Path 12314" d="M5,0H1180a5,5,0,0,1,5,5V58a5,5,0,0,1-5,5H5a5,5,0,0,1-5-5V5A5,5,0,0,1,5,0Z" transform="translate(49 1988)" fill="none"/>
    <text id="醫療照護" transform="translate(85 2028)" font-size="22" font-family="PingFangTC-Semibold, PingFang TC" font-weight="600"><tspan x="0" y="0">醫療照護</tspan></text>
    <g id="Group_5781" data-name="Group 5781" transform="matrix(0.985, -0.174, 0.174, 0.985, 1126.214, 1989.203)">
      <rect id="Rectangle_3561" data-name="Rectangle 3561" width="34.429" height="52.446" transform="matrix(0.821, 0.571, -0.571, 0.821, 60.652, 14.992)" fill="#f1f5f9"/>
      <path id="Path_12253" data-name="Path 12253" d="M26.309,31.411,1.346,21.375,0,23.311,28.269,42.964,58.139,0Z" transform="translate(30.809 34.719)" fill="#dbdce3"/>
      <rect id="Rectangle_3562" data-name="Rectangle 3562" width="23.655" height="0.478" transform="matrix(0.82, 0.572, -0.572, 0.82, 64.73, 20.549)" fill="#5e5e70"/>
      <rect id="Rectangle_3563" data-name="Rectangle 3563" width="23.655" height="0.478" transform="matrix(0.82, 0.572, -0.572, 0.82, 52.002, 34.877)" fill="#5e5e70"/>
      <rect id="Rectangle_3564" data-name="Rectangle 3564" width="7.759" height="0.442" transform="matrix(0.82, 0.572, -0.572, 0.82, 55.895, 57.899)" fill="#5e5e70"/>
      <rect id="Rectangle_3565" data-name="Rectangle 3565" width="7.759" height="0.442" transform="matrix(0.82, 0.572, -0.572, 0.82, 55.233, 58.92)" fill="#5e5e70"/>
      <rect id="Rectangle_3566" data-name="Rectangle 3566" width="7.759" height="0.442" transform="matrix(0.82, 0.572, -0.572, 0.82, 44.992, 60.725)" fill="#5e5e70"/>
      <path id="Path_12254" data-name="Path 12254" d="M11.2,7.189,10.5,3.23A1.648,1.648,0,1,0,8.475,1.9L3.181,3.525a1.638,1.638,0,1,0,.1.562c0-.043,0-.085-.006-.127L8.6,2.329a1.639,1.639,0,0,0,1.451.951l.7,3.936a1.649,1.649,0,1,0,.446-.027Z" transform="translate(59.416 31.015)" fill="#c2507a"/>
      <rect id="Rectangle_3567" data-name="Rectangle 3567" width="34.429" height="53.749" transform="translate(38.371 0) rotate(16.609)" fill="#f1f5f9"/>
      <path id="Path_12255" data-name="Path 12255" d="M27.522,39.781.674,38.043,0,40.3l32.993,9.841L47.95,0Z" transform="translate(23.09 11.152)" fill="#d9dde1"/>
      <rect id="Rectangle_3568" data-name="Rectangle 3568" width="23.655" height="3.816" transform="translate(37.787 16.711) rotate(16.668)" fill="#017888"/>
      <rect id="Rectangle_3569" data-name="Rectangle 3569" width="23.655" height="0.478" transform="translate(43.608 5.255) rotate(16.668)" fill="#017888"/>
      <rect id="Rectangle_3570" data-name="Rectangle 3570" width="23.655" height="0.478" transform="translate(35.992 22.841) rotate(16.668)" fill="#017888"/>
      <rect id="Rectangle_3571" data-name="Rectangle 3571" width="7.759" height="0.442" transform="translate(46.88 43.496) rotate(16.668)" fill="#017888"/>
      <rect id="Rectangle_3572" data-name="Rectangle 3572" width="7.759" height="0.442" transform="translate(46.57 44.672) rotate(16.668)" fill="#017888"/>
      <rect id="Rectangle_3573" data-name="Rectangle 3573" width="7.759" height="0.442" transform="translate(37.405 49.585) rotate(16.668)" fill="#017888"/>
      <path id="Path_12256" data-name="Path 12256" d="M0,3.158,2.291,0S.846,7.2.908,7.163s2.456-3.53,2.456-3.53L3.1,5.573l1.961.64L7.513,2.7s-1.342,7.08-1.28,7.038S8.876,5.965,8.876,5.965l1.858.722" transform="translate(41.902 28.961)" fill="none" stroke="#c2507a" stroke-linecap="round" stroke-linejoin="round" stroke-width="2"/>
      <g id="Group_5780" data-name="Group 5780" transform="translate(-1.97 0.537)">
        <path id="Path_12257" data-name="Path 12257" d="M4.658,1.755,3.276,0,.406,2.26l.014.017a1.112,1.112,0,1,0,1.505,1.63Z" transform="translate(0 66.34)" fill="#fff"/>
        <path id="Path_12258" data-name="Path 12258" d="M.991,55.731,0,.619,39.383,0l.991,55.112Z" transform="translate(2.229 2.296)" fill="#f1f5f9"/>
        <path id="Path_12259" data-name="Path 12259" d="M38.276,0,35.424,12.676l-.372,28.732L0,55.266l39.263-.358Z" transform="translate(3.33 2.784)" fill="#d9dde1"/>
        <g id="Group_5779" data-name="Group 5779" transform="translate(5.449 0)">
          <path id="Path_12260" data-name="Path 12260" d="M.681,47.681,0,.434,33.748,0l.805,43.532-5.016,4.149Z" transform="translate(0 6.259)" fill="#b9e5f9"/>
          <path id="Path_12261" data-name="Path 12261" d="M25.5,0,19.7,29.9l-2.849,2.167L0,38.45H21.121L26.136,34.3Z" transform="translate(8.381 15.702)" fill="#9fb8cb"/>
          <g id="Group_5778" data-name="Group 5778" transform="translate(15.094 0)">
            <path id="Path_12262" data-name="Path 12262" d="M3.417,2H2.973A1.433,1.433,0,0,0,1.708.444,1.433,1.433,0,0,0,.444,2H0A1.872,1.872,0,0,1,1.708,0,1.872,1.872,0,0,1,3.417,2Z" transform="translate(0 0)" fill="#0093a3"/>
          </g>
          <rect id="Rectangle_3574" data-name="Rectangle 3574" width="11.642" height="4.83" transform="translate(11.146 1.708)" fill="#6dcff8"/>
          <rect id="Rectangle_3575" data-name="Rectangle 3575" width="1.28" height="4.83" transform="translate(21.508 1.708)" fill="#52a8cd"/>
          <rect id="Rectangle_3576" data-name="Rectangle 3576" width="15.094" height="0.889" transform="matrix(1, -0.012, 0.012, 1, 9.32, 6.289)" fill="#0b7e92"/>
          <line id="Line_444" data-name="Line 444" y1="0.248" x2="11.27" transform="translate(11.332 14.309)" fill="none" stroke="#0b7e92" stroke-miterlimit="10" stroke-width="2"/>
          <line id="Line_445" data-name="Line 445" y1="0.495" x2="28.609" transform="translate(2.91 18.149)" fill="none" stroke="#0b7e92" stroke-miterlimit="10" stroke-width="2"/>
          <line id="Line_446" data-name="Line 446" y1="0.495" x2="28.609" transform="translate(2.848 19.759)" fill="none" stroke="#0b7e92" stroke-miterlimit="10" stroke-width="2"/>
          <line id="Line_447" data-name="Line 447" y1="0.495" x2="28.609" transform="translate(3.008 21.678)" fill="none" stroke="#0b7e92" stroke-miterlimit="10" stroke-width="2"/>
          <line id="Line_448" data-name="Line 448" y1="0.495" x2="28.609" transform="translate(3.132 23.474)" fill="none" stroke="#0b7e92" stroke-miterlimit="10" stroke-width="2"/>
          <line id="Line_449" data-name="Line 449" y1="0.495" x2="28.609" transform="translate(3.256 25.27)" fill="none" stroke="#0b7e92" stroke-miterlimit="10" stroke-width="2"/>
          <line id="Line_450" data-name="Line 450" y1="0.495" x2="28.609" transform="translate(3.132 27.066)" fill="none" stroke="#0b7e92" stroke-miterlimit="10" stroke-width="2"/>
          <line id="Line_451" data-name="Line 451" y1="0.495" x2="28.609" transform="translate(3.008 28.799)" fill="none" stroke="#0b7e92" stroke-miterlimit="10" stroke-width="2"/>
          <line id="Line_452" data-name="Line 452" y1="0.495" x2="28.609" transform="translate(3.132 30.657)" fill="none" stroke="#0b7e92" stroke-miterlimit="10" stroke-width="2"/>
          <line id="Line_453" data-name="Line 453" y1="0.495" x2="28.609" transform="translate(3.132 32.577)" fill="none" stroke="#0b7e92" stroke-miterlimit="10" stroke-width="2"/>
          <line id="Line_454" data-name="Line 454" y1="0.495" x2="28.609" transform="translate(3.132 34.125)" fill="none" stroke="#0b7e92" stroke-miterlimit="10" stroke-width="2"/>
          <line id="Line_455" data-name="Line 455" y1="0.495" x2="28.609" transform="translate(3.256 36.106)" fill="none" stroke="#0b7e92" stroke-miterlimit="10" stroke-width="2"/>
          <line id="Line_456" data-name="Line 456" y1="0.495" x2="28.609" transform="translate(3.256 37.655)" fill="none" stroke="#0b7e92" stroke-miterlimit="10" stroke-width="2"/>
          <line id="Line_457" data-name="Line 457" y1="0.495" x2="28.609" transform="translate(3.318 39.512)" fill="none" stroke="#0b7e92" stroke-miterlimit="10" stroke-width="2"/>
          <line id="Line_458" data-name="Line 458" y1="0.495" x2="28.609" transform="translate(3.318 41.308)" fill="none" stroke="#0b7e92" stroke-miterlimit="10" stroke-width="2"/>
          <line id="Line_459" data-name="Line 459" y1="0.062" x2="11.234" transform="translate(3.442 45.333)" fill="none" stroke="#0b7e92" stroke-miterlimit="10" stroke-width="2"/>
          <line id="Line_460" data-name="Line 460" y1="0.495" x2="28.609" transform="translate(3.504 43.104)" fill="none" stroke="#0b7e92" stroke-miterlimit="10" stroke-width="2"/>
          <path id="Path_12263" data-name="Path 12263" d="M0,4.913.95,0l4.17.7Z" transform="translate(29.352 49.275)" fill="#5badb5"/>
        </g>
        <path id="Path_12264" data-name="Path 12264" d="M5.455,0,0,2.364,1.809,4.413,5.393.5Z" transform="translate(26.652 45.441)" fill="#d35371"/>
        <path id="Path_12265" data-name="Path 12265" d="M0,6.627S.5,8.609,1.61,8.732c.421.047,4.181-2.775,8.693-6.3L8.4,0Z" transform="translate(1.115 61.122)" fill="#d35371"/>
        <path id="Path_12266" data-name="Path 12266" d="M0,12.594l1.907,2.432C8.4,9.935,16.215,3.59,17.912,2.21L15.961,0Z" transform="translate(10.048 48.106)" fill="#d35371"/>
        <path id="Path_12267" data-name="Path 12267" d="M2.453,2.049.644,0,.061.252,0,.3,1.951,2.51l.339-.276Z" transform="translate(26.009 47.806)" fill="#fff"/>
        <path id="Path_12268" data-name="Path 12268" d="M0,.422l1.905,2.43.536-.42L.535,0Z" transform="translate(9.513 60.7)" fill="#fff"/>
        <rect id="Rectangle_3577" data-name="Rectangle 3577" width="17.375" height="0.805" rx="0.403" transform="translate(3.139 70.325) rotate(-37.235)" fill="#fff"/>
        <path id="Path_12269" data-name="Path 12269" d="M0,.341.341.712l.4-.465L.557,0Z" transform="translate(31.705 45.271)" fill="#302237"/>
      </g>
    </g>
    <g id="Group_5800" data-name="Group 5800" transform="matrix(0.966, 0.259, -0.259, 0.966, 1107.655, 1997.805)">
      <path id="Path_12307" data-name="Path 12307" d="M23.14,5.644c-.3-.949-2.124-5.58-9.386-5.641V0l-.071,0-.071,0V0C6.352.064,4.525,4.695,4.227,5.644H0V6.916H7.772V5.644H6.132C6.71,4.437,8.561,1.8,13.685,1.774c5.143.025,6.98,2.656,7.554,3.87h-2.02V6.916h7.772V5.644Z" transform="translate(14.313 0)" fill="#724158"/>
      <path id="Path_12308" data-name="Path 12308" d="M50.7,0H4.839A4.839,4.839,0,0,0,0,4.839V36.848a4.827,4.827,0,0,0,1.961,3.884L54.89,2.43A4.834,4.834,0,0,0,50.7,0Z" transform="translate(0.04 6.945)" fill="#fff"/>
      <path id="Path_12309" data-name="Path 12309" d="M48.736,39.257a4.839,4.839,0,0,0,4.839-4.839V2.409A4.813,4.813,0,0,0,52.929,0L0,38.3a4.811,4.811,0,0,0,2.878.955Z" transform="translate(2.002 9.375)" fill="#d3e9f1"/>
      <path id="Path_12310" data-name="Path 12310" d="M0,0V19.077H55.567V0ZM27.783,18.441a8.8,8.8,0,1,1,8.8-8.8A8.8,8.8,0,0,1,27.783,18.441Z" transform="translate(0 18.038)" fill="#ff726a"/>
      <path id="Path_12311" data-name="Path 12311" d="M19.206,5.328a8.8,8.8,0,0,1-14.22,10.18L0,19.077H39.325V0H26.648Z" transform="translate(16.288 18.015)" fill="#ff4238"/>
      <path id="Path_12312" data-name="Path 12312" d="M6.973,2.7V10.75S-1.79,7.041.331,2.13A3.479,3.479,0,0,1,3.722.01C5.56.152,6.973,2.7,6.973,2.7Z" transform="translate(21.425 23.186)" fill="#ff726a"/>
      <path id="Path_12313" data-name="Path 12313" d="M0,2.7V10.75S8.762,7.041,6.642,2.13A3.48,3.48,0,0,0,3.25.01C1.413.152,0,2.7,0,2.7Z" transform="translate(28.349 23.186)" fill="#ff4238"/>
    </g>
  </g>
</svg>
