<svg xmlns="http://www.w3.org/2000/svg" xmlns:xlink="http://www.w3.org/1999/xlink" width="128" height="63" viewBox="0 0 128 63">
  <defs>
    <clipPath id="clip-path">
      <rect id="Rectangle_3535" data-name="Rectangle 3535" width="128" height="63" rx="5" transform="translate(1093 2331)" fill="none"/>
    </clipPath>
  </defs>
  <g id="Mask_Group_66" data-name="Mask Group 66" transform="translate(-1093 -2331)" clip-path="url(#clip-path)">
    <path id="Path_12316" data-name="Path 12316" d="M5,0H1180a5,5,0,0,1,5,5V58a5,5,0,0,1-5,5H5a5,5,0,0,1-5-5V5A5,5,0,0,1,5,0Z" transform="translate(52 2331)" fill="none"/>
    <g id="Group_5733" data-name="Group 5733" transform="translate(-14834.635 -636.277)">
      <g id="Group_5095" data-name="Group 5095" transform="translate(15929.455 2950.378)">
        <path id="Path_10226" data-name="Path 10226" d="M-21.042,199.328-80.754,223.66a2.347,2.347,0,0,1-3.061-1.294l-16.758-40.786a2.356,2.356,0,0,1,1.291-3.067l59.713-24.332a2.347,2.347,0,0,1,3.061,1.294l16.758,40.786A2.356,2.356,0,0,1-21.042,199.328Z" transform="translate(113.427 -133.935)" fill="#b1b1b2"/>
        <path id="Path_10227" data-name="Path 10227" d="M-140.909,118.174l-2.533.964-.185-1.929a1.31,1.31,0,0,1,.81-1.339l71.474-29.011s2.14-1.166,2.61-.251,1.085,2.126,1.085,2.126l-35.425,17.4Z" transform="translate(143.633 -86.257)" fill="#fff"/>
        <path id="Path_10228" data-name="Path 10228" d="M-69.606,92.616l-72.373,29.521a1.25,1.25,0,0,0-.663,2.08c1.1,1.526,11.318,10.143,11.318,10.143a2.247,2.247,0,0,0,2.369.732c1.492-.432,60.293-24.615,60.293-24.615a5.654,5.654,0,0,0,.6-1.785c.261-1.273.924-15.352.924-15.352S-67.111,91.6-69.606,92.616Z" transform="translate(143.191 -90.508)" fill="#363e44"/>
        <path id="Path_10229" data-name="Path 10229" d="M-64.3,101.42l-67.782,27.447a1.25,1.25,0,0,0-.663,2.08c1.1,1.526,8.64,8.192,8.64,8.192a2.247,2.247,0,0,0,2.369.732c1.491-.431,58.354-23.853,58.354-23.853s.785-.15.864-1.859c.06-1.3.681-12.017.681-12.017S-61.808,100.4-64.3,101.42Z" transform="translate(136.222 -96.703)" fill="#ccaf8f"/>
        <path id="Path_10230" data-name="Path 10230" d="M-110.448,184.35l-7.978,3.215,4.892,4.569,7.28-3Z" transform="translate(125.879 -155.288)" fill="#cbcacf"/>
        <path id="Path_10231" data-name="Path 10231" d="M-44.132,138.337l-8.528-8.519L-13.3,113.7l.419,12.371Z" transform="translate(79.557 -105.567)" fill="#cbcacf"/>
        <path id="Path_10232" data-name="Path 10232" d="M-30.054,163.122l-7.8,3.054-6.727-7.225,9.562-3.752Z" transform="translate(73.868 -134.775)" fill="#e6e4e5"/>
        <path id="Path_10233" data-name="Path 10233" d="M16.309,127.65l-18.3,7.472-1.553-2.707,19.538-8.047Z" transform="translate(44.962 -113.077)" fill="#e6e4e5"/>
        <path id="Path_10234" data-name="Path 10234" d="M4.888,157.065l-1.406-2.673,8.064-3.32.866,3.037Z" transform="translate(40.013 -131.87)" fill="#e6e4e5"/>
        <rect id="Rectangle_2757" data-name="Rectangle 2757" width="62.267" height="25.348" rx="7.38" transform="translate(16.597 45.814) rotate(-22.057)" fill="#d2d6d7"/>
        <rect id="Rectangle_2758" data-name="Rectangle 2758" width="54.829" height="21.003" rx="2.466" transform="translate(20.783 46.365) rotate(-22.057)" fill="#313737"/>
        <path id="Path_10235" data-name="Path 10235" d="M-15.672,191.4l-.163-.4-8.5,3.453-1.184-3.286,9-3.659-.163-.4-7.045,2.863L-24.9,186.7l3.106-1.262,1.167,3.239.407-.148-1.287-3.57-.042.015-.037-.09-1.036.421-1.114-2.961,4.176-1.7-.163-.4-5.269,2.141-1.191-3.3,5.211-2.118-.163-.4-3.751,1.525-.731-2.029-.407.147.737,2.045-3.459,1.406-.706-1.958-.407.147.711,1.974-3.136,1.274-.674-1.871-.407.148.68,1.887-3.388,1.377-.735-2.04-.407.148.741,2.056-3.291,1.337-.761-2.111-.407.148.767,2.127-3.163,1.285-.691-1.918-.407.148.7,1.934-3.368,1.369-.684-1.9-.407.147.69,1.914-3.2,1.3-.719-1.994-.407.148.724,2.01-3.287,1.336-.723-2-.407.148.728,2.02-3.285,1.335-.653-1.813-.407.147.659,1.829-3.222,1.31L-62.432,191l-.407.148.743,2.063-3.264,1.327-.674-1.869-.407.148.679,1.885-3.38,1.374-.63-1.748-.407.148.635,1.764-3.588,1.458.163.4,3.572-1.452.019.053.066-.024,1.171,3.249-3.58,1.455.163.4,4.832-1.964,1.073,2.978-4.64,1.886.163.4,5.87-2.386,1.176,3.262-5.594,2.273.163.4,3.538-1.438,1.184,3.286-4.044,1.643.163.4,5.285-2.148,1.365,3.5.4-.158-1.367-3.5,4.323-1.757,1.388,3.558.4-.158-1.39-3.563,4.273-1.737,1.347,3.453.4-.158L-52.59,206.4l22.959-9.331,1.374,3.521.4-.158-1.376-3.526,4.281-1.74,1.362,3.49.4-.158-1.364-3.5,4.317-1.755,1.365,3.5.4-.158-1.367-3.5Zm-8.45-1.27-3.109,1.263-1.176-3.262,3.109-1.263Zm-6.016-1.763-3.166,1.287-1.116-2.961,3.163-1.285Zm-.717-3.122,3.106-1.262,1.073,2.978-3.06,1.244Zm-2.85,4.572-3.148,1.279-1.073-2.978,3.105-1.262Zm-3.549,1.443-3.115,1.266-1.073-2.978,3.115-1.266Zm-3.516,1.429L-43.994,194l-1.108-2.964,3.258-1.324Zm-3.624,1.473-3.18,1.292-1.073-2.978L-45.5,191.2Zm-3.581,1.456-3.092,1.257-1.073-2.978,3.092-1.257Zm-3.493,1.42-3.167,1.287-1.073-2.978,3.167-1.287Zm-3.569,1.451-3.121,1.269-1.073-2.978,3.121-1.268Zm-3.523,1.432-3.091,1.256-1.073-2.978,3.091-1.256Zm1.432-.114,1.176,3.262-3.186,1.295-1.176-3.262Zm.4-.163,3.111-1.264,1.175,3.262-3.11,1.264Zm3.512-1.427,3.1-1.26,1.176,3.262-3.1,1.26Zm3.5-1.423,3.242-1.318,1.174,3.258.106-.038-3.346,1.36Zm3.644-1.481,3.084-1.253,1.176,3.262L-44.9,198.57Zm3.485-1.416,3.1-1.261,1.175,3.262-3.1,1.261Zm3.5-1.424,3.132-1.273,1.176,3.262-3.132,1.273Zm3.534-1.436,3.321-1.35,1.176,3.262-3.321,1.35Zm3.723-1.513,3.018-1.227,1.176,3.262-3.018,1.227Zm7.694-7.009,1.114,2.961-3.257,1.324-1.073-2.978Zm-2.446-3.263,1.191,3.3-3.3,1.341-1.191-3.3Zm-3.7,1.5,1.191,3.3-3.138,1.275-1.191-3.3Zm-3.54,1.438,1.191,3.3-3.118,1.267-1.191-3.3Zm-3.519,1.43,1.191,3.3-3.193,1.3-1.191-3.3Zm-3.594,1.461,1.191,3.3-3.089,1.255-1.191-3.3Zm-3.49,1.419,1.191,3.3-3.284,1.335-1.191-3.3Zm-3.686,1.5,1.191,3.3-3.051,1.24-1.191-3.3Zm-3.453,1.4,1.191,3.3-3.113,1.265-1.191-3.3Zm-6.454,2.623.093-.034v0l2.848-1.158,1.191,3.3-3.256,1.323-1.191-3.3Zm-.718.292,1.191,3.3-3.042,1.236-1.191-3.3Zm-3.444,1.4,1.191,3.3-3.229,1.313-1.191-3.3Zm-4.7,5.687,0,.011-.866.352-1.191-3.3,3.123-1.269,1.191,3.3-1.981.8Zm1.626,3.234-1.073-2.978,3.2-1.3,1.073,2.978Zm1.392-.1,3.142-1.277,1.176,3.262-3.142,1.277Zm.466,7.786-1.184-3.286,3.245-1.319L-60.148,209Zm3.646-1.482-1.184-3.286,3.139-1.275,1.184,3.286Zm3.54-1.439-1.184-3.286,3.157-1.283,1.184,3.287Zm3.559-1.446-1.184-3.286L-50.7,201.4l1.184,3.287Zm3.535-1.437-1.184-3.286,3.012-1.224L-46.1,203.3Zm3.414-1.387-1.184-3.286,3.257-1.324,1.184,3.286Zm3.658-1.487-1.184-3.286,3.052-1.24,1.184,3.286Zm3.454-1.4-1.184-3.286,3.2-1.3,1.184,3.286Zm3.6-1.464-1.184-3.286,3.247-1.319,1.184,3.286Zm3.648-1.483-1.184-3.286,3.053-1.241,1.184,3.286Zm3.454-1.4-1.184-3.287,3.15-1.28,1.184,3.286Z" transform="translate(93.976 -149.453)" fill="#d2d6d7"/>
        <rect id="Rectangle_2759" data-name="Rectangle 2759" width="18.279" height="12.836" rx="4.939" transform="translate(40.681 67.329) rotate(-21.627)" fill="#d2d6d7"/>
        <path id="Path_10236" data-name="Path 10236" d="M-4.287,298.475a1.073,1.073,0,0,0-.6,1.391l3.939,9.955a1.062,1.062,0,0,0,.221.344l10.961-17.46Z" transform="translate(45.961 -231.541)" fill="#b3bbbb"/>
      </g>
      <g id="Group_5097" data-name="Group 5097" transform="translate(15997.007 2961.224)">
        <path id="Path_10237" data-name="Path 10237" d="M438.2,211.936l-20.318-5.03,23.916-41.07,30.577,17.534L463.9,200.125Z" transform="translate(-415.974 -165.836)" fill="#fff"/>
        <path id="Path_10238" data-name="Path 10238" d="M508.743,181.4l7.64-7.532,18.977,19.14-9.365,8.644Z" transform="translate(-479.971 -171.488)" fill="#d9d9d9"/>
        <path id="Path_10239" data-name="Path 10239" d="M456.909,200.109l-16.256,40.42-24.4-15.97,24.962-34.586Z" transform="translate(-414.827 -182.822)" fill="#d9d9d9"/>
        <path id="Path_10292" data-name="Path 10292" d="M.025.035,49.829,0,49.8,35.384,0,35.419Z" transform="translate(0 42.987) rotate(-45.787)" fill="#fff"/>
        <path id="Path_10240" data-name="Path 10240" d="M490.16,338.631l2.068-2.816-.439-1.227-1.336.576-1.2-.821-.743,1.253-.185.006Z" transform="translate(-465.589 -284.42)" fill="#d05b8b"/>
        <path id="Path_10241" data-name="Path 10241" d="M488.808,341.793l-.96-1.095.408-1.4-1.157-.261-2.411,3.283-2.2-3.646-.011-.042-.863.026.134,1.451L480.6,341l.96,1.095-.408,1.4,1.419.32.491,1.372,1.336-.576,1.2.821.743-1.253,1.454-.044-.134-1.451Z" transform="translate(-460.146 -287.439)" fill="#52c9d8"/>
        <path id="Path_10242" data-name="Path 10242" d="M447.637,301.86l2.159-2.678-.335-.936-1.336.576-1.2-.821-.743,1.253-1.454.044.134,1.451-1.15.892.96,1.095-.408,1.4,1.419.32.491,1.372,1.1-.474Z" transform="translate(-434.166 -258.844)" fill="#d05b8b"/>
        <path id="Path_10243" data-name="Path 10243" d="M461.3,306.215l-.96-1.095.408-1.4-1.419-.32-.008-.024-1.947,2.415-.35,3.336,1.063.726.743-1.253,1.454-.044-.134-1.451Z" transform="translate(-443.542 -262.628)" fill="#52c9d8"/>
        <path id="Path_10244" data-name="Path 10244" d="M478.7,270.1l1.97-2.509-.482-1.348-1.336.576-1.2-.821-.742,1.253-1.454.044.134,1.451-1.15.892.96,1.095-.408,1.4,1.419.32.491,1.372,1.336-.576,1.2.821.743-1.253,1.454-.044-.121-1.309Z" transform="translate(-455.807 -236.325)" fill="#d05b8b"/>
        <path id="Path_10245" data-name="Path 10245" d="M492.63,271.773l-.079.048-1.734,2.209,2.44,1.182.929-.72-.96-1.095.408-1.4Z" transform="translate(-467.344 -240.387)" fill="#52c9d8"/>
        <path id="Path_10246" data-name="Path 10246" d="M512.686,307.171l3.583-.4,1.863-2.624-.434-1.213-1.336.576-1.2-.821-.743,1.253-1.454.044.134,1.451-1.15.892Z" transform="translate(-482.228 -262.144)" fill="#d05b8b"/>
        <path id="Path_10247" data-name="Path 10247" d="M521.475,311.094l-.96-1.095.408-1.4-1.171-.264-1.961,2.761-3.6.4-.378,1.3,1.419.32.491,1.372,1.336-.576,1.2.821.743-1.253,1.454-.044-.134-1.451Z" transform="translate(-483.543 -266.117)" fill="#52c9d8"/>
        <path id="Path_10293" data-name="Path 10293" d="M0,.008,11.079,0V1.207L0,1.215Z" transform="translate(29.834 25.06) rotate(-45.984)" fill="#52c9d8"/>
        <path id="Path_10294" data-name="Path 10294" d="M0,0,5.537,0V1.209L0,1.213Z" transform="translate(30.724 25.922) rotate(-45.984)" fill="#d05b8b"/>
        <path id="Path_10295" data-name="Path 10295" d="M0,.008,11.079,0V1.207L0,1.215Z" transform="translate(33.49 28.662) rotate(-45.984)" fill="#52c9d8"/>
        <path id="Path_10296" data-name="Path 10296" d="M0,0,6.5,0V1.209l-6.5,0Z" transform="translate(34.379 29.523) rotate(-45.984)" fill="#d05b8b"/>
        <path id="Path_10297" data-name="Path 10297" d="M0,.006,8.8,0V1.208L0,1.214Z" transform="translate(36.9 32.12) rotate(-45.984)" fill="#52c9d8"/>
        <path id="Path_10298" data-name="Path 10298" d="M0,0,4.09,0V1.209L0,1.212Z" transform="translate(40.224 35.339) rotate(-45.984)" fill="#52c9d8"/>
        <path id="Path_10299" data-name="Path 10299" d="M0,.005,7.659,0V1.208L0,1.213Z" transform="translate(37.788 32.98) rotate(-45.984)" fill="#d05b8b"/>
        <path id="Path_10300" data-name="Path 10300" d="M0,.005,7.659,0V1.208L0,1.213Z" transform="translate(41.088 36.175) rotate(-45.984)" fill="#d05b8b"/>
        <ellipse id="Ellipse_367" data-name="Ellipse 367" cx="0.534" cy="0.535" rx="0.534" ry="0.535" transform="translate(34.001 33.587)" fill="#d05b8b"/>
        <ellipse id="Ellipse_368" data-name="Ellipse 368" cx="0.534" cy="0.535" rx="0.534" ry="0.535" transform="translate(27.203 27.07)" fill="#52c9d8"/>
        <path id="Path_10248" data-name="Path 10248" d="M468.5,220.975l1.068-3.128s.463-1.179-.606-1.379c-.883-.165-1.2,1.008-1.2,1.008l-1.191,3.869s-.431,1.42.945,1.605c1.442.194,1.971-2.305,1.971-2.305l1.417-4.939s.185-1.358-.924-1.647a1.683,1.683,0,0,0-2.054,1.05c-.267.638-.924,3.272-.924,3.272" transform="translate(-450.223 -199.725)" fill="none" stroke="#c55c64" stroke-miterlimit="10" stroke-width="2"/>
        <path id="Path_10249" data-name="Path 10249" d="M574.272,242.814l3.179-.886s1.233-.284.793-1.28c-.364-.823-1.509-.423-1.509-.423l-3.858,1.2s-1.413.446-.787,1.688c.656,1.3,3.012.327,3.012.327l4.867-1.621s1.223-.615.833-1.694a1.682,1.682,0,0,0-2.025-1.1c-.676.14-3.216,1.086-3.216,1.086" transform="translate(-524.475 -217.31)" fill="none" stroke="#c55c64" stroke-miterlimit="10" stroke-width="2"/>
        <g id="Group_5096" data-name="Group 5096" transform="translate(33.084 6.703)">
          <path id="Path_10250" data-name="Path 10250" d="M523.325,192.226l1.328,1.235h.524l2.841,2.778-.253.741,1.2,1.235L533,194.448l-5.684-5.989Z" transform="translate(-523.325 -188.459)" fill="#20646e"/>
          <path id="Path_10251" data-name="Path 10251" d="M528.95,198.028l-1.467-9.568-3.992,3.766,1.328,1.235h.524l2.841,2.778-.253.741Z" transform="translate(-523.442 -188.459)" fill="#00415b"/>
        </g>
        <path id="Path_10252" data-name="Path 10252" d="M531.409,191.773l4.59-5.865.11-.123a1.958,1.958,0,1,0-1.132-1.088l-6.433,4.39" transform="translate(-493.917 -177.202)" fill="none" stroke="#cbb594" stroke-miterlimit="10" stroke-width="3"/>
      </g>
      <g id="Group_5103" data-name="Group 5103" transform="translate(15996.929 3006.05) rotate(75)">
        <path id="Path_10305" data-name="Path 10305" d="M1.239.013,22.138,0A1.231,1.231,0,0,1,23.37,1.231l-.006,9.292a1.234,1.234,0,0,1-1.234,1.233l-20.9.013A1.231,1.231,0,0,1,0,10.538L.006,1.246A1.234,1.234,0,0,1,1.239.013Z" transform="translate(8.475 0) rotate(46.06)" fill="#dfdbcf"/>
        <path id="Path_10259" data-name="Path 10259" d="M4.954,1.067,3.9,0,.189,3.574a.617.617,0,0,0-.016.873L15.545,20.369a.62.62,0,0,0,.875.016l3.706-3.565Z" transform="translate(0.247 4.167)" fill="#f2f2f2"/>
        <path id="Path_10306" data-name="Path 10306" d="M1.239.01,17.029,0a1.231,1.231,0,0,1,1.232,1.231l-.005,8.316a1.234,1.234,0,0,1-1.234,1.233l-15.79.01A1.231,1.231,0,0,1,0,9.559L.005,1.243A1.234,1.234,0,0,1,1.239.01Z" transform="translate(9.205 1.376) rotate(46.06)" fill="#00455d"/>
        <path id="Path_10260" data-name="Path 10260" d="M16.252,12.435,4.429.189A.619.619,0,0,0,3.554.173L0,3.591,12.68,16.729l3.556-3.42A.617.617,0,0,0,16.252,12.435Z" transform="translate(5.202 1.643)" fill="#001d37"/>
        <path id="Path_10307" data-name="Path 10307" d="M0,0,3.288,0l0,3.283L0,3.285Z" transform="translate(6.313 6.402) rotate(46.06)" fill="#dee1da"/>
        <path id="Path_10308" data-name="Path 10308" d="M0,0,3.288,0l0,3.745L0,3.747Z" transform="translate(9.014 3.804) rotate(46.06)" fill="#cbc9bc"/>
        <g id="Group_5101" data-name="Group 5101" transform="translate(7.978 5.536)">
          <path id="Path_10261" data-name="Path 10261" d="M1.942.24h0A.576.576,0,0,0,1.174.224.632.632,0,0,0,1.1.147.673.673,0,0,0,.252,1.2L.23,1.221a.577.577,0,0,0,.843.788l.9-.956A.575.575,0,0,0,1.942.24Z" transform="translate(0 0)" fill="#fffffd"/>
          <path id="Path_10262" data-name="Path 10262" d="M1.648.238h0A.576.576,0,0,0,.88.222.7.7,0,0,0,.8.145.674.674,0,0,0,.106.059c.306.242.87.9-.106,2a.576.576,0,0,0,.778-.055l.9-.955A.576.576,0,0,0,1.648.238Z" transform="translate(0.294 0.003)" fill="#e2e2d8"/>
        </g>
        <path id="Path_10263" data-name="Path 10263" d="M.085.088A.269.269,0,0,1,.255,0,.187.187,0,0,1,.407.059.523.523,0,0,1,.482.386.77.77,0,0,0,.523.66L.765.42.839.493.484.845a.692.692,0,0,1-.1-.416A.44.44,0,0,0,.316.15Q.246.081.162.164A.128.128,0,0,0,.115.258.219.219,0,0,0,.191.381L.082.433A.243.243,0,0,1,0,.274.24.24,0,0,1,.085.088Z" transform="translate(5.292 8.98)" fill="#fffffd"/>
        <path id="Path_10264" data-name="Path 10264" d="M.15.234.059.325,0,.266a.224.224,0,0,0,.067-.1.125.125,0,0,0-.031-.1L.1,0,.687.591.6.681Z" transform="translate(5.807 8.52)" fill="#fffffd"/>
        <path id="Path_10265" data-name="Path 10265" d="M.065.068A.2.2,0,0,1,.295.017.788.788,0,0,1,.534.2.749.749,0,0,1,.707.434.2.2,0,0,1,.653.659.206.206,0,0,1,.4.693a.821.821,0,0,1-.2-.159A.9.9,0,0,1,.031.33.208.208,0,0,1,.065.068ZM.584.589A.092.092,0,0,0,.6.48a.748.748,0,0,0-.155-.2A1.177,1.177,0,0,0,.31.16C.234.107.176.1.136.139A.088.088,0,0,0,.12.247a.83.83,0,0,0,.161.2A.712.712,0,0,0,.48.6.085.085,0,0,0,.584.589Z" transform="translate(6.283 8.122)" fill="#fffffd"/>
        <path id="Path_10266" data-name="Path 10266" d="M.493.315a.264.264,0,0,1-.08.18.158.158,0,0,1-.17.04A.337.337,0,0,1,.107.446.332.332,0,0,1,0,.258.2.2,0,0,1,.064.081.225.225,0,0,1,.26,0,.571.571,0,0,1,.545.185a.7.7,0,0,1,.186.26A.212.212,0,0,1,.659.664.2.2,0,0,1,.405.7L.463.579C.517.617.558.621.587.592Q.679.5.493.315ZM.145.148Q.067.224.2.356c.05.05.087.075.112.076A.09.09,0,0,0,.375.405.209.209,0,0,0,.426.247.7.7,0,0,0,.3.143.118.118,0,0,0,.145.148Z" transform="translate(6.723 7.678)" fill="#fffffd"/>
        <path id="Path_10309" data-name="Path 10309" d="M.862,0h.8a.859.859,0,0,1,.86.859v.8a.862.862,0,0,1-.861.86H.86A.859.859,0,0,1,0,1.665v-.8A.862.862,0,0,1,.862,0Z" transform="matrix(0.694, 0.72, -0.72, 0.694, 16.232, 9.902)" fill="#e786b5"/>
        <path id="Path_10267" data-name="Path 10267" d="M2.264,1.295,1.15.141A.463.463,0,0,0,.5.129L0,.607,1.762,2.418l.49-.471A.46.46,0,0,0,2.264,1.295Z" transform="translate(15.402 10.094)" fill="#e15ea2"/>
        <path id="Path_10310" data-name="Path 10310" d="M.862,0h.8a.859.859,0,0,1,.86.859v.8a.862.862,0,0,1-.861.86H.86A.859.859,0,0,1,0,1.665v-.8A.862.862,0,0,1,.862,0Z" transform="matrix(0.694, 0.72, -0.72, 0.694, 11.914, 10.551)" fill="#15a1b0"/>
        <path id="Path_10268" data-name="Path 10268" d="M2.264,1.295,1.15.141A.463.463,0,0,0,.5.129L0,.607,1.762,2.418l.49-.471A.46.46,0,0,0,2.264,1.295Z" transform="translate(11.085 10.744)" fill="#00879b"/>
        <g id="Group_5102" data-name="Group 5102" transform="translate(7.846 12.716)">
          <path id="Path_10311" data-name="Path 10311" d="M.862,0h.8a.859.859,0,0,1,.86.859v.8a.862.862,0,0,1-.861.86H.86A.859.859,0,0,1,0,1.665v-.8A.862.862,0,0,1,.862,0Z" transform="translate(1.817 0) rotate(46.06)" fill="#f9b38d"/>
          <path id="Path_10269" data-name="Path 10269" d="M2.264,1.295,1.15.141A.463.463,0,0,0,.5.129L0,.607,1.762,2.418l.49-.471A.46.46,0,0,0,2.264,1.295Z" transform="translate(0.988 0.192)" fill="#fc8b75"/>
        </g>
        <path id="Path_10312" data-name="Path 10312" d="M.539,0h.5a.538.538,0,0,1,.538.538v.5a.539.539,0,0,1-.539.539h-.5A.538.538,0,0,1,0,1.042v-.5A.539.539,0,0,1,.539,0Z" transform="matrix(0.694, 0.72, -0.72, 0.694, 15.667, 16.927)" fill="#fa6645"/>
        <path id="Path_10270" data-name="Path 10270" d="M1.417.811.72.089A.29.29,0,0,0,.311.081L0,.38,1.1,1.514l.306-.295A.288.288,0,0,0,1.417.811Z" transform="translate(15.148 17.047)" fill="#d85046"/>
        <path id="Path_10313" data-name="Path 10313" d="M.539,0h.5a.538.538,0,0,1,.538.538v.5a.539.539,0,0,1-.539.539h-.5A.538.538,0,0,1,0,1.042v-.5A.539.539,0,0,1,.539,0Z" transform="matrix(0.694, 0.72, -0.72, 0.694, 14.088, 18.433)" fill="#b9946d"/>
        <path id="Path_10271" data-name="Path 10271" d="M1.417.811.72.088A.29.29,0,0,0,.311.081L0,.38,1.1,1.514l.307-.295A.289.289,0,0,0,1.417.811Z" transform="translate(13.569 18.554)" fill="#967a47"/>
        <path id="Path_10314" data-name="Path 10314" d="M.445,0H.86A.444.444,0,0,1,1.3.444V.859A.445.445,0,0,1,.86,1.3H.444A.444.444,0,0,1,0,.859V.445A.445.445,0,0,1,.445,0Z" transform="matrix(0.694, 0.72, -0.72, 0.694, 19.516, 13.613)" fill="#e786b5"/>
        <path id="Path_10272" data-name="Path 10272" d="M1.169.669.594.073A.239.239,0,0,0,.256.067L0,.313l.91.935.253-.243A.238.238,0,0,0,1.169.669Z" transform="translate(19.088 13.713)" fill="#e15ea2"/>
        <path id="Path_10315" data-name="Path 10315" d="M.592,0h.552a.589.589,0,0,1,.59.589V2.669a.591.591,0,0,1-.591.59H.59A.589.589,0,0,1,0,2.67V.591A.591.591,0,0,1,.592,0Z" transform="translate(19.753 17.954) rotate(45.891)" fill="#e0ded1"/>
        <path id="Path_10273" data-name="Path 10273" d="M1.5,1.46A.767.767,0,0,0,1.517.373L1.381.234A.771.771,0,0,0,.293.216L0,.5.357,2.567Z" transform="translate(18.908 18.273)" fill="#eff0e8"/>
      </g>
    </g>
  </g>
</svg>
