<svg xmlns="http://www.w3.org/2000/svg" xmlns:xlink="http://www.w3.org/1999/xlink" width="132" height="63" viewBox="0 0 132 63">
  <defs>
    <style>
      .cls-1 {
        fill: #b4f1f2;
      }

      .cls-2 {
        clip-path: url(#clip-path);
      }

      .cls-10, .cls-3, .cls-32 {
        fill: none;
      }

      .cls-4, .cls-6 {
        fill: #fff;
      }

      .cls-5 {
        fill: #7a6;
      }

      .cls-6 {
        font-size: 1px;
        font-family: HiraKakuStd-W8, Hiragino Kaku Gothic Std;
      }

      .cls-7 {
        fill: #fcec90;
      }

      .cls-8 {
        fill: #b0b7b8;
      }

      .cls-9 {
        fill: #f2f2f2;
      }

      .cls-10 {
        stroke: #7898af;
      }

      .cls-10, .cls-32 {
        stroke-miterlimit: 10;
        stroke-width: 2px;
      }

      .cls-11 {
        fill: #f9b39b;
      }

      .cls-12 {
        fill: #edb582;
      }

      .cls-13 {
        fill: #5099d4;
      }

      .cls-14 {
        fill: #145178;
      }

      .cls-15 {
        fill: #dd924f;
      }

      .cls-16 {
        fill: #7898af;
      }

      .cls-17 {
        fill: #9c9e9f;
      }

      .cls-18 {
        fill: #aeb8b5;
      }

      .cls-19 {
        fill: #a2466b;
      }

      .cls-20 {
        fill: #8d1849;
      }

      .cls-21 {
        fill: #f79432;
      }

      .cls-22 {
        fill: #b36a41;
      }

      .cls-23 {
        fill: #7f8abd;
      }

      .cls-24 {
        fill: #4277a5;
      }

      .cls-25 {
        fill: #c93d17;
      }

      .cls-26 {
        fill: #f85621;
      }

      .cls-27 {
        fill: #47662e;
      }

      .cls-28 {
        fill: #84c539;
      }

      .cls-29 {
        fill: #4e2d10;
      }

      .cls-30 {
        fill: #633a18;
      }

      .cls-31 {
        fill: #f7ac51;
      }

      .cls-32 {
        stroke: #666;
      }
    </style>
    <clipPath id="clip-path">
      <rect id="Rectangle_3534" data-name="Rectangle 3534" class="cls-1" width="132" height="63" rx="5" transform="translate(1094 1806)"/>
    </clipPath>
  </defs>
  <g id="Mask_Group_65" data-name="Mask Group 65" class="cls-2" transform="translate(-1094 -1806)">
    <path id="Path_12161" data-name="Path 12161" class="cls-3" d="M5,0H1180a5,5,0,0,1,5,5V58a5,5,0,0,1-5,5H5a5,5,0,0,1-5-5V5A5,5,0,0,1,5,0Z" transform="translate(52 1806)"/>
    <g id="Group_5724" data-name="Group 5724" transform="translate(1096.788 1803.124)">
      <path id="Path_12032" data-name="Path 12032" class="cls-4" d="M3513,4399.779l1,1.3,36.653-6.788-1.426-3.178Z" transform="translate(-3505.443 -4347.067)"/>
      <path id="Path_12033" data-name="Path 12033" class="cls-5" d="M3431.816,3933.13l-7.559-46.647,37.794-6.066,6.988,45.636Z" transform="translate(-3424.257 -3880.418)"/>
      <text id="NOTEBOOK" class="cls-6" transform="translate(11.932 14.491) rotate(-8.549)"><tspan x="0" y="0">NOTEBOOK</tspan></text>
      <path id="Path_12151" data-name="Path 12151" class="cls-4" d="M0,0,22.658-.043V.13L0,.172Z" transform="translate(10.042 19.92) rotate(-8.708)"/>
      <path id="Path_12152" data-name="Path 12152" class="cls-4" d="M0,0,22.658-.043V.13L0,.172Z" transform="translate(10.47 22.664) rotate(-8.708)"/>
      <path id="Path_12153" data-name="Path 12153" class="cls-4" d="M0,0,22.658-.043V.13L0,.172Z" transform="translate(10.755 25.191) rotate(-8.708)"/>
      <path id="Path_12154" data-name="Path 12154" class="cls-4" d="M0,0,22.658-.043V.13L0,.172Z" transform="translate(11.183 27.935) rotate(-8.708)"/>
      <path id="Path_12155" data-name="Path 12155" class="cls-4" d="M0,0,22.658-.043V.13L0,.172Z" transform="translate(11.825 30.39) rotate(-8.708)"/>
      <path id="Path_12156" data-name="Path 12156" class="cls-4" d="M0,0,22.658-.043V.13L0,.172Z" transform="translate(12.253 33.134) rotate(-8.708)"/>
      <path id="Path_12157" data-name="Path 12157" class="cls-4" d="M0,0,22.658-.043V.13L0,.172Z" transform="translate(12.752 35.589) rotate(-8.708)"/>
      <path id="Path_12158" data-name="Path 12158" class="cls-4" d="M0,0,22.658-.043V.13L0,.172Z" transform="translate(13.18 38.333) rotate(-8.708)"/>
    </g>
    <g id="Group_5727" data-name="Group 5727" transform="translate(1121.532 1823.51)">
      <path id="Path_12034" data-name="Path 12034" class="cls-7" d="M4351.839,4858.276h3.806v44.368l-38.575.13V4881.5Z" transform="translate(-4279.255 -4856.183)"/>
      <path id="Path_12035" data-name="Path 12035" class="cls-7" d="M3838.294,4858.276h-3.805v44.368l38.575.13V4881.5Z" transform="translate(-3834.489 -4856.183)"/>
      <path id="Path_12036" data-name="Path 12036" class="cls-8" d="M3849.655,4870.835l-1.706.13-.065,41.824,37.263.261Z" transform="translate(-3846.834 -4867.763)"/>
      <path id="Path_12037" data-name="Path 12037" class="cls-9" d="M3862.953,4875.923v-44.5h28.079s6.823-.262,8,2.871v42.411S3892.607,4875.531,3862.953,4875.923Z" transform="translate(-3860.723 -4831.418)"/>
      <path id="Path_12038" data-name="Path 12038" class="cls-10" d="M3862.953,4879.991h28.013s5.642-.2,8.135,2.023" transform="translate(-3860.723 -4876.201)"/>
      <path id="Path_12039" data-name="Path 12039" class="cls-10" d="M3862.953,4927.712h28.013s5.642-.2,8.135,2.022" transform="translate(-3860.723 -4920.203)"/>
      <path id="Path_12040" data-name="Path 12040" class="cls-10" d="M3862.953,4976.271h28.013s5.642-.2,8.135,2.022" transform="translate(-3860.723 -4964.978)"/>
      <path id="Path_12041" data-name="Path 12041" class="cls-10" d="M3862.953,5021.48h28.013s5.642-.2,8.135,2.023" transform="translate(-3860.723 -5006.664)"/>
      <path id="Path_12042" data-name="Path 12042" class="cls-10" d="M3862.953,5067.528h28.013s5.642-.2,8.135,2.022" transform="translate(-3860.723 -5049.123)"/>
      <path id="Path_12043" data-name="Path 12043" class="cls-10" d="M3862.953,5114.41h28.013s5.642-.2,8.135,2.023" transform="translate(-3860.723 -5092.351)"/>
      <path id="Path_12044" data-name="Path 12044" class="cls-10" d="M3862.953,5205.665h28.013s5.642-.2,8.135,2.022" transform="translate(-3860.723 -5176.494)"/>
      <path id="Path_12045" data-name="Path 12045" class="cls-10" d="M3862.953,5251.711h28.013s5.642-.2,8.135,2.023" transform="translate(-3860.723 -5218.952)"/>
      <path id="Path_12046" data-name="Path 12046" class="cls-10" d="M3863.791,5298.6H3891.8s5.642-.2,8.135,2.023" transform="translate(-3861.495 -5262.182)"/>
      <path id="Path_12047" data-name="Path 12047" class="cls-10" d="M3863.791,5345.479H3891.8s5.642-.2,8.135,2.023" transform="translate(-3861.495 -5305.412)"/>
      <path id="Path_12048" data-name="Path 12048" class="cls-10" d="M3899.1,5161.643c-2.493-2.219-8.135-2.023-8.135-2.023h-28.013" transform="translate(-3860.723 -5134.037)"/>
      <path id="Path_12049" data-name="Path 12049" class="cls-8" d="M4355.91,4870.835l1.706.13.065,41.824-37.263.261Z" transform="translate(-4282.341 -4867.763)"/>
      <path id="Path_12050" data-name="Path 12050" class="cls-9" d="M4356.5,4875.923v-44.5h-28.079s-6.823-.262-8,2.871v42.411S4326.847,4875.531,4356.5,4875.923Z" transform="translate(-4282.341 -4831.418)"/>
      <path id="Path_12051" data-name="Path 12051" class="cls-10" d="M4355.729,4879.991h-28.013s-5.643-.2-8.135,2.023" transform="translate(-4281.568 -4876.201)"/>
      <path id="Path_12052" data-name="Path 12052" class="cls-10" d="M4355.729,4927.712h-28.013s-5.643-.2-8.135,2.022" transform="translate(-4281.568 -4920.203)"/>
      <path id="Path_12053" data-name="Path 12053" class="cls-10" d="M4355.729,4976.271h-28.013s-5.643-.2-8.135,2.022" transform="translate(-4281.568 -4964.978)"/>
      <path id="Path_12054" data-name="Path 12054" class="cls-10" d="M4355.729,5021.48h-28.013s-5.643-.2-8.135,2.023" transform="translate(-4281.568 -5006.664)"/>
      <path id="Path_12055" data-name="Path 12055" class="cls-10" d="M4355.729,5067.528h-28.013s-5.643-.2-8.135,2.022" transform="translate(-4281.568 -5049.123)"/>
      <path id="Path_12056" data-name="Path 12056" class="cls-10" d="M4355.729,5114.41h-28.013s-5.643-.2-8.135,2.023" transform="translate(-4281.568 -5092.351)"/>
      <path id="Path_12057" data-name="Path 12057" class="cls-10" d="M4355.729,5205.665h-28.013s-5.643-.2-8.135,2.022" transform="translate(-4281.568 -5176.494)"/>
      <path id="Path_12058" data-name="Path 12058" class="cls-10" d="M4355.729,5251.711h-28.013s-5.643-.2-8.135,2.023" transform="translate(-4281.568 -5218.952)"/>
      <path id="Path_12059" data-name="Path 12059" class="cls-10" d="M4354.892,5298.6h-28.013s-5.642-.2-8.135,2.023" transform="translate(-4280.798 -5262.182)"/>
      <path id="Path_12060" data-name="Path 12060" class="cls-10" d="M4354.892,5345.479h-28.013s-5.642-.2-8.135,2.023" transform="translate(-4280.798 -5305.412)"/>
      <path id="Path_12061" data-name="Path 12061" class="cls-10" d="M4319.581,5161.643c2.493-2.219,8.135-2.023,8.135-2.023h28.013" transform="translate(-4281.568 -5134.037)"/>
      <g id="Group_5725" data-name="Group 5725" transform="translate(6.868 8.295)">
        <rect id="Rectangle_3521" data-name="Rectangle 3521" class="cls-11" width="14.564" height="7.071" transform="translate(44.828 40.125)"/>
        <path id="Path_12062" data-name="Path 12062" class="cls-12" d="M3930.161,4971.251l-3.936-3.327s.459-3.2-1.575-7.96-3.542-12.332-1.64-15.529,2.887-2.479,2.887-2.479.591-2.35,1.575-2.415,1.9.783,1.9,1.24c0,0,2.493-3.654,4-2.806s0,3.654,0,3.654l-2.034,3a25.762,25.762,0,0,1,.919,3.719c-.132.261,1.443-5.22,1.443-5.22s3.411-5.742,5.511-4.5-1.64,5.61-1.64,5.61l-1.574,4.241-.263,8.939.59.522,2.756-2.871s-.525-8.873,1.509-8.873,2.1,3.588,2.1,3.588l.065,6.329-6.363,10.31v2.674Z" transform="translate(-3922.137 -4937.847)"/>
        <path id="Path_12063" data-name="Path 12063" class="cls-12" d="M4457.544,4983.252s.131-3-1.247-4.633-4.593-6.133-4.593-6.133-.59-.26-.59-3.132-.394-6.656,1.509-6.59,1.968,2.088,1.9,2.806.262,6.264,4.658,6,3.739-5.807,3.673-6.133-2.493-5.351-2.493-5.351l-6.232-.326s-1.9-.783-1.443-2.284,4.592-.913,4.592-.913,4.92.13,5.642.718,5.183,5.676,5.183,5.676a11.768,11.768,0,0,1,.394,3.719c-.066,2.349-.59,12.724-.59,12.724l.131,5.089Z" transform="translate(-4409.632 -4955.002)"/>
        <rect id="Rectangle_3522" data-name="Rectangle 3522" class="cls-4" width="14.564" height="11.815" transform="translate(44.762 28.309)"/>
        <ellipse id="Ellipse_398" data-name="Ellipse 398" class="cls-11" cx="1.05" cy="1.044" rx="1.05" ry="1.044" transform="translate(46.206 32.491)"/>
        <path id="Path_12064" data-name="Path 12064" class="cls-13" d="M4418.226,4982.426l-2.157-2.32.467-.9,2.886.463,20.265,10.556-1.458,2.639Z" transform="translate(-4377.364 -4975.983)"/>
        <path id="Path_12065" data-name="Path 12065" class="cls-14" d="M4419.264,4978.881l-.242.467,2.6.49,20.308,10.934.481-.872-20.264-10.555Z" transform="translate(-4380.086 -4975.683)"/>
        <path id="Path_12066" data-name="Path 12066" class="cls-15" d="M4408.788,4978.972s-.933-.348-1.049-.145.641.87.641.87Z" transform="translate(-4369.675 -4975.574)"/>
        <rect id="Rectangle_3523" data-name="Rectangle 3523" class="cls-11" width="14.564" height="5.155" transform="translate(1.726 42.017)"/>
        <rect id="Rectangle_3524" data-name="Rectangle 3524" class="cls-4" width="14.564" height="11.815" transform="translate(1.726 30.267)"/>
      </g>
      <g id="Group_5726" data-name="Group 5726" transform="translate(43.854 4.191)">
        <path id="Path_12067" data-name="Path 12067" class="cls-16" d="M4420.889,4886.182a1.29,1.29,0,0,0-.35.066c-.148.045-.31.1-.489.157-.017.024-.039.058-.064.1s-.047.082-.067.124a.468.468,0,0,0-.041.12.108.108,0,0,0,.013.09.162.162,0,0,0,.122.067.63.63,0,0,0,.186-.013,1.426,1.426,0,0,0,.218-.067c.076-.031.15-.063.221-.1s.136-.07.2-.1.107-.063.142-.085.079-.053.118-.082.077-.057.111-.084a.1.1,0,0,1,.05-.023.047.047,0,0,1,.04.011.051.051,0,0,1,.016.036.083.083,0,0,1-.017.051,1.158,1.158,0,0,1-.168.208,2.638,2.638,0,0,1-.2.184,2.179,2.179,0,0,1-.267.188,1.887,1.887,0,0,1-.3.146,1.49,1.49,0,0,1-.3.08.771.771,0,0,1-.288-.011.373.373,0,0,1-.182-.1.327.327,0,0,1-.089-.162.488.488,0,0,1,0-.205.843.843,0,0,1,.072-.22.616.616,0,0,1-.073.019.173.173,0,0,1-.063,0,.034.034,0,0,1-.029-.029c0-.016.006-.04.027-.072a.656.656,0,0,1,.174-.174c.076-.054.16-.108.25-.162.046-.05.092-.1.139-.145s.1-.092.146-.136l-.115.04a.184.184,0,0,1-.117.015.063.063,0,0,1-.042-.052.147.147,0,0,1,.018-.085.321.321,0,0,1,.065-.089,1.465,1.465,0,0,1,.215-.165,2.1,2.1,0,0,1,.495-.225c.086-.026.169-.047.248-.062s.146-.023.224-.03a1.448,1.448,0,0,1,.225,0,.81.81,0,0,1,.2.042.389.389,0,0,1,.161.1.153.153,0,0,1,.043.068.071.071,0,0,1-.006.057.088.088,0,0,1-.049.035.225.225,0,0,1-.088.006.876.876,0,0,0-.215-.009,1.725,1.725,0,0,0-.225.033c-.076.017-.153.036-.229.058l-.221.065a1.334,1.334,0,0,0-.155.129c-.049.048-.1.1-.145.146a1.429,1.429,0,0,1,.152-.011.869.869,0,0,1,.168.009.581.581,0,0,1,.145.043.159.159,0,0,1,.086.089.075.075,0,0,1-.014.075A.085.085,0,0,1,4420.889,4886.182Z" transform="translate(-4417.416 -4885.197)"/>
        <path id="Path_12068" data-name="Path 12068" class="cls-16" d="M4440.495,4894.1a2.963,2.963,0,0,1,.808-.264,1.861,1.861,0,0,1,.193-.027,1.025,1.025,0,0,1,.205,0,.455.455,0,0,1,.173.055.228.228,0,0,1,.1.133.12.12,0,0,1-.012.1.19.19,0,0,1-.083.062.462.462,0,0,1-.123.027c-.046,0-.092.006-.135.006s-.084,0-.121,0l-.078,0a2.733,2.733,0,0,0-.447.056l-.453.095a.107.107,0,0,1-.089-.015.094.094,0,0,1-.037-.068.15.15,0,0,1,.019-.086A.152.152,0,0,1,4440.495,4894.1Zm.353-.482a2.933,2.933,0,0,1,.808-.263,1.7,1.7,0,0,1,.193-.028.96.96,0,0,1,.206,0,.45.45,0,0,1,.173.055.223.223,0,0,1,.1.132.121.121,0,0,1-.011.1.179.179,0,0,1-.082.061.466.466,0,0,1-.123.028c-.046,0-.092.005-.135.005l-.121,0-.078,0a2.681,2.681,0,0,0-.447.056c-.15.033-.3.063-.453.094a.1.1,0,0,1-.088-.014.1.1,0,0,1-.038-.068.164.164,0,0,1,.019-.087A.161.161,0,0,1,4440.847,4893.616Z" transform="translate(-4436.776 -4892.687)"/>
        <path id="Path_12069" data-name="Path 12069" class="cls-16" d="M4461.406,4892.194a.27.27,0,0,1-.145.078.157.157,0,0,1-.188-.183.632.632,0,0,1,.065-.194,1.547,1.547,0,0,1,.122-.2l.116-.154q.075-.1.156-.187l.165-.185.132-.145a.636.636,0,0,0,.107-.148.234.234,0,0,1,.256-.137.162.162,0,0,1,.1.07.15.15,0,0,1,0,.14c.02-.02.04-.038.06-.055l.06-.053a1.445,1.445,0,0,1,.136-.1.637.637,0,0,1,.149-.071.388.388,0,0,1,.144-.019.194.194,0,0,1,.125.057.214.214,0,0,1,.073.163.488.488,0,0,1-.046.2c.039-.041.079-.081.121-.121s.084-.078.129-.115a1.022,1.022,0,0,1,.145-.1.749.749,0,0,1,.158-.066.312.312,0,0,1,.149-.008.211.211,0,0,1,.124.074.2.2,0,0,1,.048.115.367.367,0,0,1-.014.13.6.6,0,0,1-.058.135c-.025.045-.051.086-.078.125s-.074.1-.118.151-.088.1-.133.154l-.134.148q-.067.072-.12.133a.389.389,0,0,0-.053.072.063.063,0,0,0-.01.048q.007.016.04.006a.438.438,0,0,0,.1-.056c.049-.035.107-.078.173-.131l.191-.154c.063-.051.117-.1.165-.138s.079-.068.094-.08a.1.1,0,0,1,.057-.027.051.051,0,0,1,.04.012.042.042,0,0,1,.011.041.117.117,0,0,1-.032.06c-.023.027-.054.059-.088.1l-.112.118-.119.122-.11.113c-.045.045-.1.092-.15.141a1.046,1.046,0,0,1-.17.126.593.593,0,0,1-.179.072.267.267,0,0,1-.178-.021.2.2,0,0,1-.109-.1.292.292,0,0,1-.024-.142.514.514,0,0,1,.041-.161.967.967,0,0,1,.084-.158,2.375,2.375,0,0,1,.15-.2c.055-.064.112-.127.172-.19.128-.131.188-.208.176-.229s-.08.011-.206.1a2.048,2.048,0,0,0-.2.147c-.063.053-.125.106-.185.161s-.146.136-.216.207-.136.144-.2.22c-.028.034-.055.069-.079.1a.426.426,0,0,0-.058.11.236.236,0,0,1-.051.08.267.267,0,0,1-.078.056.228.228,0,0,1-.091.022.138.138,0,0,1-.088-.027.132.132,0,0,1-.065-.1.33.33,0,0,1,.015-.133.7.7,0,0,1,.061-.142,1.456,1.456,0,0,1,.075-.126c.05-.07.1-.138.16-.2s.115-.133.173-.2a1.293,1.293,0,0,0,.148-.193c.019-.036.017-.052,0-.05a.316.316,0,0,0-.11.049c-.051.031-.1.067-.161.108s-.111.084-.162.126a1.358,1.358,0,0,0-.111.1,3.783,3.783,0,0,0-.273.312q-.094.123-.143.2c-.032.053-.055.095-.069.125A.264.264,0,0,1,4461.406,4892.194Z" transform="translate(-4455.825 -4890.229)"/>
        <path id="Path_12070" data-name="Path 12070" class="cls-16" d="M4495.927,4891.251a.642.642,0,0,0,.065-.071.5.5,0,0,0,.063-.1c.012-.026.013-.043,0-.055s-.025-.012-.048-.006a.375.375,0,0,0-.086.037.836.836,0,0,0-.11.075c-.048.039-.095.08-.14.122s-.088.087-.129.133l-.079.1a.994.994,0,0,0-.091.135.571.571,0,0,0-.058.136.108.108,0,0,0,.017.1.139.139,0,0,0,.121.042.6.6,0,0,0,.18-.042,1.665,1.665,0,0,0,.211-.1c.073-.041.145-.084.213-.13s.132-.094.19-.141.1-.088.14-.123a.111.111,0,0,1,.057-.035.033.033,0,0,1,.036.015.081.081,0,0,1,.006.051.2.2,0,0,1-.029.078.835.835,0,0,1-.093.131c-.035.041-.07.081-.107.119a2.184,2.184,0,0,1-.3.26,1.71,1.71,0,0,1-.336.19,1.06,1.06,0,0,1-.294.075.444.444,0,0,1-.266-.052.327.327,0,0,1-.15-.187.5.5,0,0,1-.007-.262,1.129,1.129,0,0,1,.134-.327,1.8,1.8,0,0,1,.236-.314,2.1,2.1,0,0,1,.3-.264,1.388,1.388,0,0,1,.326-.177.582.582,0,0,1,.187-.04.447.447,0,0,1,.173.019.276.276,0,0,1,.126.088.24.24,0,0,1,.048.163.45.45,0,0,1-.034.159.713.713,0,0,1-.087.156.894.894,0,0,1-.126.137.6.6,0,0,1-.15.1.122.122,0,0,1-.091.01.1.1,0,0,1-.059-.045.111.111,0,0,1-.013-.078A.151.151,0,0,1,4495.927,4891.251Z" transform="translate(-4487 -4890.209)"/>
        <path id="Path_12071" data-name="Path 12071" class="cls-16" d="M4403.151,4914.59q-.371-.047-.816-.073c-.3-.019-.609-.032-.937-.04s-.667-.011-1.019-.009-.707.008-1.063.018-.714.022-1.068.037-.7.033-1.036.052-.658.037-.966.058-.594.04-.857.06l-.4.033-.4.03-.133.014c-.055,0-.107.007-.158.007a.422.422,0,0,1-.123-.016c-.031-.011-.04-.029-.026-.057s.027-.029.063-.044a1.205,1.205,0,0,1,.124-.036l.142-.03.118-.023c.129-.028.261-.056.4-.08s.27-.047.408-.07c.158-.026.353-.057.585-.087s.49-.062.774-.095.587-.062.912-.091.655-.054.992-.075.678-.04,1.02-.053.675-.021,1-.019.626.01.915.027.549.044.781.08a3.111,3.111,0,0,1,.594.147.832.832,0,0,1,.354.222.051.051,0,0,1,.015.044.074.074,0,0,1-.026.041.159.159,0,0,1-.061.025A.281.281,0,0,1,4403.151,4914.59Z" transform="translate(-4394.134 -4911.755)"/>
      </g>
    </g>
    <g id="Group_5731" data-name="Group 5731" transform="translate(1189.762 1810.81) rotate(13)">
      <path id="Path_12148" data-name="Path 12148" class="cls-4" d="M13.093.036A13,13,0,0,1,26.221,12.809a12.833,12.833,0,0,1-13.058,12.7A13,13,0,0,1,.035,12.737,12.833,12.833,0,0,1,13.093.036Z" transform="translate(5.869 7.178)"/>
      <path id="Path_12149" data-name="Path 12149" class="cls-17" d="M11.47.032a11.392,11.392,0,0,1,11.5,11.189A11.242,11.242,0,0,1,11.531,22.347,11.392,11.392,0,0,1,.03,11.158,11.242,11.242,0,0,1,11.47.032Z" transform="translate(7.497 8.762)"/>
      <path id="Path_12150" data-name="Path 12150" class="cls-18" d="M5.544.015A5.506,5.506,0,0,1,11.1,5.424,5.434,5.434,0,0,1,5.573,10.8,5.506,5.506,0,0,1,.015,5.393,5.434,5.434,0,0,1,5.544.015Z" transform="translate(13.438 14.543)"/>
      <path id="Path_12143" data-name="Path 12143" class="cls-19" d="M1.554-.008,12.682.148A1.641,1.641,0,0,1,14.288,1.76a1.534,1.534,0,0,1-1.562,1.567L1.6,3.17A1.641,1.641,0,0,1-.008,1.559,1.534,1.534,0,0,1,1.554-.008Z" transform="matrix(0.739, -0.674, 0.674, 0.739, 21.973, 18.498)"/>
      <path id="Path_12072" data-name="Path 12072" class="cls-20" d="M10.753.03.026,9.481h0A1.641,1.641,0,0,0,2.3,9.589l8.327-7.383A1.533,1.533,0,0,0,10.753.03Z" transform="translate(22.992 10.174)"/>
      <path id="Path_12073" data-name="Path 12073" class="cls-21" d="M4.417,1.031,3.891.011.628,1.6l.02.024A1.4,1.4,0,0,0,.008,2.8,1.449,1.449,0,0,0,1.47,4.225a1.718,1.718,0,0,0,1.507-.8Z" transform="translate(31.341 8.091)"/>
      <path id="Path_12074" data-name="Path 12074" class="cls-22" d="M1.145,3.795A1.718,1.718,0,0,0,2.652,3L4.092.6l-.3-.59L.009,3.263A1.48,1.48,0,0,0,1.145,3.795Z" transform="translate(31.666 8.522)"/>
      <path id="Path_12075" data-name="Path 12075" class="cls-19" d="M1.858.175.789,1.6s-.9.24-.776-.924L1.683,0Z" transform="translate(35.093 7.471)"/>
      <path id="Path_12076" data-name="Path 12076" class="cls-20" d="M.708,1.6,1.777.175,1.6,0l-.02.008L0,1.317A.616.616,0,0,0,.708,1.6Z" transform="translate(35.174 7.471)"/>
      <g id="Group_5728" data-name="Group 5728" transform="translate(17.475 0.048)">
        <path id="Path_12144" data-name="Path 12144" class="cls-23" d="M1.548-.009l11,.068a1.611,1.611,0,0,1,1.576,1.617,1.564,1.564,0,0,1-1.557,1.6l-11-.068A1.611,1.611,0,0,1-.009,1.589h0A1.564,1.564,0,0,1,1.548-.009Z" transform="translate(0.046 16.703) rotate(-71.561)"/>
        <path id="Path_12077" data-name="Path 12077" class="cls-24" d="M4.634.013.037,13.379h0a1.611,1.611,0,0,0,2.032-.984L5.613,1.979A1.561,1.561,0,0,0,4.634.013Z" transform="translate(1.513 3.835)"/>
        <path id="Path_12078" data-name="Path 12078" class="cls-21" d="M3.147.65,2.177.006.136,2.948l.029.012A1.385,1.385,0,0,0,.2,4.293a1.486,1.486,0,0,0,1.987.552A1.655,1.655,0,0,0,3.1,3.433Z" transform="translate(4.21 1.296)"/>
        <path id="Path_12079" data-name="Path 12079" class="cls-22" d="M1.268,4.572A1.655,1.655,0,0,0,2.18,3.16L2.231.377,1.67,0,.013,4.646A1.491,1.491,0,0,0,1.268,4.572Z" transform="translate(5.126 1.569)"/>
        <path id="Path_12080" data-name="Path 12080" class="cls-23" d="M1.356.069,1.142,1.827S.482,2.463,0,1.386L1.118,0Z" transform="translate(6.299 0.017)"/>
        <path id="Path_12081" data-name="Path 12081" class="cls-24" d="M.762,1.826.976.068.738,0,.725.019C.463.707.15,1.531.005,1.909A.615.615,0,0,0,.762,1.826Z" transform="translate(6.679 0.018)"/>
      </g>
      <g id="Group_5729" data-name="Group 5729" transform="translate(0.034 12.52)">
        <path id="Path_12145" data-name="Path 12145" class="cls-25" d="M1.627.154,12.906.075A1.56,1.56,0,0,1,14.5,1.631,1.615,1.615,0,0,1,12.884,3.21L1.6,3.289A1.56,1.56,0,0,1,.01,1.733,1.615,1.615,0,0,1,1.627.154Z" transform="matrix(-0.934, -0.356, 0.356, -0.934, 16.834, 8.378)"/>
        <path id="Path_12082" data-name="Path 12082" class="cls-26" d="M0,.967,13.56,6.076h0a1.56,1.56,0,0,0-.935-2.022L2.058.109A1.615,1.615,0,0,0,0,.967Z" transform="translate(3.882 0.679)"/>
        <path id="Path_12083" data-name="Path 12083" class="cls-21" d="M.7,0,0,.914,2.949,3.039l.013-.028a1.494,1.494,0,0,0,1.37.033,1.4,1.4,0,0,0,.641-1.9A1.727,1.727,0,0,0,3.556.185Z" transform="translate(1.276 0.377)"/>
        <path id="Path_12084" data-name="Path 12084" class="cls-22" d="M4.677,1.138A1.727,1.727,0,0,0,3.261.184L.4,0,0,.528,4.707,2.362A1.382,1.382,0,0,0,4.677,1.138Z" transform="translate(1.571 0.378)"/>
        <path id="Path_12085" data-name="Path 12085" class="cls-25" d="M.077,0l1.8.292s.629.672-.5,1.085L0,.228Z"/>
        <path id="Path_12086" data-name="Path 12086" class="cls-26" d="M1.875.292.077,0,0,.228.017.242l1.915.79A.577.577,0,0,0,1.875.292Z"/>
      </g>
      <g id="Group_5730" data-name="Group 5730" transform="translate(4.213 21.031)">
        <path id="Path_12146" data-name="Path 12146" class="cls-27" d="M1.552-.009l11.11.154a1.64,1.64,0,0,1,1.6,1.613,1.535,1.535,0,0,1-1.56,1.57L1.6,3.175a1.64,1.64,0,0,1-1.6-1.613A1.535,1.535,0,0,1,1.552-.009Z" transform="matrix(-0.7, 0.714, -0.714, -0.7, 14.359, 2.426)"/>
        <path id="Path_12087" data-name="Path 12087" class="cls-28" d="M.48,10.5,10.639.476h0A1.64,1.64,0,0,0,8.365.493L.481,8.323A1.533,1.533,0,0,0,.48,10.5Z" transform="translate(2.61 0.852)"/>
        <path id="Path_12088" data-name="Path 12088" class="cls-21" d="M.009,3.362l.585.99L3.758,2.583,3.737,2.56a1.4,1.4,0,0,0,.571-1.209A1.455,1.455,0,0,0,2.765.01,1.711,1.711,0,0,0,1.307.888Z" transform="translate(1.135 9.184)"/>
        <path id="Path_12089" data-name="Path 12089" class="cls-22" d="M2.765.01A1.711,1.711,0,0,0,1.307.888L.009,3.362l.338.572L3.93.478A1.484,1.484,0,0,0,2.765.01Z" transform="translate(1.135 9.184)"/>
        <path id="Path_12090" data-name="Path 12090" class="cls-27" d="M0,1.52.988.035s.882-.289.828.88L.189,1.681Z" transform="translate(0.034 12.566)"/>
        <path id="Path_12091" data-name="Path 12091" class="cls-28" d="M.988.035,0,1.52l.185.16.02-.009L1.708.283A.616.616,0,0,0,.988.035Z" transform="translate(0.034 12.566)"/>
      </g>
      <path id="Path_12147" data-name="Path 12147" class="cls-29" d="M1.6.169,12.669.032A1.54,1.54,0,0,1,14.225,1.61h0a1.635,1.635,0,0,1-1.6,1.617L1.561,3.364A1.54,1.54,0,0,1,0,1.786,1.635,1.635,0,0,1,1.6.169Z" transform="translate(22.386 21.308) rotate(64.967)"/>
      <path id="Path_12092" data-name="Path 12092" class="cls-30" d="M7.062,12.83.928,0h0A1.54,1.54,0,0,0,.157,2.08l4.808,9.971A1.633,1.633,0,0,0,7.062,12.83Z" transform="translate(19.842 22.066)"/>
      <path id="Path_12093" data-name="Path 12093" class="cls-21" d="M2.369,4.7l1.155-.18L2.917,1.01l-.029.011A1.448,1.448,0,0,0,1.922.07,1.459,1.459,0,0,0,.1,1,1.638,1.638,0,0,0,.437,2.638Z" transform="translate(25.008 32.391)"/>
      <path id="Path_12094" data-name="Path 12094" class="cls-22" d="M.1.9A1.639,1.639,0,0,0,.437,2.537L2.368,4.6l.668-.1L.95,0A1.422,1.422,0,0,0,.1.9Z" transform="translate(25.008 32.491)"/>
      <path id="Path_12095" data-name="Path 12095" class="cls-30" d="M1.09,2,0,.575S.028-.331,1.135.135l.173,1.755Z" transform="translate(27.386 36.648)"/>
      <path id="Path_12096" data-name="Path 12096" class="cls-29" d="M0,.569,1.09,1.994l.218-.111,0-.021C1.009,1.185.652.374.489,0A.586.586,0,0,0,0,.569Z" transform="translate(27.386 36.654)"/>
    </g>
    <g id="Group_5732" data-name="Group 5732" transform="translate(1129.316 1812.284) rotate(-11)">
      <path id="Path_12098" data-name="Path 12098" class="cls-31" d="M9.041-.021,8.4.165-.051,21.8,29.66,8.615Zm1.723,5.262,8.029,3.307L7.456,13.841Z" transform="translate(0 0)"/>
      <line id="Line_422" data-name="Line 422" class="cls-32" y1="2.196" x2="0.873" transform="translate(8.784 0.277)"/>
      <line id="Line_423" data-name="Line 423" class="cls-32" y1="1.549" x2="0.62" transform="translate(10.816 0.989)"/>
      <line id="Line_424" data-name="Line 424" class="cls-32" y1="2.196" x2="0.873" transform="translate(12.274 1.701)"/>
      <line id="Line_425" data-name="Line 425" class="cls-32" y1="1.549" x2="0.62" transform="translate(14.305 2.413)"/>
      <line id="Line_426" data-name="Line 426" class="cls-32" y1="2.196" x2="0.873" transform="translate(15.649 3.125)"/>
      <line id="Line_427" data-name="Line 427" class="cls-32" y1="1.549" x2="0.62" transform="translate(17.681 3.837)"/>
      <line id="Line_428" data-name="Line 428" class="cls-32" y1="2.196" x2="0.873" transform="translate(19.025 4.549)"/>
      <line id="Line_429" data-name="Line 429" class="cls-32" y1="1.549" x2="0.62" transform="translate(21.057 5.261)"/>
      <line id="Line_430" data-name="Line 430" class="cls-32" y1="2.196" x2="0.873" transform="translate(22.446 5.996)"/>
      <line id="Line_431" data-name="Line 431" class="cls-32" y1="2.196" x2="0.873" transform="translate(25.89 7.397)"/>
      <line id="Line_432" data-name="Line 432" class="cls-32" y1="1.549" x2="0.62" transform="translate(24.478 6.708)"/>
    </g>
  </g>
</svg>
