<svg xmlns="http://www.w3.org/2000/svg" width="25.246" height="25.246" viewBox="0 0 25.246 25.246">
  <g id="Group_7099" data-name="Group 7099" transform="translate(-881.55 -890.442)">
    <path id="Path_12169" data-name="Path 12169" d="M1215.046,848.165a12.623,12.623,0,1,1,12.622-12.622A12.637,12.637,0,0,1,1215.046,848.165Zm0-24.044a11.421,11.421,0,1,0,11.42,11.421A11.434,11.434,0,0,0,1215.046,824.121Z" transform="translate(-320.872 67.523)" fill="#b715a4" style="isolation: isolate"/>
    <g id="Group_5769" data-name="Group 5769" transform="translate(887.374 895.106)" style="isolation: isolate">
      <path id="Path_12170" data-name="Path 12170" d="M1221.174,831.44h-.141l.141,0v-.016c-.007-.149-.011-.307-.014-.481a1.8,1.8,0,0,0-1.693-1.763,6.305,6.305,0,0,1-4.3-1.816,1.145,1.145,0,0,0-1.564.011,6.292,6.292,0,0,1-4.287,1.805,1.8,1.8,0,0,0-1.694,1.763c0,.174-.007.331-.015.516a17.086,17.086,0,0,0,.694,6.235,8.019,8.019,0,0,0,1.923,3,10.019,10.019,0,0,0,3.747,2.217,1.344,1.344,0,0,0,.174.048,1.316,1.316,0,0,0,.247.025,1.28,1.28,0,0,0,.249-.026,1.327,1.327,0,0,0,.169-.046,10.044,10.044,0,0,0,3.745-2.22,8.032,8.032,0,0,0,1.922-3A17.079,17.079,0,0,0,1221.174,831.44Zm-6.744,10.474-.063-.141a7.441,7.441,0,0,1-4.941-4.5,15.876,15.876,0,0,1-.62-5.805c.007-.162.011-.329.014-.514a.6.6,0,0,1,.561-.581,8.264,8.264,0,0,0,2.781-.612,2.414,2.414,0,0,1,4.457,0,8.263,8.263,0,0,0,2.781.612.6.6,0,0,1,.561.581c0,.186.007.354.013.509a15.841,15.841,0,0,1-.622,5.807,7.461,7.461,0,0,1-4.939,4.5l.017.141Z" transform="translate(-1207.591 -827.058)" fill="#b715a4"/>
      <path id="Path_12171" data-name="Path 12171" d="M1218.117,834.575a4.038,4.038,0,1,0-4.038,4.038A4.042,4.042,0,0,0,1218.117,834.575Zm-1.2,0a2.838,2.838,0,1,1-2.838-2.838A2.842,2.842,0,0,1,1216.917,834.575Z" transform="translate(-1207.28 -826.617)" fill="#b715a4"/>
      <path id="Path_12172" data-name="Path 12172" d="M1215.307,832.8h0a.594.594,0,0,0-.425.175l-1.71,1.71-.392-.392a.6.6,0,0,0-.848.85l.816.814a.6.6,0,0,0,.848,0l2.135-2.134a.6.6,0,0,0,.175-.426.6.6,0,0,0-.6-.6Z" transform="translate(-1207.063 -826.33)" fill="#b715a4"/>
    </g>
  </g>
</svg>
