<svg xmlns="http://www.w3.org/2000/svg" width="25.246" height="25.246" viewBox="0 0 25.246 25.246">
  <g id="Group_7134" data-name="Group 7134" transform="translate(-1119 -351)">
    <path id="Path_12177" data-name="Path 12177" d="M1330.526,998.7a12.623,12.623,0,1,1,12.623-12.622A12.637,12.637,0,0,1,1330.526,998.7Zm0-24.044a11.421,11.421,0,1,0,11.42,11.421A11.434,11.434,0,0,0,1330.526,974.66Z" transform="translate(-198.903 -622.458)" fill="#9e61d1" style="isolation: isolate"/>
    <g id="Group_7123" data-name="Group 7123" transform="translate(-5069 -1674.818)">
      <g id="Group_7120" data-name="Group 7120" transform="translate(6191 2028.942)">
        <g id="Group_7119" data-name="Group 7119">
          <rect id="Rectangle_4352" data-name="Rectangle 4352" width="19" height="19" transform="translate(0 -0.124)" fill="none"/>
          <g id="Group_7113" data-name="Group 7113" transform="translate(1.254 3.83)">
            <path id="Path_13995" data-name="Path 13995" d="M1611.045,138.825H1602l7.007-11.679h9l-1.168,2.61s-7.656-.62-9.041,3.057c-.476,1.644.908,3.071,4.153,4.369Z" transform="translate(-1602.004 -127.146)" fill="#9e61d1"/>
            <path id="Path_13996" data-name="Path 13996" d="M1916.831,235.206l-5.061-3.114,8.695-3.922Z" transform="translate(-1903.768 -225.56)" fill="#9e61d1"/>
          </g>
        </g>
      </g>
    </g>
  </g>
</svg>
