<svg xmlns="http://www.w3.org/2000/svg" width="30" height="30" viewBox="0 0 30 30">
  <g id="Group_7116" data-name="Group 7116" transform="translate(-6071 -2029)">
    <rect id="Rectangle_4349" data-name="Rectangle 4349" width="30" height="30" transform="translate(6071 2029)" fill="none"/>
    <path id="Path_11091" data-name="Path 11091" d="M2943.882,37.944l-2.088-2.444-2.088,2.444a10.793,10.793,0,0,0-3.8,19.634,8.544,8.544,0,0,1,1.795-13.7,6.509,6.509,0,0,0,3.72,11.565,3.666,3.666,0,1,1,.75,0,6.509,6.509,0,0,0,3.721-11.565,8.545,8.545,0,0,1,1.795,13.7,10.793,10.793,0,0,0-3.8-19.634Z" transform="translate(3144 1997.5)" fill="#c92868"/>
  </g>
</svg>
