<svg xmlns="http://www.w3.org/2000/svg" width="25" height="25" viewBox="0 0 25 25">
  <g id="Group_7111" data-name="Group 7111" transform="translate(-987 -351)">
    <path id="Path_12169" data-name="Path 12169" d="M1214.922,847.919a12.5,12.5,0,1,1,12.5-12.5A12.514,12.514,0,0,1,1214.922,847.919Zm0-23.809a11.31,11.31,0,1,0,11.309,11.31A11.323,11.323,0,0,0,1214.922,824.11Z" transform="translate(-215.422 -471.919)" fill="#c92868" style="isolation: isolate"/>
    <g id="Group_5958" data-name="Group 5958" transform="translate(300 -546)">
      <path id="Path_11091" data-name="Path 11091" d="M2939.808,37.171,2938.38,35.5l-1.427,1.671a7.379,7.379,0,0,0-2.6,13.424,5.842,5.842,0,0,1,1.227-9.369,4.451,4.451,0,0,0,2.544,7.907,2.506,2.506,0,1,1,.513,0,4.45,4.45,0,0,0,2.544-7.907,5.842,5.842,0,0,1,1.227,9.369,7.379,7.379,0,0,0-2.6-13.424Z" transform="translate(-2239.046 866.469)" fill="#c92868"/>
      <rect id="Rectangle_2865" data-name="Rectangle 2865" width="20" height="20" transform="translate(689 900)" fill="none"/>
    </g>
  </g>
</svg>
