<svg xmlns="http://www.w3.org/2000/svg" width="22.611" height="32.633" viewBox="0 0 22.611 32.633">
  <g id="Group_5247" data-name="Group 5247" transform="translate(-1345.328 248.997)">
    <path id="Path_11162" data-name="Path 11162" d="M1355.635-124.494a1.888,1.888,0,0,0-.208-.067,1.045,1.045,0,0,1-.858-.8,5.1,5.1,0,0,1-.137-.685,2.353,2.353,0,0,0-.685-1.4q-3.894-3.967-7.775-7.948a1.8,1.8,0,0,1-.58-1.816,2.069,2.069,0,0,1,1.05-1.228,4.251,4.251,0,0,1,2.869-.432,5.986,5.986,0,0,1,2.8,1.223c.092.071.187.14.282.208a.567.567,0,0,0,.116.032v-.467q0-5.145,0-10.29a2.7,2.7,0,0,1,2.085-2.638,2.664,2.664,0,0,1,3.032,1.441,3.432,3.432,0,0,1,.289,1.254c.044.826.013,1.656.013,2.484v.323a2.778,2.778,0,0,1,3.116,1.575,8.763,8.763,0,0,1,1.22.009,2.59,2.59,0,0,1,2.041,1.5.279.279,0,0,0,.36.189,2.686,2.686,0,0,1,3.22,2.275.879.879,0,0,0,.055.148v7.586a1.133,1.133,0,0,0-.048.212,6.668,6.668,0,0,1-1.174,3.378,3.954,3.954,0,0,0-.643,2.193,1.586,1.586,0,0,1-.665,1.346,5.21,5.21,0,0,1-.785.394Zm8.329-2.115c.045-.317.077-.6.128-.883a6.045,6.045,0,0,1,.918-2.154,4.509,4.509,0,0,0,.793-2.387c.018-2.443.015-4.887.015-7.33a.646.646,0,0,0-.082-.3.57.57,0,0,0-.641-.311.578.578,0,0,0-.5.577c-.018.4,0,.808-.014,1.211a1.023,1.023,0,0,1-1.013,1.019,1.023,1.023,0,0,1-1.068-.963c-.02-.2-.011-.4-.012-.605,0-.765.006-1.53-.006-2.295a.593.593,0,0,0-.6-.617.63.63,0,0,0-.629.6,2.4,2.4,0,0,0,0,.255c0,.818,0,1.636,0,2.454a1.4,1.4,0,0,1-.052.407,1.019,1.019,0,0,1-1.142.7,1.033,1.033,0,0,1-.9-1.069c-.008-.988,0-1.976,0-2.964,0-.467.01-.935-.007-1.4a.587.587,0,0,0-.6-.577.609.609,0,0,0-.617.566c-.009.095,0,.191,0,.287,0,1.371.013,2.741-.012,4.111a1.443,1.443,0,0,1-.262.755.972.972,0,0,1-1.152.287,1.041,1.041,0,0,1-.669-1.054q0-4.8,0-9.594c0-.59-.214-.9-.624-.891s-.606.3-.606.9q0,6.406,0,12.813a1.086,1.086,0,0,1-.669,1.123,1.132,1.132,0,0,1-1.262-.352c-.621-.594-1.236-1.2-1.91-1.729a4.626,4.626,0,0,0-1.351-.681,2.446,2.446,0,0,0-1.758.005c.074.089.123.156.181.214q3.71,3.794,7.424,7.585a4.049,4.049,0,0,1,1.136,1.955c.025.111.053.221.08.332Z" transform="translate(0 -91.87)"/>
    <path id="Path_11163" data-name="Path 11163" d="M1407.2-212.007a1.143,1.143,0,0,1-.646.967.956.956,0,0,1-1.128-.15q-1.293-1.248-2.539-2.544a1.017,1.017,0,0,1,.057-1.389,1.019,1.019,0,0,1,1.413-.069q1.3,1.244,2.54,2.544A2.261,2.261,0,0,1,1407.2-212.007Z" transform="translate(-53.658 -31.413)"/>
    <path id="Path_11164" data-name="Path 11164" d="M1557.081-134.121c.541,0,1.082,0,1.622,0a1.047,1.047,0,0,1,1.071,1.031,1.049,1.049,0,0,1-1.047,1.059q-1.67.018-3.34,0a1.053,1.053,0,0,1-1.057-1.052,1.057,1.057,0,0,1,1.1-1.041c.276,0,.551,0,.827,0Z" transform="translate(-195.677 -107.551)"/>
    <path id="Path_11165" data-name="Path 11165" d="M1363.79-132.03c-.52,0-1.039,0-1.559,0a1.057,1.057,0,0,1-1.144-1.057,1.04,1.04,0,0,1,1.123-1.038q1.607-.005,3.213,0a1.03,1.03,0,0,1,1.091,1.035,1.031,1.031,0,0,1-1.071,1.059C1364.893-132.023,1364.342-132.03,1363.79-132.03Z" transform="translate(-14.755 -107.546)"/>
    <path id="Path_11166" data-name="Path 11166" d="M1483.97-246.277c0-.551-.006-1.1,0-1.654A1.039,1.039,0,0,1,1485-249a1.042,1.042,0,0,1,1.056,1.047q.02,1.669,0,3.339a1.031,1.031,0,0,1-1.054,1.045,1.029,1.029,0,0,1-1.035-1.058C1483.964-245.175,1483.97-245.726,1483.97-246.277Z" transform="translate(-129.801 0)"/>
    <path id="Path_11167" data-name="Path 11167" d="M1532.367-216.24a1.166,1.166,0,0,1,.948.7,1,1,0,0,1-.241,1.17c-.657.665-1.32,1.324-1.981,1.985-.12.12-.236.246-.367.353a1.032,1.032,0,0,1-1.415-.079,1,1,0,0,1-.031-1.413q1.172-1.216,2.393-2.384A2.465,2.465,0,0,1,1532.367-216.24Z" transform="translate(-171.966 -30.669)"/>
  </g>
</svg>
