<svg xmlns="http://www.w3.org/2000/svg" xmlns:xlink="http://www.w3.org/1999/xlink" width="30.379" height="30" viewBox="0 0 30.379 30">
  <defs>
    <filter id="Path_3063" x="0" y="3.941" width="29.879" height="13.852" filterUnits="userSpaceOnUse">
      <feOffset dy="1" input="SourceAlpha"/>
      <feGaussianBlur stdDeviation="0.5" result="blur"/>
      <feFlood flood-opacity="0.063"/>
      <feComposite operator="in" in2="blur"/>
      <feComposite in="SourceGraphic"/>
    </filter>
    <filter id="Path_3064" x="0" y="15.562" width="29.878" height="12.012" filterUnits="userSpaceOnUse">
      <feOffset dy="1" input="SourceAlpha"/>
      <feGaussianBlur stdDeviation="0.5" result="blur-2"/>
      <feFlood flood-opacity="0.063"/>
      <feComposite operator="in" in2="blur-2"/>
      <feComposite in="SourceGraphic"/>
    </filter>
    <filter id="Path_3065" x="0.079" y="8.748" width="11.671" height="14.038" filterUnits="userSpaceOnUse">
      <feOffset dy="1" input="SourceAlpha"/>
      <feGaussianBlur stdDeviation="0.5" result="blur-3"/>
      <feFlood flood-opacity="0.063"/>
      <feComposite operator="in" in2="blur-3"/>
      <feComposite in="SourceGraphic"/>
    </filter>
    <filter id="Path_3066" x="18.173" y="8.748" width="11.664" height="14.032" filterUnits="userSpaceOnUse">
      <feOffset dy="1" input="SourceAlpha"/>
      <feGaussianBlur stdDeviation="0.5" result="blur-4"/>
      <feFlood flood-opacity="0.063"/>
      <feComposite operator="in" in2="blur-4"/>
      <feComposite in="SourceGraphic"/>
    </filter>
  </defs>
  <g id="Group_5967" data-name="Group 5967" transform="translate(-841.621 -988)">
    <g id="Group_5959" data-name="Group 5959" transform="translate(842 988)">
      <rect id="Rectangle_2866" data-name="Rectangle 2866" width="30" height="30" fill="none"/>
    </g>
    <g id="Group_5964" data-name="Group 5964" transform="translate(843.121 992.441)">
      <g transform="matrix(1, 0, 0, 1, -1.5, -4.44)" filter="url(#Path_3063)">
        <path id="Path_3063-2" data-name="Path 3063" d="M0,2.275v-.2c.04-.1.086-.2.119-.3A2.333,2.333,0,0,1,2.084.1,8.29,8.29,0,0,1,3.363.007Q13.58,0,23.8,0a6.674,6.674,0,0,1,.725.033,2.573,2.573,0,0,1,2.15,1.424c.349.692.257,1.048-.4,1.464q-6.083,3.848-12.159,7.708a1.118,1.118,0,0,1-1.339,0Q6.657,6.732.528,2.835A2.854,2.854,0,0,1,0,2.275Z" transform="translate(1.5 4.44)" fill="#0699a5"/>
      </g>
      <g transform="matrix(1, 0, 0, 1, -1.5, -4.44)" filter="url(#Path_3064)">
        <path id="Path_3064-2" data-name="Path 3064" d="M0,183.175v-.2a2.751,2.751,0,0,1,.488-.508c3.145-1.991,6.3-3.963,9.449-5.948a1.083,1.083,0,0,1,1.233-.026c.6.369,1.193.739,1.78,1.121a.8.8,0,0,0,.95.033c.64-.409,1.286-.8,1.912-1.227a.851.851,0,0,1,1.035-.026q4.787,3.037,9.574,6.06a.8.8,0,0,1,.376,1.095,2.3,2.3,0,0,1-1.292,1.411,3.938,3.938,0,0,1-1.675.284H3.033c-.231,0-.462-.007-.692-.026A2.5,2.5,0,0,1,.073,183.36C.046,183.294.02,183.235,0,183.175Z" transform="translate(1.5 -160.17)" fill="#0699a5"/>
      </g>
      <g transform="matrix(1, 0, 0, 1, -1.5, -4.44)" filter="url(#Path_3065)">
        <path id="Path_3065-2" data-name="Path 3065" d="M1.2,72.9c2.9,1.846,5.763,3.666,8.671,5.519C6.963,80.265,4.1,82.092,1.2,83.938Z" transform="translate(0.38 -63.65)" fill="#0699a5"/>
      </g>
      <g transform="matrix(1, 0, 0, 1, -1.5, -4.44)" filter="url(#Path_3066)">
        <path id="Path_3066-2" data-name="Path 3066" d="M284.264,72.9V83.932L275.6,78.419C278.495,76.579,281.35,74.759,284.264,72.9Z" transform="translate(-255.93 -63.65)" fill="#0699a5"/>
      </g>
    </g>
  </g>
</svg>
