<svg xmlns="http://www.w3.org/2000/svg" width="18.346" height="23.928" viewBox="0 0 18.346 23.928">
  <g id="i-mul-chart-btn" transform="translate(-60.75 0.25)">
    <path id="Path_12688" data-name="Path 12688" d="M78.377,5.424,73.422.469A1.591,1.591,0,0,0,72.289,0H62.6A1.6,1.6,0,0,0,61,1.6V21.827a1.6,1.6,0,0,0,1.6,1.6H77.244a1.6,1.6,0,0,0,1.6-1.6V6.556a1.591,1.591,0,0,0-.469-1.132ZM76.5,5.491H73.583a.229.229,0,0,1-.229-.229V2.343Zm.742,16.564H62.6a.229.229,0,0,1-.229-.229V1.6a.229.229,0,0,1,.229-.229h9.38V5.262a1.6,1.6,0,0,0,1.6,1.6h3.889V21.827A.229.229,0,0,1,77.244,22.055Z" fill="#212529" stroke="#202327" stroke-width="0.5"/>
    <path id="Path_12689" data-name="Path 12689" d="M257.786,200.373h4.373a.686.686,0,1,0,0-1.373h-4.373a.686.686,0,1,0,0,1.373Z" transform="translate(-187.127 -189.894)" fill="#212529" stroke="#202327" stroke-width="0.5"/>
    <path id="Path_12690" data-name="Path 12690" d="M257.786,300.373h4.373a.686.686,0,1,0,0-1.373h-4.373a.686.686,0,1,0,0,1.373Z" transform="translate(-187.127 -285.318)" fill="#212529" stroke="#202327" stroke-width="0.5"/>
    <path id="Path_12691" data-name="Path 12691" d="M262.179,399h-4.393a.686.686,0,1,0,0,1.373h4.393a.686.686,0,1,0,0-1.373Z" transform="translate(-187.127 -380.743)" fill="#212529" stroke="#202327" stroke-width="0.5"/>
    <path id="Path_12692" data-name="Path 12692" d="M132.028,168.965l-1.583,1.583-.373-.373a.686.686,0,0,0-.971.971l.859.859a.686.686,0,0,0,.971,0L133,169.935a.686.686,0,0,0-.971-.971Z" transform="translate(-64.794 -161.041)" fill="#212529" stroke="#202327" stroke-width="0.5"/>
    <path id="Path_12693" data-name="Path 12693" d="M132.028,276.6l-1.583,1.583-.373-.373a.686.686,0,0,0-.971.971l.859.859a.686.686,0,0,0,.971,0L133,277.572a.686.686,0,1,0-.971-.971Z" transform="translate(-64.794 -263.753)" fill="#212529" stroke="#202327" stroke-width="0.5"/>
    <path id="Path_12694" data-name="Path 12694" d="M132.028,376.6l-1.583,1.583-.373-.373a.686.686,0,0,0-.971.971l.859.859a.686.686,0,0,0,.971,0L133,377.572a.686.686,0,1,0-.971-.971Z" transform="translate(-64.794 -359.177)" fill="#212529" stroke="#202327" stroke-width="0.5"/>
  </g>
</svg>
