<svg xmlns="http://www.w3.org/2000/svg" width="22.503" height="30.693" viewBox="0 0 22.503 30.693">
  <g id="Group_5270" data-name="Group 5270" transform="translate(-878.009 122.115)">
    <path id="Path_11146" data-name="Path 11146" d="M896.456-55.552V-58.63a22.76,22.76,0,0,1,2.546.125,1.943,1.943,0,0,1,1.508,2q0,6.3,0,12.608,0,4.848,0,9.7a2.054,2.054,0,0,1-2.2,2.2H880.23a2.054,2.054,0,0,1-2.221-2.208q0-11.088,0-22.176a2.047,2.047,0,0,1,2.215-2.213c.606,0,1.211,0,1.835,0v3.045h-1.419c-.572,0-.611.04-.611.622q0,9.648,0,19.3c0,.534.055.59.581.59h17.312c.513,0,.566-.053.566-.569q0-9.712,0-19.424c0-.438-.077-.512-.527-.512Z" transform="translate(0 -59.422)"/>
    <path id="Path_11147" data-name="Path 11147" d="M961.033-119.072c.3-1.933,1.431-3.04,3.1-3.043,1.623,0,2.757,1.12,3.07,3.071h1.84a1.049,1.049,0,0,1,1.2,1.19q0,1.391,0,2.783a1.033,1.033,0,0,1-1.112,1.121q-5.021,0-10.043,0a1.023,1.023,0,0,1-1.106-1.093q-.008-1.455,0-2.91a1.029,1.029,0,0,1,1.11-1.09c.618,0,1.237,0,1.855,0A.446.446,0,0,0,961.033-119.072Zm3.089,1.163a1.171,1.171,0,0,0,1.141-1.183,1.175,1.175,0,0,0-1.142-1.117,1.171,1.171,0,0,0-1.157,1.167A1.173,1.173,0,0,0,964.122-117.908Z" transform="translate(-74.854 0)"/>
    <path id="Path_11148" data-name="Path 11148" d="M1072.993,71.84c-.9,0-1.79-.008-2.685,0-.282,0-.376-.1-.365-.375.017-.436.013-.874,0-1.31-.006-.24.066-.346.325-.345q2.732.011,5.465,0c.251,0,.341.092.334.339-.012.447-.015.9,0,1.342.009.27-.1.35-.36.348C1074.8,71.833,1073.9,71.84,1072.993,71.84Z" transform="translate(-179.649 -179.646)"/>
    <path id="Path_11149" data-name="Path 11149" d="M1073.044,149.815c.895,0,1.79.007,2.685,0,.258,0,.368.077.359.348-.015.458-.01.916,0,1.374,0,.217-.082.306-.3.305q-2.764-.006-5.529,0c-.227,0-.295-.106-.291-.315.008-.458.012-.916,0-1.374-.007-.248.082-.34.334-.337C1071.212,149.821,1072.128,149.815,1073.044,149.815Z" transform="translate(-179.668 -254.522)"/>
    <path id="Path_11150" data-name="Path 11150" d="M1073.023,229.8c.884,0,1.769.009,2.652-.005.286,0,.408.076.394.378-.02.447-.011.895,0,1.342,0,.215-.077.308-.3.308q-2.765-.006-5.529,0c-.226,0-.3-.1-.293-.313.008-.447.015-.9,0-1.342-.01-.275.08-.377.364-.373C1071.212,229.806,1072.117,229.8,1073.023,229.8Z" transform="translate(-179.649 -329.384)"/>
    <path id="Path_11151" data-name="Path 11151" d="M944.881,40.634c.839-.874,1.627-1.7,2.417-2.518.311-.323.365-.326.717-.057.542.415.542.415.131.968q-1.315,1.769-2.629,3.539c-.393.528-.825.527-1.2-.005-.612-.872-1.21-1.752-1.833-2.616-.191-.264-.189-.457.078-.641a.272.272,0,0,0,.024-.021c.522-.454.522-.455,1,.029C944.011,39.744,944.434,40.177,944.881,40.634Z" transform="translate(-60.224 -149.741)"/>
    <path id="Path_11152" data-name="Path 11152" d="M944.9,120.624c.831-.866,1.619-1.688,2.409-2.51.31-.322.365-.325.717-.055.542.415.541.414.129.968q-1.315,1.769-2.629,3.539c-.392.527-.824.525-1.2-.008-.618-.88-1.225-1.768-1.85-2.643a.377.377,0,0,1,.071-.6c.571-.492.564-.5,1.095.038C944.056,119.772,944.468,120.186,944.9,120.624Z" transform="translate(-60.237 -224.62)"/>
    <path id="Path_11153" data-name="Path 11153" d="M944.9,200.894c.175-.184.32-.337.466-.49.664-.692,1.332-1.379,1.989-2.077a.385.385,0,0,1,.6-.062c.613.469.619.461.156,1.083q-1.3,1.744-2.591,3.488c-.39.524-.822.519-1.2-.017-.618-.88-1.225-1.768-1.85-2.643a.376.376,0,0,1,.078-.6c.567-.486.561-.493,1.094.045Z" transform="translate(-60.234 -299.765)"/>
  </g>
</svg>
