<svg xmlns="http://www.w3.org/2000/svg" width="25" height="25" viewBox="0 0 25 25">
  <g id="Group_7109" data-name="Group 7109" transform="translate(-855 -428)">
    <path id="Path_13978" data-name="Path 13978" d="M1214.922,847.919a12.5,12.5,0,1,1,12.5-12.5A12.514,12.514,0,0,1,1214.922,847.919Zm0-23.809a11.31,11.31,0,1,0,11.309,11.31A11.323,11.323,0,0,0,1214.922,824.11Z" transform="translate(-347.422 -394.919)" fill="#315fdb" style="isolation: isolate"/>
    <path id="Path_13977" data-name="Path 13977" d="M474.818-391.8a2.624,2.624,0,0,0-1.562-1.84l-.015-.006a1.737,1.737,0,0,0-1.986.342l-.014.013c-.12.12-.227.237-.33.349-.4.44-.671.731-1.172.67-.541-.067-1.213-.834-1.427-1.125a1.311,1.311,0,0,0-1.019-.425h-.016a3.366,3.366,0,0,0-1.255.374,2.541,2.541,0,0,0-1.379,2.2v.014c.03,1.747,0,6.265,0,6.442a.668.668,0,0,0,.224.57.541.541,0,0,0,.557-.019,2.346,2.346,0,0,0,1.294-1.784v-5.151a.639.639,0,0,1,.141-.4.266.266,0,0,1,.205-.07c.106.005.109.007.321.229.128.135.323.338.641.634.9.838,1.183.872,1.941.857a2.316,2.316,0,0,0,1.587-.849l.012-.012c.177-.178.318-.323.431-.441.4-.41.42-.422.516-.4l.02,0c.237.041.356.061.367.49.015.579,0,9.668,0,9.926a.612.612,0,0,1-.663.582H467.6a1.044,1.044,0,0,1-.4-.1.652.652,0,0,1-.375-.647v-.007a3.386,3.386,0,0,1,.847-1.269l2.341-2.886.239.169a.384.384,0,0,0,.394.063c.2-.106.176-.386.168-.482-.056-.92-.148-1.513-.168-1.637a.419.419,0,0,0-.107-.308.474.474,0,0,0-.407-.126h-.009c-.44.06-1.729.2-1.742.2h-.005a.429.429,0,0,0-.332.224.39.39,0,0,0,.083.4l.013.017.205.173-3.134,3.936a2.63,2.63,0,0,0-.466.985,2.611,2.611,0,0,0,.555,2.286l.017.022c.268.347.766.993,2.823.993,2.016-.015,4.227,0,4.252,0a2.789,2.789,0,0,0,1.245-.36,2.752,2.752,0,0,0,1.291-2.452v-9.155A3.708,3.708,0,0,0,474.818-391.8Z" transform="translate(398.225 826.821)" fill="#315fdb"/>
  </g>
</svg>
