<svg xmlns="http://www.w3.org/2000/svg" width="30" height="30" viewBox="0 0 30 30">
  <g id="Group_7115" data-name="Group 7115" transform="translate(-6012 -2029)">
    <path id="Path_13979" data-name="Path 13979" d="M480.793-390.535a4.238,4.238,0,0,0-2.479-2.99l-.024-.009a2.71,2.71,0,0,0-3.152.556l-.022.02c-.191.2-.36.385-.524.568-.641.716-1.065,1.189-1.86,1.089-.859-.108-1.924-1.355-2.264-1.828a2.064,2.064,0,0,0-1.618-.69h-.025a5.244,5.244,0,0,0-1.992.607,4.134,4.134,0,0,0-2.189,3.581v.023c.048,2.839,0,10.183,0,10.471a1.1,1.1,0,0,0,.356.927.842.842,0,0,0,.883-.031,3.808,3.808,0,0,0,2.053-2.9v-8.372a1.054,1.054,0,0,1,.225-.65.416.416,0,0,1,.326-.114c.168.009.174.012.509.372.2.219.512.55,1.017,1.031,1.429,1.361,1.877,1.418,3.081,1.392a3.656,3.656,0,0,0,2.518-1.38l.019-.02c.281-.289.5-.526.685-.716.629-.666.667-.685.819-.658l.031.005c.376.066.565.1.583.8.024.941,0,15.714,0,16.134a.983.983,0,0,1-1.053.946h-7.362a1.625,1.625,0,0,1-.63-.158,1.063,1.063,0,0,1-.595-1.052v-.011a5.516,5.516,0,0,1,1.345-2.062l3.715-4.69.379.275a.6.6,0,0,0,.625.1c.318-.172.28-.627.266-.784-.089-1.495-.235-2.46-.267-2.661a.691.691,0,0,0-.169-.5.742.742,0,0,0-.646-.205l-.015,0c-.7.1-2.744.318-2.764.32h-.008a.679.679,0,0,0-.527.364.646.646,0,0,0,.132.654l.02.027.325.281-4.974,6.4a4.313,4.313,0,0,0-.74,1.6,4.322,4.322,0,0,0,.881,3.716l.027.037c.425.564,1.215,1.615,4.481,1.615,3.2-.024,6.709,0,6.748,0a4.344,4.344,0,0,0,1.975-.584,4.506,4.506,0,0,0,2.05-3.986v-14.88A6.167,6.167,0,0,0,480.793-390.535Z" transform="translate(5554.357 2425.821)" fill="#315fdb"/>
    <rect id="Rectangle_4349" data-name="Rectangle 4349" width="30" height="30" transform="translate(6012 2029)" fill="none"/>
  </g>
</svg>
