<svg xmlns="http://www.w3.org/2000/svg" width="14.927" height="16.516" viewBox="0 0 14.927 16.516">
  <g id="Group_5229" data-name="Group 5229" transform="translate(814.005 158.431)">
    <path id="Path_11120" data-name="Path 11120" d="M-806.543-141.92c-1.093,0-2.186.016-3.279,0a2.415,2.415,0,0,1-2.311-1.468,2.494,2.494,0,0,1-.2-1.072q0-4.192,0-8.384c0-.117-.017-.235-.017-.352,0-.186-.1-.255-.272-.26-.19-.006-.38-.009-.569-.018a.865.865,0,0,1-.819-.841.882.882,0,0,1,.847-.8c.936,0,1.872,0,2.808,0,.454,0,.465-.013.473-.474.008-.432,0-.865.037-1.294a1.643,1.643,0,0,1,1.648-1.53q1.649-.02,3.3-.01a1.7,1.7,0,0,1,1.691,1.707c0,.419,0,.838.009,1.256,0,.3.05.354.338.357.916.011,1.832.01,2.748.014.1,0,.21,0,.314.011a.771.771,0,0,1,.715.792.764.764,0,0,1-.693.79c-.207.024-.418.023-.627.03-.25.008-.316.072-.318.338,0,.733,0,1.466,0,2.2,0,2.127-.027,4.255.01,6.381a2.564,2.564,0,0,1-2.655,2.635c-1.06-.014-2.12,0-3.181,0Zm-4.123-6.832v.53c0,1.256,0,2.513,0,3.769a.817.817,0,0,0,.883.882h.177c2.035,0,4.07-.011,6.1.007.758.007,1.113-.265,1.112-1.106-.005-2.755,0-5.509,0-8.264,0-.5-.015-.522-.518-.523q-3.69-.006-7.381,0c-.316,0-.37.063-.378.385,0,.078,0,.157,0,.236Q-810.667-150.794-810.667-148.752Zm4.139-7.97v-.007c-.438,0-.876,0-1.314,0-.278,0-.345.071-.346.352,0,.314,0,.627.006.941,0,.263.052.333.32.337.9.012,1.8.008,2.705.008a.265.265,0,0,0,.3-.291c0-.34.008-.68-.01-1.019-.014-.265-.077-.316-.343-.319C-805.652-156.726-806.09-156.722-806.528-156.722Z" transform="translate(0 0)" fill="#ff6565"/>
    <path id="Path_11121" data-name="Path 11121" d="M-687.033,13.856c0-.792-.009-1.584.007-2.376a1.051,1.051,0,0,1,.156-.512.727.727,0,0,1,.8-.34.8.8,0,0,1,.648.613,1.555,1.555,0,0,1,.045.408c0,1.538.006,3.076-.006,4.615a1.187,1.187,0,0,1-.153.554.782.782,0,0,1-.867.352.778.778,0,0,1-.593-.7c-.028-.693-.027-1.387-.037-2.08,0-.177,0-.353,0-.53Z" transform="translate(-121.981 -162.401)" fill="#ff6565"/>
    <path id="Path_11122" data-name="Path 11122" d="M-602.254,14.168c0-.818-.009-1.636,0-2.453a.807.807,0,0,1,.816-.848.813.813,0,0,1,.793.682,3.441,3.441,0,0,1,.029.489q0,2.169,0,4.337a2.391,2.391,0,0,1-.021.332.817.817,0,0,1-.841.719.8.8,0,0,1-.776-.787c-.017-.785-.009-1.57-.012-2.355,0-.039,0-.078,0-.118Z" transform="translate(-203.425 -162.648)" fill="#ff6565"/>
  </g>
</svg>
