<svg xmlns="http://www.w3.org/2000/svg" width="323.672" height="40.652" viewBox="0 0 323.672 40.652">
  <defs>
    <style>
      .cls-1 {
        fill: #2f9fd1;
      }

      .cls-2 {
        fill: #ca2358;
      }

      .cls-3 {
        fill: #8b8c8b;
      }

      .cls-4, .cls-5 {
        fill: #1a1a1a;
      }

      .cls-4 {
        font-size: 25px;
        font-family: Arial-BoldMT, Arial;
        font-weight: 700;
      }

      .cls-5 {
        font-size: 22px;
        font-family: PingFangTC-Semibold, PingFang TC;
        font-weight: 600;
      }
    </style>
  </defs>
  <g id="Group_6431" data-name="Group 6431" transform="translate(-39.508 -52.26)">
    <g id="Group_994" data-name="Group 994" transform="translate(39.508 52.26)">
      <g id="Group_992" data-name="Group 992" transform="translate(0)">
        <path id="Path_3067" data-name="Path 3067" class="cls-1" d="M157.951,12.293,153.533,0H145.4V9.6S154.745,10.992,157.951,12.293Z" transform="translate(-133.653)"/>
        <path id="Path_3068" data-name="Path 3068" class="cls-1" d="M354.4,12.721,359.5,0h8.569V18.35l-6.235-3.029V11.6l-1.64,3.2Z" transform="translate(-325.773)"/>
        <path id="Path_3069" data-name="Path 3069" class="cls-2" d="M1.571,132.9s23.8.347,40.674,10.209c0,0,6.057-6.663,19.214-7.786,0,0,1.147-.17,1.147.775s-11.356,3.465-18.2,11.856c0,0-2.076,2.423.695,6.841s.606,8.569-8.052,7.963c0,0-7.616-1.042-7.18-2.512s9.175,1.47,10.3-1.3.695-8.917-11.6-15.749-27-8.739-27-8.739-1.987-.258-1.559-.864A2.412,2.412,0,0,1,1.571,132.9Z" transform="translate(0.048 -122.166)"/>
        <path id="Path_3070" data-name="Path 3070" class="cls-1" d="M145.4,205.879V192.9l5.71,2.334v10.645Z" transform="translate(-133.653 -177.32)"/>
        <path id="Path_3071" data-name="Path 3071" class="cls-1" d="M263.387,251.456,260.1,242.2l9.6,5.452-1.123,3.8Z" transform="translate(-239.089 -222.639)"/>
      </g>
      <g id="Group_993" data-name="Group 993" transform="translate(12.345 30.408)">
        <path id="Path_3072" data-name="Path 3072" class="cls-3" d="M152.808,376.6h2.213a4.447,4.447,0,0,1,1.139.113,2.046,2.046,0,0,1,.9.549,2.64,2.64,0,0,1,.573.969,4.51,4.51,0,0,1,.194,1.421,3.976,3.976,0,0,1-.186,1.276,2.61,2.61,0,0,1-.646,1.058,2.141,2.141,0,0,1-.848.477,3.775,3.775,0,0,1-1.074.129H152.8V376.6Zm1.211,1.018v3.974h.9a3.22,3.22,0,0,0,.735-.057,1.1,1.1,0,0,0,.493-.25,1.262,1.262,0,0,0,.315-.581,3.966,3.966,0,0,0,.121-1.1,3.6,3.6,0,0,0-.121-1.066,1.287,1.287,0,0,0-.347-.582,1.144,1.144,0,0,0-.557-.283,5.307,5.307,0,0,0-.993-.057Z" transform="translate(-152.8 -376.592)"/>
        <path id="Path_3073" data-name="Path 3073" class="cls-3" d="M226.517,382.6H225.2l-.525-1.365h-2.4l-.493,1.365H220.5l2.342-6h1.284Zm-2.229-2.375L223.464,378l-.808,2.229Z" transform="translate(-215.032 -376.592)"/>
        <path id="Path_3074" data-name="Path 3074" class="cls-3" d="M291.777,382.509v-4.991H290V376.5h4.765v1.018h-1.777v4.991Z" transform="translate(-278.919 -376.5)"/>
        <path id="Path_3075" data-name="Path 3075" class="cls-3" d="M349.617,382.6H348.3l-.525-1.365h-2.4l-.493,1.365H343.6l2.342-6h1.284Zm-2.237-2.375L346.556,378l-.808,2.229Z" transform="translate(-328.19 -376.592)"/>
      </g>
    </g>
    <text id="MyData" class="cls-4" transform="translate(115.034 78.918)"><tspan x="0" y="0">MyData</tspan></text>
    <text id="個人化資料自主運用" class="cls-5" transform="translate(209.18 78.241)"><tspan x="0" y="0">個人化資料自主運用</tspan></text>
  </g>
</svg>
