<svg xmlns="http://www.w3.org/2000/svg" width="28.685" height="26.3" viewBox="0 0 28.685 26.3">
  <g id="Group_5977" data-name="Group 5977" transform="translate(0)">
    <path id="Path_12400" data-name="Path 12400" d="M2989.9,1337.337a1.6,1.6,0,0,0,2.61.012l6.417-7.085a1.6,1.6,0,0,0-1.3-2.517h-2.576v-8a1.746,1.746,0,0,0-1.746-1.745h-4.075a1.745,1.745,0,0,0-1.745,1.745v8h-2.565a1.594,1.594,0,0,0-1.309,2.5Z" transform="translate(-2976.903 -1318)" fill="#888"/>
    <path id="Path_12401" data-name="Path 12401" d="M2869.415,1746.842v1.815a2.448,2.448,0,0,1-2.448,2.448h-15.294a2.4,2.4,0,0,1-2.4-2.4v-1.861a.842.842,0,0,0-.842-.842h-2.585a.842.842,0,0,0-.843.842v6.113a2.42,2.42,0,0,0,2.42,2.42h24.687a1.578,1.578,0,0,0,1.578-1.578v-6.955a.842.842,0,0,0-.842-.842h-2.586A.842.842,0,0,0,2869.415,1746.842Z" transform="translate(-2845 -1729.075)" fill="#888"/>
  </g>
</svg>
