<svg id="Group_6448" data-name="Group 6448" xmlns="http://www.w3.org/2000/svg" width="45.983" height="29.835" viewBox="0 0 45.983 29.835">
  <g id="Group_992" data-name="Group 992" transform="translate(0)">
    <path id="Path_3067" data-name="Path 3067" d="M154.611,9.022,151.369,0H145.4V7.048S152.258,8.067,154.611,9.022Z" transform="translate(-136.778)" fill="#138909"/>
    <path id="Path_3068" data-name="Path 3068" d="M354.4,9.336,358.146,0h6.289V13.467l-4.576-2.223V8.512l-1.2,2.347Z" transform="translate(-333.39)" fill="#138909"/>
    <path id="Path_3069" data-name="Path 3069" d="M1.14,132.9s17.469.255,29.851,7.492c0,0,4.446-4.89,14.1-5.714,0,0,.842-.124.842.569s-8.334,2.543-13.355,8.7c0,0-1.523,1.778.51,5.021s.445,6.289-5.91,5.845c0,0-5.59-.765-5.27-1.843s6.734,1.079,7.558-.954.51-6.544-8.512-11.559S1.14,134.044,1.14,134.044s-1.458-.19-1.144-.634A1.77,1.77,0,0,1,1.14,132.9Z" transform="translate(0.048 -125.022)" fill="#138909"/>
    <path id="Path_3070" data-name="Path 3070" d="M145.4,202.426V192.9l4.191,1.713v7.813Z" transform="translate(-136.778 -181.466)" fill="#138909"/>
    <path id="Path_3071" data-name="Path 3071" d="M262.512,248.993,260.1,242.2l7.048,4-.824,2.792Z" transform="translate(-244.679 -227.843)" fill="#138909"/>
  </g>
  <g id="Group_993" data-name="Group 993" transform="translate(9.06 22.317)">
    <path id="Path_3072" data-name="Path 3072" d="M152.806,376.6h1.624a3.267,3.267,0,0,1,.836.083,1.5,1.5,0,0,1,.664.4,1.938,1.938,0,0,1,.421.711,3.31,3.31,0,0,1,.142,1.043,2.919,2.919,0,0,1-.136.937,1.915,1.915,0,0,1-.474.776,1.571,1.571,0,0,1-.622.35,2.769,2.769,0,0,1-.788.095H152.8v-4.4Zm.889.747v2.916h.664a2.361,2.361,0,0,0,.539-.042.807.807,0,0,0,.362-.184.926.926,0,0,0,.231-.427,2.91,2.91,0,0,0,.089-.806,2.643,2.643,0,0,0-.089-.782.945.945,0,0,0-.255-.427.839.839,0,0,0-.409-.207,3.891,3.891,0,0,0-.729-.042Z" transform="translate(-152.8 -376.594)" fill="#138909"/>
    <path id="Path_3073" data-name="Path 3073" d="M224.916,381h-.966l-.385-1H221.8l-.362,1H220.5l1.719-4.4h.942Zm-1.636-1.743-.6-1.636-.593,1.636Z" transform="translate(-216.487 -376.594)" fill="#138909"/>
    <path id="Path_3074" data-name="Path 3074" d="M291.3,380.91v-3.663H290V376.5h3.5v.747h-1.3v3.663Z" transform="translate(-281.867 -376.5)" fill="#138909"/>
    <path id="Path_3075" data-name="Path 3075" d="M348.016,381h-.966l-.385-1H344.9l-.362,1H343.6l1.719-4.4h.943Zm-1.642-1.743-.6-1.636-.593,1.636Z" transform="translate(-332.29 -376.594)" fill="#138909"/>
  </g>
</svg>
