<svg xmlns="http://www.w3.org/2000/svg" width="33.955" height="29.876" viewBox="0 0 33.955 29.876">
  <g id="Group_5976" data-name="Group 5976" transform="translate(0 0)">
    <path id="Path_12409" data-name="Path 12409" d="M4567.586,1765.209a8.1,8.1,0,0,1,5.005-7.488,11.83,11.83,0,0,0,1.286-5.285c0-5.211-3.755-9.436-8.388-9.436s-8.388,4.225-8.388,9.436a11.445,11.445,0,0,0,4.32,8.977c.083.279.135,1.049-1.511,1.636a.948.948,0,0,0-.4.238l-2.707.892c-5.825,1.353-5.8,7.607-5.8,7.607h19.959A8.089,8.089,0,0,1,4567.586,1765.209Z" transform="translate(-4551 -1743)" fill="#888"/>
    <path id="Path_12410" data-name="Path 12410" d="M4654.768,1825a7.768,7.768,0,1,0,7.768,7.768A7.768,7.768,0,0,0,4654.768,1825Zm4.309,6.645-3.107,4.439a1.33,1.33,0,0,1-1.068.568h-.022a1.332,1.332,0,0,1-1.065-.533l-3.33-4.439a1.332,1.332,0,0,1,2.131-1.6l2.227,2.969,2.054-2.933a1.331,1.331,0,1,1,2.181,1.527Z" transform="translate(-4628.582 -1810.659)" fill="#888"/>
  </g>
</svg>
