<svg xmlns="http://www.w3.org/2000/svg" width="32.499" height="28.749" viewBox="0 0 32.499 28.749">
  <g id="Group_5971" data-name="Group 5971" transform="translate(0)">
    <path id="Path_12402" data-name="Path 12402" d="M3797.464,1689.19c-1.682-.673-4.149,2.355-6.392,2.916s-8.073-.561-7.849-1.234,6.167.112,6.167.112,3.476.785,3.252-2.018-6.392-1.57-10.765-3.7-10.877-.112-10.877-.112v7.962a44.145,44.145,0,0,1,6.167,2.355c3.028,1.458,4.261,2.691,9.756,2.243s6.84-1.234,9.531-3.476S3799.146,1689.863,3797.464,1689.19Z" transform="translate(-3766.122 -1669.056)" fill="#138909"/>
    <path id="Path_12403" data-name="Path 12403" d="M3727.5,1690.213h3.813V1679H3727.5Zm1.906-2.579a.785.785,0,1,1-.784.785A.785.785,0,0,1,3729.406,1687.634Z" transform="translate(-3727.5 -1664.361)" fill="#138909"/>
    <path id="Path_12404" data-name="Path 12404" d="M3792.925,1560.734a9.808,9.808,0,0,0,.166,1.8,18.737,18.737,0,0,1,4.675.533,5.439,5.439,0,1,1,7.729,2.325c.071,0,.109,0,.109,0s3.3-.089,4.7,1.438a9.733,9.733,0,0,0,.81-1.183l2.385.79,1.354-4.086-2.447-.811c.021-.264.033-.531.033-.8a9.706,9.706,0,0,0-1.333-4.924l1.915-1.779-2.929-3.154-1.925,1.788a9.706,9.706,0,0,0-5.467-1.686l-.556-2.529-4.2.924.56,2.545a9.794,9.794,0,0,0-4.208,3.838l-2.567-.749-1.205,4.133,2.449.715C3792.939,1560.145,3792.925,1560.438,3792.925,1560.734Z" transform="translate(-3783.45 -1548.45)" fill="#138909"/>
  </g>
</svg>
