<svg xmlns="http://www.w3.org/2000/svg" width="29.683" height="31.873" viewBox="0 0 29.683 31.873">
  <g id="Group_7023" data-name="Group 7023" transform="translate(674.844 655.517)">
    <path id="Path_13943" data-name="Path 13943" d="M-606.969-646.358a4.994,4.994,0,0,0,2.226-4.159,5,5,0,0,0-5-5,5,5,0,0,0-5,5,4.994,4.994,0,0,0,2.26,4.182,8.739,8.739,0,0,0-5.945,8.16h17.469A8.739,8.739,0,0,0-606.969-646.358Z" transform="translate(-50.34)" fill="#888"/>
    <path id="Path_13944" data-name="Path 13944" d="M-674.844-478.317v2.619h1.746v10.167h26.192V-475.7h1.745v-2.619Zm22.7,9.293h-15.716V-475.7h1.746v4.928h12.223V-475.7h1.746v4.928h0Z" transform="translate(0 -158.113)" fill="#888"/>
  </g>
</svg>
