<svg xmlns="http://www.w3.org/2000/svg" width="48.283" height="48.25" viewBox="0 0 48.283 48.25">
  <path id="Path_12363" data-name="Path 12363" d="M923.239-662.993c.368-1.65.661-3.32,1.117-4.945a112.1,112.1,0,0,1,5.42-15.248,6.913,6.913,0,0,1,1.475-2.115q11.413-11.379,22.779-22.805A5.3,5.3,0,0,1,958-709.8a13.81,13.81,0,0,1,8.6,2.7,12.459,12.459,0,0,1,4.7,8.248,9.472,9.472,0,0,1-.107,4.442,3.524,3.524,0,0,1-.81,1.407q-11.881,11.93-23.813,23.808a5.824,5.824,0,0,1-1.709,1.092,101.834,101.834,0,0,1-14.078,5.086c-2.048.585-4.149.982-6.226,1.465h-1.329Zm18.5-6.414a4.422,4.422,0,0,1-1.469-3.485,4.053,4.053,0,0,1-4.388-1.293,4.068,4.068,0,0,1-1.313-4.409,4.35,4.35,0,0,1-3.4-1.354.7.7,0,0,0-.092.122q-1.734,4.743-3.452,9.491a.565.565,0,0,0,.152.462c1.241,1.262,2.49,2.517,3.759,3.751a.726.726,0,0,0,.606.135c1.195-.371,2.386-.759,3.562-1.183C937.681-667.882,939.641-668.626,941.743-669.407Z" transform="translate(-923.239 709.803)" fill="#138909"/>
</svg>
