<svg xmlns="http://www.w3.org/2000/svg" width="20" height="20" viewBox="0 0 20 20">
  <g id="Group_6557" data-name="Group 6557" transform="translate(-16798.5 -18856)">
    <g id="Group_6522" data-name="Group 6522" transform="translate(15988.001 20376)">
      <path id="Path_12707" data-name="Path 12707" d="M819.444-1516h.188a2.3,2.3,0,0,1,.265.188.939.939,0,0,0,.657.255,7.057,7.057,0,0,1,1.1.077,3.078,3.078,0,0,1,1.719.916,6.162,6.162,0,0,1,1.023,1.457c.347.663.672,1.337,1,2.009a1.671,1.671,0,0,0,.814.849c.183.082.37.153.555.231a1.286,1.286,0,0,1,.507.377,1.979,1.979,0,0,1,.346.711v.282c-.029.1-.052.206-.087.305a3.849,3.849,0,0,1-.954,1.4,8.936,8.936,0,0,1-2.823,1.878,9.951,9.951,0,0,1-3.069.8l-.382.035h-.7c-.046-.006-.092-.016-.138-.019a4.689,4.689,0,0,1-1.5-.336,1.32,1.32,0,0,1-.784-1.648,3.554,3.554,0,0,1,.325-.7,1.635,1.635,0,0,0,.16-1.147c-.067-.3-.139-.591-.211-.886a18.017,18.017,0,0,1-.411-2.091c-.02-.161-.033-.323-.05-.484v-.545l.015-.091c.03-.188.05-.378.092-.564a3.113,3.113,0,0,1,.836-1.494c.191-.2.4-.38.6-.564a.949.949,0,0,0,.343-.615c.005-.05.017-.1.026-.148a.382.382,0,0,1,.206-.3C819.225-1515.914,819.336-1515.954,819.444-1516Zm.562,10.808a7.872,7.872,0,0,0,1.981-.247,8.547,8.547,0,0,0,3.974-2.21,3.956,3.956,0,0,0,.617-.778c.168-.283.116-.457-.182-.6l-.017-.009a2.578,2.578,0,0,0-1.089-.21,7.211,7.211,0,0,0-1.877.235,13.1,13.1,0,0,0-2.763,1.009,7.165,7.165,0,0,0-1.96,1.357,2.267,2.267,0,0,0-.5.708c-.125.3-.07.419.236.523l.009,0A5.073,5.073,0,0,0,820.007-1505.192Z" transform="translate(-1 0)" fill="#ca2358"/>
      <path id="Path_12708" data-name="Path 12708" d="M937.862-1102.971a1.192,1.192,0,0,1-.153,1.049,2.509,2.509,0,0,1-1.337,1.011,2.6,2.6,0,0,1-1.1.159,1.667,1.667,0,0,1-.973-.368A11.106,11.106,0,0,1,937.862-1102.971Z" transform="translate(-115.144 -405.341)" fill="#ca2358"/>
    </g>
    <g id="Ellipse_499" data-name="Ellipse 499" transform="translate(16798.5 18856)" fill="none" stroke="#ca2358" stroke-width="1">
      <circle cx="10" cy="10" r="10" stroke="none"/>
      <circle cx="10" cy="10" r="9.5" fill="none"/>
    </g>
  </g>
</svg>
