<svg xmlns="http://www.w3.org/2000/svg" width="32.537" height="32.537" viewBox="0 0 32.537 32.537">
  <g id="Group_3041" data-name="Group 3041" transform="translate(2401.149 1049.549)">
    <circle id="Ellipse_208" data-name="Ellipse 208" cx="16.269" cy="16.269" r="16.269" transform="translate(-2401.149 -1049.549)" fill="#212529"/>
    <g id="Group_3040" data-name="Group 3040" transform="translate(-2394.392 -1042.774)">
      <path id="Path_8748" data-name="Path 8748" d="M-2300.705-962.645c.525-.53,1.037-1.049,1.551-1.566a.394.394,0,0,1,.469-.127.424.424,0,0,1,.259.439c0,.032,0,.063,0,.1v2.832q0,1.44,0,2.88c0,.418-.136.552-.558.552q-2.868,0-5.736,0c-.22,0-.411-.036-.507-.266s.039-.375.184-.518l1.639-1.625a9.8,9.8,0,0,0-.7-.726,5.6,5.6,0,0,0-5.692-1.119,5.537,5.537,0,0,0-3.794,4.355c-.121.562-.224.658-.789.658h-2.332c-.584,0-.769-.213-.7-.787a9.2,9.2,0,0,1,2.362-5.168,9.182,9.182,0,0,1,5.548-3.019,9.432,9.432,0,0,1,8.695,3.014C-2300.787-962.716-2300.762-962.7-2300.705-962.645Z" transform="translate(2317.448 965.883)" fill="#fff"/>
      <path id="Path_8749" data-name="Path 8749" d="M-2315.4-837.939l-1.535,1.551a.423.423,0,0,1-.463.161.444.444,0,0,1-.29-.489c0-1.19,0-2.379,0-3.569q0-1.118,0-2.237c0-.371.146-.514.522-.514q2.891,0,5.782,0a.457.457,0,0,1,.49.254c.1.225-.022.377-.169.522-.541.535-1.08,1.071-1.652,1.639.229.237.425.476.656.674a5.6,5.6,0,0,0,5.766,1.152,5.514,5.514,0,0,0,3.787-4.462.562.562,0,0,1,.607-.538q1.32-.005,2.641,0a.547.547,0,0,1,.579.647,9.34,9.34,0,0,1-3.347,6.229,9.264,9.264,0,0,1-5.482,2.2,9.449,9.449,0,0,1-7.4-2.706C-2315.071-837.577-2315.216-837.745-2315.4-837.939Z" transform="translate(2317.69 853.684)" fill="#fff"/>
    </g>
  </g>
</svg>
