<svg xmlns="http://www.w3.org/2000/svg" width="38" height="38" viewBox="0 0 38 38">
  <g id="Group_5903" data-name="Group 5903" transform="translate(-94 -1372)">
    <g id="Group_5868" data-name="Group 5868" transform="translate(-8220 6224)">
      <circle id="Ellipse_405" data-name="Ellipse 405" cx="19" cy="19" r="19" transform="translate(8314 -4852)" fill="#189395"/>
    </g>
    <g id="student_1_" data-name="student (1)" transform="translate(99 1344.73)">
      <g id="Group_5830" data-name="Group 5830" transform="translate(0 37.27)">
        <g id="Group_5829" data-name="Group 5829" transform="translate(0 0)">
          <path id="Path_12395" data-name="Path 12395" d="M26.1,49.895a2.29,2.29,0,0,0-1.529-2.153V43.136l1.529-.631L13.05,37.27,0,42.506l13.05,5.236,9.991-3.991v3.991a2.28,2.28,0,0,0-.219,4.217L21.551,55.77l1.45.484.8-2.413.8,2.413,1.45-.484-1.271-3.812A2.29,2.29,0,0,0,26.1,49.895Z" transform="translate(0 -37.27)" fill="#fff"/>
        </g>
      </g>
      <g id="Group_5832" data-name="Group 5832" transform="translate(6.168 46.627)">
        <g id="Group_5831" data-name="Group 5831" transform="translate(0 0)">
          <path id="Path_12396" data-name="Path 12396" d="M127.882,223.583,121,220.82v2c0,2.18,2.958,3.823,6.882,3.823s6.882-1.644,6.882-3.823v-2Z" transform="translate(-121 -220.82)" fill="#fff"/>
        </g>
      </g>
    </g>
  </g>
</svg>
