<svg xmlns="http://www.w3.org/2000/svg" width="40" height="40" viewBox="0 0 40 40">
  <g id="Group_5913" data-name="Group 5913" transform="translate(-8305 4350)">
    <circle id="Ellipse_406" data-name="Ellipse 406" cx="20" cy="20" r="20" transform="translate(8305 -4350)" fill="#6d34c7"/>
    <g id="Group_5835" data-name="Group 5835" transform="translate(8367 -4375.666)">
      <g id="Group_5834" data-name="Group 5834" transform="translate(-51 37.666)">
        <g id="Group_5833" data-name="Group 5833" transform="translate(0 0)">
          <path id="Path_12397" data-name="Path 12397" d="M-33.68,40.028h-3.936v-.787a1.576,1.576,0,0,0-1.575-1.575h-4.724a1.576,1.576,0,0,0-1.575,1.575v.787h-3.936A1.576,1.576,0,0,0-51,41.6v2.362a1.576,1.576,0,0,0,1.575,1.575h6.3v-.394a.393.393,0,0,1,.394-.394h2.362a.393.393,0,0,1,.394.394v.394h6.3a1.576,1.576,0,0,0,1.574-1.575V41.6A1.576,1.576,0,0,0-33.68,40.028Zm-5.511,0h-4.724v-.787h4.724Z" transform="translate(51 -37.666)" fill="#fff"/>
          <path id="Path_12398" data-name="Path 12398" d="M-32.324,261.425a.394.394,0,0,0-.413.039,1.554,1.554,0,0,1-.943.324h-6.3v1.181a.393.393,0,0,1-.394.394h-2.362a.393.393,0,0,1-.394-.394v-1.181h-6.3a1.554,1.554,0,0,1-.943-.324.391.391,0,0,0-.413-.039.394.394,0,0,0-.218.353V267.3a1.576,1.576,0,0,0,1.575,1.575H-33.68a1.576,1.576,0,0,0,1.575-1.575v-5.521A.394.394,0,0,0-32.324,261.425Z" transform="translate(51 -253.128)" fill="#fff"/>
        </g>
      </g>
    </g>
  </g>
</svg>
