<svg xmlns="http://www.w3.org/2000/svg" width="40" height="40" viewBox="0 0 40 40">
  <g id="Group_5911" data-name="Group 5911" transform="translate(-8314 4348)">
    <circle id="Ellipse_406" data-name="Ellipse 406" cx="20" cy="20" r="20" transform="translate(8314 -4348)" fill="#006ccb"/>
    <g id="report" transform="translate(8257.228 -4337)">
      <g id="Group_5859" data-name="Group 5859" transform="translate(68.772 1.37)">
        <g id="Group_5858" data-name="Group 5858" transform="translate(0)">
          <path id="Path_12410" data-name="Path 12410" d="M82.211,33.575H80.745a1.3,1.3,0,0,1,.026.257v1.13a1.57,1.57,0,0,1-1.655,1.462H73.7a1.57,1.57,0,0,1-1.655-1.462v-1.13a1.3,1.3,0,0,1,.026-.257H70.607A1.74,1.74,0,0,0,68.772,35.2V49.188a1.74,1.74,0,0,0,1.835,1.621h11.6a1.74,1.74,0,0,0,1.835-1.621V35.2A1.74,1.74,0,0,0,82.211,33.575Zm-10.429,5.2a.658.658,0,0,1,.837.193l.288.435,1.367-1.746a.664.664,0,0,1,.851-.137.5.5,0,0,1,.155.752l-1.913,2.444a.639.639,0,0,1-.5.233h-.023a.628.628,0,0,1-.5-.267l-.773-1.166A.507.507,0,0,1,71.783,38.778Zm3.5,3.487-1.913,2.444a.639.639,0,0,1-.5.233h-.023a.628.628,0,0,1-.5-.267l-.773-1.166a.507.507,0,0,1,.219-.739.658.658,0,0,1,.837.193l.288.435,1.367-1.746a.664.664,0,0,1,.851-.137A.5.5,0,0,1,75.282,42.265Zm5.485,2.187H76.623a.544.544,0,1,1,0-1.08h4.143a.544.544,0,1,1,0,1.08Zm0-2.02H76.623a.544.544,0,1,1,0-1.08h4.143a.544.544,0,1,1,0,1.08Zm0-1.971H76.623a.544.544,0,1,1,0-1.08h4.143a.544.544,0,1,1,0,1.08Z" transform="translate(-68.772 -33.575)" fill="#fff"/>
        </g>
      </g>
      <g id="Group_5861" data-name="Group 5861" transform="translate(73.271)">
        <g id="Group_5860" data-name="Group 5860" transform="translate(0)">
          <path id="Path_12411" data-name="Path 12411" d="M184.915,0H179.5a.433.433,0,0,0-.432.432V2.94h0a.433.433,0,0,0,.432.432h5.412a.433.433,0,0,0,.432-.432V.432A.433.433,0,0,0,184.915,0Z" transform="translate(-179.071 0)" fill="#fff"/>
        </g>
      </g>
    </g>
  </g>
</svg>
