<svg xmlns="http://www.w3.org/2000/svg" width="40" height="40" viewBox="0 0 40 40">
  <g id="Group_5870" data-name="Group 5870" transform="translate(-8314 4348)">
    <circle id="Ellipse_406" data-name="Ellipse 406" cx="20" cy="20" r="20" transform="translate(8314 -4348)" fill="#c43ec4"/>
    <g id="agreement" transform="translate(8324.167 -4336.492)">
      <g id="Group_5837" data-name="Group 5837" transform="translate(3.233 10.027)">
        <g id="Group_5836" data-name="Group 5836" transform="translate(0 0)">
          <path id="Path_12399" data-name="Path 12399" d="M84.693,265.341a.888.888,0,0,0-1.256,0L82.182,266.6a.888.888,0,0,0,1.256,1.256l1.256-1.256A.888.888,0,0,0,84.693,265.341Z" transform="translate(-81.922 -265.081)" fill="#fff"/>
        </g>
      </g>
      <g id="Group_5839" data-name="Group 5839" transform="translate(5.326 12.12)">
        <g id="Group_5838" data-name="Group 5838">
          <path id="Path_12400" data-name="Path 12400" d="M137.725,318.374a.888.888,0,0,0-1.256,0l-1.256,1.256a.888.888,0,0,0,1.256,1.256l1.256-1.256A.888.888,0,0,0,137.725,318.374Z" transform="translate(-134.954 -318.114)" fill="#fff"/>
        </g>
      </g>
      <g id="Group_5841" data-name="Group 5841" transform="translate(7.419 14.213)">
        <g id="Group_5840" data-name="Group 5840" transform="translate(0 0)">
          <path id="Path_12401" data-name="Path 12401" d="M190.758,371.407a.888.888,0,0,0-1.256,0l-1.256,1.256a.888.888,0,0,0,1.256,1.256l1.256-1.256A.888.888,0,0,0,190.758,371.407Z" transform="translate(-187.987 -371.147)" fill="#fff"/>
        </g>
      </g>
      <g id="Group_5843" data-name="Group 5843" transform="translate(9.512 16.306)">
        <g id="Group_5842" data-name="Group 5842">
          <path id="Path_12402" data-name="Path 12402" d="M243.791,424.439a.888.888,0,0,0-1.256,0l-1.256,1.256a.888.888,0,1,0,1.256,1.256l1.256-1.256A.888.888,0,0,0,243.791,424.439Z" transform="translate(-241.02 -424.179)" fill="#fff"/>
        </g>
      </g>
      <g id="Group_5845" data-name="Group 5845" transform="translate(6.814 0)">
        <g id="Group_5844" data-name="Group 5844" transform="translate(0 0)">
          <path id="Path_12403" data-name="Path 12403" d="M184.333,12.721a5.873,5.873,0,0,0-8.3,0l-2.984,2.937a1.3,1.3,0,0,0,1.591,2.043l1.046-.913,2.687-2.336,6.258,6.258A5.873,5.873,0,0,0,184.333,12.721Z" transform="translate(-172.661 -11)" fill="#fff"/>
        </g>
      </g>
      <g id="Group_5847" data-name="Group 5847" transform="translate(0 0.574)">
        <g id="Group_5846" data-name="Group 5846" transform="translate(0 0)">
          <path id="Path_12404" data-name="Path 12404" d="M18.151,35.694l-5.686-5.685-1.854,1.612L9.5,32.59l-.074.047a2.391,2.391,0,0,1-1.29.375,2.528,2.528,0,0,1-1.775-.736,2.489,2.489,0,0,1,0-3.516l2.576-2.535A6.145,6.145,0,0,0,1.8,36.044l.25.25,1.765-1.765a2.167,2.167,0,0,1,2.922-.2,2.063,2.063,0,0,1,.709,1.588,2.061,2.061,0,0,1,2.093,2.093,2.061,2.061,0,0,1,2.093,2.093,2.044,2.044,0,0,1,1.918,1.239.863.863,0,0,0,.409-.217.888.888,0,0,0,0-1.256l-.209-.209-2.93-2.93a.592.592,0,0,1,.837-.837l2.93,2.93.209.209a.888.888,0,1,0,1.256-1.256l-.209-.209-2.93-2.93a.592.592,0,1,1,.837-.837l2.93,2.93.209.209a.888.888,0,0,0,1.262-1.248Z" transform="translate(0 -25.555)" fill="#fff"/>
        </g>
      </g>
    </g>
  </g>
</svg>
