<svg xmlns="http://www.w3.org/2000/svg" xmlns:xlink="http://www.w3.org/1999/xlink" width="219" height="60" viewBox="0 0 219 60">
  <defs>
    <style>
      .cls-1 {
        clip-path: url(#clip-service-btn);
      }

      .cls-2 {
        fill: #138909;
      }

      .cls-3, .cls-4 {
        fill: #fff;
      }

      .cls-3 {
        stroke: rgba(0,0,0,0);
        font-size: 26px;
        font-family: PingFangTC-Regular, PingFang TC;
      }

      .cls-5 {
        fill: none;
        stroke: #138909;
        stroke-linecap: round;
        stroke-width: 2px;
      }
    </style>
    <clipPath id="clip-service-btn">
      <rect width="219" height="60"/>
    </clipPath>
  </defs>
  <g id="service-btn" class="cls-1">
    <rect class="cls-4" width="219" height="60"/>
    <g id="Group_5802" data-name="Group 5802" transform="translate(-86 -86)">
      <path id="Path_12316" data-name="Path 12316" class="cls-2" d="M12.457,0H205.543C212.423,0,218,5.014,218,11.2V48.3c0,6.186-5.577,11.2-12.457,11.2H12.457C5.577,59.5,0,54.486,0,48.3V11.2C0,5.014,5.577,0,12.457,0Z" transform="translate(86.5 86)"/>
      <g id="Group_5801" data-name="Group 5801" transform="translate(-473.173 -876.797)">
        <text id="我要申請" class="cls-3" transform="translate(598.173 1001.796)"><tspan x="0" y="0">我要申請</tspan></text>
        <g id="Group_1785" data-name="Group 1785" transform="translate(46.231 62.258)">
          <ellipse id="Ellipse_117" data-name="Ellipse 117" class="cls-4" cx="12.501" cy="12.616" rx="12.501" ry="12.616" transform="translate(668.347 917.596)"/>
          <g id="Group_1163" data-name="Group 1163" transform="translate(678.348 923.904)">
            <path id="Path_3488" data-name="Path 3488" class="cls-5" d="M0,0,5.464,6.229" transform="translate(0 0.673) rotate(-7)"/>
            <path id="Path_3489" data-name="Path 3489" class="cls-5" d="M5025.457,1084.955l5.47-5.284" transform="translate(-5025.102 -1073.122)"/>
          </g>
        </g>
      </g>
    </g>
  </g>
</svg>
