<svg xmlns="http://www.w3.org/2000/svg" width="25" height="25" viewBox="0 0 25 25">
  <g id="Group_7100" data-name="Group 7100" transform="translate(-1045.55 -372.442)">
    <path id="Path_13974" data-name="Path 13974" d="M1214.922,847.919a12.5,12.5,0,1,1,12.5-12.5A12.514,12.514,0,0,1,1214.922,847.919Zm0-23.809a11.31,11.31,0,1,0,11.309,11.31A11.323,11.323,0,0,0,1214.922,824.11Z" transform="translate(-156.872 -450.477)" fill="#0d9e86" style="isolation: isolate"/>
    <g id="Group_7099" data-name="Group 7099" transform="translate(1051.87 376.754)">
      <path id="Path_13972" data-name="Path 13972" d="M67.85,49.366V44.29c-.043-.875-.405-.747-.832-.747a7.423,7.423,0,0,1-5.034-2.24c-.32-.421-.533-.456-.609-.452h0a.121.121,0,0,0-.027,0,.119.119,0,0,0-.027,0h0c-.076,0-.289.031-.609.452a7.423,7.423,0,0,1-5.034,2.24c-.427,0-.789-.128-.832.747v5.077a9.389,9.389,0,0,0,5.077,8.041,12.334,12.334,0,0,0,1.308.55l0,0h.236l0,0a12.353,12.353,0,0,0,1.308-.55A9.389,9.389,0,0,0,67.85,49.366Zm-6.527,4.588a4.545,4.545,0,1,1,4.545-4.545A4.55,4.55,0,0,1,61.323,53.954Z" transform="translate(-54.838 -40.851)" fill="#0d9e86"/>
      <path id="Path_13973" data-name="Path 13973" d="M97.691,107.355a3.475,3.475,0,1,0,3.475,3.475A3.479,3.479,0,0,0,97.691,107.355Zm2.343,2.9-2.58,2.561a.573.573,0,0,1-.8.007L95.3,111.516a.573.573,0,1,1,.794-.827l.955.918,2.182-2.166a.573.573,0,0,1,.808.814Z" transform="translate(-91.206 -102.272)" fill="#0d9e86"/>
    </g>
  </g>
</svg>
