<svg xmlns="http://www.w3.org/2000/svg" width="30" height="30" viewBox="0 0 30 30">
  <g id="Group_7129" data-name="Group 7129" transform="translate(-5963 -2029)">
    <rect id="Rectangle_4349" data-name="Rectangle 4349" width="30" height="30" transform="translate(5963 2029)" fill="none"/>
    <g id="Group_7125" data-name="Group 7125" transform="translate(5968 2031)">
      <path id="Path_13972" data-name="Path 13972" d="M73.874,53.309V45.882c-.063-1.279-.593-1.092-1.217-1.092a10.86,10.86,0,0,1-7.364-3.277c-.468-.616-.78-.667-.891-.662H64.4a.177.177,0,0,0-.04.006.175.175,0,0,0-.04-.006h-.005c-.111-.005-.422.046-.891.662a10.86,10.86,0,0,1-7.365,3.277c-.624,0-1.155-.187-1.217,1.092v7.427a13.736,13.736,0,0,0,7.427,11.765,18.04,18.04,0,0,0,1.914.8l0,.007h.345l0-.007a18.072,18.072,0,0,0,1.914-.8A13.736,13.736,0,0,0,73.874,53.309Zm-9.548,6.712a6.649,6.649,0,1,1,6.649-6.65A6.657,6.657,0,0,1,64.325,60.021Z" transform="translate(-54.838 -40.851)" fill="#0d9e86"/>
      <path id="Path_13973" data-name="Path 13973" d="M99.3,107.355a5.084,5.084,0,1,0,5.084,5.084A5.09,5.09,0,0,0,99.3,107.355Zm3.429,4.242-3.774,3.747a.838.838,0,0,1-1.172.01l-1.988-1.911a.839.839,0,1,1,1.162-1.209l1.4,1.343,3.192-3.17a.839.839,0,1,1,1.182,1.19Z" transform="translate(-89.813 -99.918)" fill="#0d9e86"/>
    </g>
  </g>
</svg>
