<svg xmlns="http://www.w3.org/2000/svg" width="25.246" height="25.246" viewBox="0 0 25.246 25.246">
  <g id="Group_7100" data-name="Group 7100" transform="translate(-1043.653 -891.002)">
    <path id="Path_12165" data-name="Path 12165" d="M1228.817,932.549a12.623,12.623,0,1,1,12.624-12.624A12.637,12.637,0,0,1,1228.817,932.549Zm0-24.044a11.421,11.421,0,1,0,11.421,11.42A11.434,11.434,0,0,0,1228.817,908.505Z" transform="translate(-172.541 -16.301)" fill="#0d9e86" style="isolation: isolate"/>
    <g id="Group_5767" data-name="Group 5767" transform="translate(1049.477 895.665)" style="isolation: isolate">
      <path id="Path_12166" data-name="Path 12166" d="M1234.944,915.824h-.141l.141,0v-.017c-.007-.149-.011-.305-.015-.481a1.8,1.8,0,0,0-1.693-1.762,6.315,6.315,0,0,1-4.3-1.816,1.144,1.144,0,0,0-1.564.01,6.288,6.288,0,0,1-4.286,1.806,1.8,1.8,0,0,0-1.693,1.762c0,.175-.007.331-.015.516a17.069,17.069,0,0,0,.694,6.236,8.027,8.027,0,0,0,1.922,2.995,10.024,10.024,0,0,0,3.748,2.218,1.6,1.6,0,0,0,.172.048,1.436,1.436,0,0,0,.247.024,1.37,1.37,0,0,0,.249-.025,1.556,1.556,0,0,0,.17-.046,10.038,10.038,0,0,0,3.744-2.22,8.021,8.021,0,0,0,1.923-3A17.077,17.077,0,0,0,1234.944,915.824ZM1228.2,926.3l-.063-.141a7.442,7.442,0,0,1-4.942-4.5,15.9,15.9,0,0,1-.62-5.805c.008-.161.012-.329.015-.513a.6.6,0,0,1,.561-.583,8.2,8.2,0,0,0,2.78-.612,2.415,2.415,0,0,1,4.458,0,8.209,8.209,0,0,0,2.78.612.6.6,0,0,1,.561.583c0,.185.008.354.015.508a15.877,15.877,0,0,1-.623,5.809,7.456,7.456,0,0,1-4.939,4.5l.018.141Z" transform="translate(-1221.362 -911.441)" fill="#0d9e86"/>
      <path id="Path_12167" data-name="Path 12167" d="M1231.888,918.959A4.038,4.038,0,1,0,1227.85,923,4.041,4.041,0,0,0,1231.888,918.959Zm-1.2,0a2.839,2.839,0,1,1-2.839-2.84A2.842,2.842,0,0,1,1230.689,918.959Z" transform="translate(-1221.052 -911)" fill="#0d9e86"/>
      <path id="Path_12168" data-name="Path 12168" d="M1229.079,917.187h0a.592.592,0,0,0-.424.176l-1.71,1.71-.392-.393a.6.6,0,0,0-.849.849l.816.815a.6.6,0,0,0,.849,0l2.134-2.135a.6.6,0,0,0-.422-1.023Z" transform="translate(-1220.834 -910.713)" fill="#0d9e86"/>
    </g>
  </g>
</svg>
