<?xml version="1.0" encoding="utf-8"?>
<!-- Generator: Adobe Illustrator 24.0.0, SVG Export Plug-In . SVG Version: 6.00 Build 0)  -->
<svg version="1.1" id="圖層_1" xmlns="http://www.w3.org/2000/svg" xmlns:xlink="http://www.w3.org/1999/xlink" x="0px" y="0px"
	 viewBox="0 0 20 20" style="enable-background:new 0 0 20 20;" xml:space="preserve">
<style type="text/css">
	.st0{fill:#138909;}
</style>
<g>
	<g>
		<path class="st0" d="M10,20C4.5,20,0,15.5,0,10S4.5,0,10,0c5.5,0,10,4.5,10,10S15.5,20,10,20z M10,1c-5,0-9,4-9,9s4,9,9,9
			c5,0,9-4,9-9S15,1,10,1z"/>
	</g>
	<g>
		<path class="st0" d="M12.6,12.8c-0.1,0-0.3-0.1-0.4-0.2c-0.2-0.2-0.3-0.6,0-0.9c0.5-0.5,0.7-1.1,0.7-1.8c0-0.7-0.3-1.3-0.7-1.8
			c-0.2-0.2-0.2-0.6,0-0.9c0.2-0.2,0.6-0.2,0.9,0c0.7,0.7,1,1.7,1,2.6s-0.4,1.9-1,2.6C12.9,12.8,12.8,12.8,12.6,12.8z"/>
		<path class="st0" d="M14.2,14.6c-0.2,0-0.3-0.1-0.4-0.2c-0.2-0.2-0.2-0.6,0-0.9c1-1,1.5-2.2,1.5-3.6s-0.5-2.6-1.5-3.6
			c-0.2-0.2-0.2-0.6,0-0.9c0.2-0.2,0.6-0.2,0.9,0c1.2,1.2,1.9,2.8,1.9,4.5s-0.7,3.3-1.9,4.5C14.5,14.6,14.4,14.6,14.2,14.6z"/>
		<path class="st0" d="M6,7.6H4.6C4,7.6,3.5,8.1,3.5,8.7v2.6c0,0.6,0.5,1.1,1.1,1.1H6c0.1,0,0.1-0.1,0.1-0.1V7.7
			C6.1,7.6,6.1,7.6,6,7.6z"/>
		<path class="st0" d="M10.6,4.9H10C9.9,4.9,9.7,5,9.6,5L7,7c0,0,0,0.1,0,0.1v5.7c0,0,0,0.1,0,0.1l2.6,2c0.1,0.1,0.2,0.1,0.4,0.1
			h0.6c0.3,0,0.6-0.3,0.6-0.6v-9C11.2,5.2,10.9,4.9,10.6,4.9L10.6,4.9z"/>
	</g>
</g>
</svg>
