<?xml version="1.0" encoding="utf-8"?>
<!-- Generator: Adobe Illustrator 24.0.0, SVG Export Plug-In . SVG Version: 6.00 Build 0)  -->
<svg version="1.1" id="圖層_1" xmlns="http://www.w3.org/2000/svg" xmlns:xlink="http://www.w3.org/1999/xlink" x="0px" y="0px"
	 viewBox="0 0 71 84" style="enable-background:new 0 0 71 84;" xml:space="preserve">
<style type="text/css">
	.st0{fill:#FFFFFF;}
	.st1{fill:#138909;}
	.st2{fill:#315FDB;}
</style>
<path class="st1" d="M12.6,50.6V16.8c0,0,0-9.8,10.9-9.8c0,0,3.4,0,7,4.8s6.8,3.1,8.9,1.3s4.7-6.4,9.2-6.2c4.5,0.2,9.5,4.4,9.7,9.4
	c0.2,5,0,48.6,0,48.6S58.9,77,45,77s-21,0-21,0s-11.3-0.1-11.3-11c0,0-1.2-5,5-11.2l12.7-14.5l-3.2-4l11.7-0.8l0.7,10.9l-3.9-2.2
	l-13.4,17c0,0-5.5,8,5,8s19.8,0,19.8,0s4.1,0.4,4.1-4.5s0-45.2,0-45.2s-0.4-5.7-5-2.6l-4.7,4.4c0,0-1.3,2.2-5.7,2.3
	c-4.4,0.1-8.7-5.2-8.7-5.2s-2.9-3.4-4.6-3.3c-1.8,0.1-1.4,2.1-1.4,2.1v28.2L12.6,50.6z"/>
</svg>
