<svg xmlns="http://www.w3.org/2000/svg" width="22.28" height="19.097" viewBox="0 0 22.28 19.097">
  <g id="external-link-symbol" transform="translate(0 -1.5)">
    <g id="Group_7071" data-name="Group 7071" transform="translate(0 1.5)">
      <path id="Path_13965" data-name="Path 13965" d="M17.108,12.549h-.8a.384.384,0,0,0-.4.4v3.979a1.995,1.995,0,0,1-1.989,1.989H3.581a1.916,1.916,0,0,1-1.405-.584,1.916,1.916,0,0,1-.584-1.4V6.581a1.915,1.915,0,0,1,.584-1.4,1.916,1.916,0,0,1,1.405-.584h8.753a.383.383,0,0,0,.4-.4V3.4a.383.383,0,0,0-.4-.4H3.581A3.449,3.449,0,0,0,1.05,4.051,3.449,3.449,0,0,0,0,6.581V16.925a3.448,3.448,0,0,0,1.051,2.53,3.449,3.449,0,0,0,2.53,1.051H13.925a3.587,3.587,0,0,0,3.581-3.581V12.947a.384.384,0,0,0-.4-.4Z" transform="translate(0 -1.409)" fill="#138909"/>
      <path id="Path_13966" data-name="Path 13966" d="M21.555,1.736a.765.765,0,0,0-.56-.236H14.629a.764.764,0,0,0-.559.236.78.78,0,0,0,0,1.119l2.188,2.188L8.152,13.15a.391.391,0,0,0,0,.572l1.417,1.417a.391.391,0,0,0,.572,0l8.106-8.106,2.188,2.188a.8.8,0,0,0,1.355-.559V2.3A.765.765,0,0,0,21.555,1.736Z" transform="translate(0.489 -1.5)" fill="#138909"/>
    </g>
  </g>
</svg>
